<?xml version="1.0" standalone="no"?><!-- Generator: Gravit.io --><svg xmlns="http://www.w3.org/2000/svg" xmlns:xlink="http://www.w3.org/1999/xlink" style="isolation:isolate" viewBox="900 500 100 100" width="100" height="100"><defs><clipPath id="_clipPath_m6KnS2NjoMK0Cgk0MbMLJeurS9SZfMlI"><rect x="900" y="500" width="100" height="100"/></clipPath></defs><g clip-path="url(#_clipPath_m6KnS2NjoMK0Cgk0MbMLJeurS9SZfMlI)"><rect x="900" y="500" width="100" height="100" style="fill:rgb(147,147,147)" fill-opacity="0"/><clipPath id="_clipPath_vw01bfAjY1vcQ8ThXIorCZbp4mGMlRsp"><rect x="900" y="500" width="100" height="100" transform="matrix(1,0,0,1,0,0)" fill="rgb(255,255,255)"/></clipPath><g clip-path="url(#_clipPath_vw01bfAjY1vcQ8ThXIorCZbp4mGMlRsp)"><path d="M 920 510 L 980 510 C 985.519 510 990 514.481 990 520 L 990 580 C 990 585.519 985.519 590 980 590 L 920 590 C 914.481 590 910 585.519 910 580 L 910 520 C 910 514.481 914.481 510 920 510 Z" style="stroke:none;fill:#140715;stroke-miterlimit:10;"/><clipPath id="_clipPath_mq6Js9y3owy62w9pGjqmWJFKayZcGsri"><path d="M 920 510 L 980 510 C 985.519 510 990 514.481 990 520 L 990 580 C 990 585.519 985.519 590 980 590 L 920 590 C 914.481 590 910 585.519 910 580 L 910 520 C 910 514.481 914.481 510 920 510 Z" style="stroke:none;fill:#140715;stroke-miterlimit:10;"/></clipPath><g clip-path="url(#_clipPath_mq6Js9y3owy62w9pGjqmWJFKayZcGsri)"><defs><filter id="4EntZGvGLRhvXE76MdHTc30zg2W1TmCS" x="-200%" y="-200%" width="400%" height="400%" filterUnits="objectBoundingBox" color-interpolation-filters="sRGB"><feOffset xmlns="http://www.w3.org/2000/svg" in="SourceGraphic" dx="0" dy="0"/><feGaussianBlur xmlns="http://www.w3.org/2000/svg" stdDeviation="2.146804531419514" result="pf_100_offsetBlur"/><feComposite xmlns="http://www.w3.org/2000/svg" in="SourceGraphic" in2="pf_100_offsetBlur" result="pf_100_inverse" operator="out"/><feFlood xmlns="http://www.w3.org/2000/svg" flood-color="#000000" flood-opacity="0.5" result="pf_100_color"/><feComposite xmlns="http://www.w3.org/2000/svg" in="pf_100_color" in2="pf_100_inverse" operator="in" result="pf_100_shadow"/><feComposite xmlns="http://www.w3.org/2000/svg" in="pf_100_shadow" in2="SourceGraphic" operator="over"/></filter></defs><g filter="url(#4EntZGvGLRhvXE76MdHTc30zg2W1TmCS)"><path d=" M 960 500 L 972.47 512.47 C 972.762 512.762 972.776 513.224 972.5 513.5 L 972.5 513.5 C 972.224 513.776 972.238 514.238 972.53 514.53 L 975.47 517.47 C 975.762 517.762 976.224 517.776 976.5 517.5 L 976.5 517.5 C 976.776 517.224 977.238 517.238 977.53 517.53 L 979.47 519.47 C 979.762 519.762 979.762 520.238 979.47 520.53 L 977.53 522.47 C 977.238 522.762 976.776 522.776 976.5 522.5 L 976.5 522.5 C 976.224 522.224 976.224 521.776 976.5 521.5 L 976.5 521.5 C 976.776 521.224 976.776 520.776 976.5 520.5 L 976.5 520.5 C 976.224 520.224 975.776 520.224 975.5 520.5 L 975.5 520.5 C 975.224 520.776 974.762 520.762 974.47 520.47 L 971.53 517.53 C 971.238 517.238 970.776 517.224 970.5 517.5 L 970.5 517.5 C 970.224 517.776 970.238 518.238 970.53 518.53 L 973.47 521.47 C 973.762 521.762 973.762 522.238 973.47 522.53 L 972.53 523.47 C 972.238 523.762 972.224 524.224 972.5 524.5 L 972.5 524.5 C 972.776 524.776 973.238 524.762 973.53 524.47 L 974.47 523.53 C 974.762 523.238 975.224 523.224 975.5 523.5 L 975.5 523.5 C 975.776 523.776 975.762 524.238 975.47 524.53 L 970.53 529.47 C 970.238 529.762 970.224 530.224 970.5 530.5 L 970.5 530.5 C 970.776 530.776 971.238 530.762 971.53 530.47 L 974.47 527.53 C 974.762 527.238 975.238 527.238 975.53 527.53 L 978.47 530.47 C 978.762 530.762 979.224 530.776 979.5 530.5 L 979.5 530.5 C 979.776 530.224 979.776 529.776 979.5 529.5 L 979.5 529.5 C 979.224 529.224 979.224 528.776 979.5 528.5 L 979.5 528.5 C 979.776 528.224 979.776 527.776 979.5 527.5 L 979.5 527.5 C 979.224 527.224 978.776 527.224 978.5 527.5 L 978.5 527.5 C 978.224 527.776 977.762 527.762 977.47 527.47 L 976.53 526.53 C 976.238 526.238 976.238 525.762 976.53 525.47 L 978.47 523.53 C 978.762 523.238 979.238 523.238 979.53 523.53 L 981.47 525.47 C 981.762 525.762 982.224 525.776 982.5 525.5 L 982.5 525.5 C 982.776 525.224 982.762 524.762 982.47 524.47 L 980.53 522.53 C 980.238 522.238 980.224 521.776 980.5 521.5 L 980.5 521.5 C 980.776 521.224 981.238 521.238 981.53 521.53 L 985.47 525.47 C 985.762 525.762 985.762 526.238 985.47 526.53 L 982.53 529.47 C 982.238 529.762 982.224 530.224 982.5 530.5 L 982.5 530.5 C 982.776 530.776 983.238 530.762 983.53 530.47 L 986.47 527.53 C 986.762 527.238 987.238 527.238 987.53 527.53 L 1000 540 L 1000 500 L 960 500 Z " fill="rgb(139,195,247)"/></g><defs><filter id="p1j4mq1eBTyelAEQzTILtetIx1Bj1wPw" x="-200%" y="-200%" width="400%" height="400%" filterUnits="objectBoundingBox" color-interpolation-filters="sRGB"><feOffset xmlns="http://www.w3.org/2000/svg" in="SourceGraphic" dx="0" dy="0"/><feGaussianBlur xmlns="http://www.w3.org/2000/svg" stdDeviation="2.146804531419514" result="pf_100_offsetBlur"/><feComposite xmlns="http://www.w3.org/2000/svg" in="SourceGraphic" in2="pf_100_offsetBlur" result="pf_100_inverse" operator="out"/><feFlood xmlns="http://www.w3.org/2000/svg" flood-color="#000000" flood-opacity="0.5" result="pf_100_color"/><feComposite xmlns="http://www.w3.org/2000/svg" in="pf_100_color" in2="pf_100_inverse" operator="in" result="pf_100_shadow"/><feComposite xmlns="http://www.w3.org/2000/svg" in="pf_100_shadow" in2="SourceGraphic" operator="over"/></filter></defs><g filter="url(#p1j4mq1eBTyelAEQzTILtetIx1Bj1wPw)"><path d=" M 1000 560 L 987.53 572.47 C 987.238 572.762 986.776 572.776 986.5 572.5 L 986.5 572.5 C 986.224 572.224 985.762 572.238 985.47 572.53 L 982.53 575.47 C 982.238 575.762 982.224 576.224 982.5 576.5 L 982.5 576.5 C 982.776 576.776 982.762 577.238 982.47 577.53 L 980.53 579.47 C 980.238 579.762 979.762 579.762 979.47 579.47 L 977.53 577.53 C 977.238 577.238 977.224 576.776 977.5 576.5 L 977.5 576.5 C 977.776 576.224 978.224 576.224 978.5 576.5 L 978.5 576.5 C 978.776 576.776 979.224 576.776 979.5 576.5 L 979.5 576.5 C 979.776 576.224 979.776 575.776 979.5 575.5 L 979.5 575.5 C 979.224 575.224 979.238 574.762 979.53 574.47 L 982.47 571.53 C 982.762 571.238 982.776 570.776 982.5 570.5 L 982.5 570.5 C 982.224 570.224 981.762 570.238 981.47 570.53 L 978.53 573.47 C 978.238 573.762 977.762 573.762 977.47 573.47 L 976.53 572.53 C 976.238 572.238 975.776 572.224 975.5 572.5 L 975.5 572.5 C 975.224 572.776 975.238 573.238 975.53 573.53 L 976.47 574.47 C 976.762 574.762 976.776 575.224 976.5 575.5 L 976.5 575.5 C 976.224 575.776 975.762 575.762 975.47 575.47 L 970.53 570.53 C 970.238 570.238 969.776 570.224 969.5 570.5 L 969.5 570.5 C 969.224 570.776 969.238 571.238 969.53 571.53 L 972.47 574.47 C 972.762 574.762 972.762 575.238 972.47 575.53 L 969.53 578.47 C 969.238 578.762 969.224 579.224 969.5 579.5 L 969.5 579.5 C 969.776 579.776 970.224 579.776 970.5 579.5 L 970.5 579.5 C 970.776 579.224 971.224 579.224 971.5 579.5 L 971.5 579.5 C 971.776 579.776 972.224 579.776 972.5 579.5 L 972.5 579.5 C 972.776 579.224 972.776 578.776 972.5 578.5 L 972.5 578.5 C 972.224 578.224 972.238 577.762 972.53 577.47 L 973.47 576.53 C 973.762 576.238 974.238 576.238 974.53 576.53 L 976.47 578.47 C 976.762 578.762 976.762 579.238 976.47 579.53 L 974.53 581.47 C 974.238 581.762 974.224 582.224 974.5 582.5 L 974.5 582.5 C 974.776 582.776 975.238 582.762 975.53 582.47 L 977.47 580.53 C 977.762 580.238 978.224 580.224 978.5 580.5 L 978.5 580.5 C 978.776 580.776 978.762 581.238 978.47 581.53 L 974.53 585.47 C 974.238 585.762 973.762 585.762 973.47 585.47 L 970.53 582.53 C 970.238 582.238 969.776 582.224 969.5 582.5 L 969.5 582.5 C 969.224 582.776 969.238 583.238 969.53 583.53 L 972.47 586.47 C 972.762 586.762 972.762 587.238 972.47 587.53 L 960 600 L 1000 600 L 1000 560 Z " fill="rgb(248,237,147)"/></g><defs><filter id="nI2ikE7WpIFtnrKeX6kfEkEwFRhjuklT" x="-200%" y="-200%" width="400%" height="400%" filterUnits="objectBoundingBox" color-interpolation-filters="sRGB"><feOffset xmlns="http://www.w3.org/2000/svg" in="SourceGraphic" dx="0" dy="0"/><feGaussianBlur xmlns="http://www.w3.org/2000/svg" stdDeviation="2.146804531419514" result="pf_100_offsetBlur"/><feComposite xmlns="http://www.w3.org/2000/svg" in="SourceGraphic" in2="pf_100_offsetBlur" result="pf_100_inverse" operator="out"/><feFlood xmlns="http://www.w3.org/2000/svg" flood-color="#000000" flood-opacity="0.5" result="pf_100_color"/><feComposite xmlns="http://www.w3.org/2000/svg" in="pf_100_color" in2="pf_100_inverse" operator="in" result="pf_100_shadow"/><feComposite xmlns="http://www.w3.org/2000/svg" in="pf_100_shadow" in2="SourceGraphic" operator="over"/></filter></defs><g filter="url(#nI2ikE7WpIFtnrKeX6kfEkEwFRhjuklT)"><path d=" M 900 540 L 912.47 527.53 C 912.762 527.238 913.224 527.224 913.5 527.5 L 913.5 527.5 C 913.776 527.776 914.238 527.762 914.53 527.47 L 917.47 524.53 C 917.762 524.238 917.776 523.776 917.5 523.5 L 917.5 523.5 C 917.224 523.224 917.238 522.762 917.53 522.47 L 919.47 520.53 C 919.762 520.238 920.238 520.238 920.53 520.53 L 922.47 522.47 C 922.762 522.762 922.776 523.224 922.5 523.5 L 922.5 523.5 C 922.224 523.776 921.776 523.776 921.5 523.5 L 921.5 523.5 C 921.224 523.224 920.776 523.224 920.5 523.5 L 920.5 523.5 C 920.224 523.776 920.224 524.224 920.5 524.5 L 920.5 524.5 C 920.776 524.776 920.762 525.238 920.47 525.53 L 917.53 528.47 C 917.238 528.762 917.224 529.224 917.5 529.5 L 917.5 529.5 C 917.776 529.776 918.238 529.762 918.53 529.47 L 921.47 526.53 C 921.762 526.238 922.238 526.238 922.53 526.53 L 923.47 527.47 C 923.762 527.762 924.224 527.776 924.5 527.5 L 924.5 527.5 C 924.776 527.224 924.762 526.762 924.47 526.47 L 923.53 525.53 C 923.238 525.238 923.224 524.776 923.5 524.5 L 923.5 524.5 C 923.776 524.224 924.238 524.238 924.53 524.53 L 929.47 529.47 C 929.762 529.762 930.224 529.776 930.5 529.5 L 930.5 529.5 C 930.776 529.224 930.762 528.762 930.47 528.47 L 927.53 525.53 C 927.238 525.238 927.238 524.762 927.53 524.47 L 930.47 521.53 C 930.762 521.238 930.776 520.776 930.5 520.5 L 930.5 520.5 C 930.224 520.224 929.776 520.224 929.5 520.5 L 929.5 520.5 C 929.224 520.776 928.776 520.776 928.5 520.5 L 928.5 520.5 C 928.224 520.224 927.776 520.224 927.5 520.5 L 927.5 520.5 C 927.224 520.776 927.224 521.224 927.5 521.5 L 927.5 521.5 C 927.776 521.776 927.762 522.238 927.47 522.53 L 926.53 523.47 C 926.238 523.762 925.762 523.762 925.47 523.47 L 923.53 521.53 C 923.238 521.238 923.238 520.762 923.53 520.47 L 925.47 518.53 C 925.762 518.238 925.776 517.776 925.5 517.5 L 925.5 517.5 C 925.224 517.224 924.762 517.238 924.47 517.53 L 922.53 519.47 C 922.238 519.762 921.776 519.776 921.5 519.5 L 921.5 519.5 C 921.224 519.224 921.238 518.762 921.53 518.47 L 925.47 514.53 C 925.762 514.238 926.238 514.238 926.53 514.53 L 929.47 517.47 C 929.762 517.762 930.224 517.776 930.5 517.5 L 930.5 517.5 C 930.776 517.224 930.762 516.762 930.47 516.47 L 927.53 513.53 C 927.238 513.238 927.238 512.762 927.53 512.47 L 940 500 L 900 500 L 900 540 Z " fill="rgb(243,171,253)"/></g><defs><filter id="08xnn7Zu8ezpng8k6vifflBr7bz7188n" x="-200%" y="-200%" width="400%" height="400%" filterUnits="objectBoundingBox" color-interpolation-filters="sRGB"><feOffset xmlns="http://www.w3.org/2000/svg" in="SourceGraphic" dx="0" dy="0"/><feGaussianBlur xmlns="http://www.w3.org/2000/svg" stdDeviation="2.146804531419514" result="pf_100_offsetBlur"/><feComposite xmlns="http://www.w3.org/2000/svg" in="SourceGraphic" in2="pf_100_offsetBlur" result="pf_100_inverse" operator="out"/><feFlood xmlns="http://www.w3.org/2000/svg" flood-color="#000000" flood-opacity="0.5" result="pf_100_color"/><feComposite xmlns="http://www.w3.org/2000/svg" in="pf_100_color" in2="pf_100_inverse" operator="in" result="pf_100_shadow"/><feComposite xmlns="http://www.w3.org/2000/svg" in="pf_100_shadow" in2="SourceGraphic" operator="over"/></filter></defs><g filter="url(#08xnn7Zu8ezpng8k6vifflBr7bz7188n)"><path d=" M 940 600 L 927.53 587.53 C 927.238 587.238 927.224 586.776 927.5 586.5 L 927.5 586.5 C 927.776 586.224 927.762 585.762 927.47 585.47 L 924.53 582.53 C 924.238 582.238 923.776 582.224 923.5 582.5 L 923.5 582.5 C 923.224 582.776 922.762 582.762 922.47 582.47 L 920.53 580.53 C 920.238 580.238 920.238 579.762 920.53 579.47 L 922.47 577.53 C 922.762 577.238 923.224 577.224 923.5 577.5 L 923.5 577.5 C 923.776 577.776 923.776 578.224 923.5 578.5 L 923.5 578.5 C 923.224 578.776 923.224 579.224 923.5 579.5 L 923.5 579.5 C 923.776 579.776 924.224 579.776 924.5 579.5 L 924.5 579.5 C 924.776 579.224 925.238 579.238 925.53 579.53 L 928.47 582.47 C 928.762 582.762 929.224 582.776 929.5 582.5 L 929.5 582.5 C 929.776 582.224 929.762 581.762 929.47 581.47 L 926.53 578.53 C 926.238 578.238 926.238 577.762 926.53 577.47 L 927.47 576.53 C 927.762 576.238 927.776 575.776 927.5 575.5 L 927.5 575.5 C 927.224 575.224 926.762 575.238 926.47 575.53 L 925.53 576.47 C 925.238 576.762 924.776 576.776 924.5 576.5 L 924.5 576.5 C 924.224 576.224 924.238 575.762 924.53 575.47 L 929.47 570.53 C 929.762 570.238 929.776 569.776 929.5 569.5 L 929.5 569.5 C 929.224 569.224 928.762 569.238 928.47 569.53 L 925.53 572.47 C 925.238 572.762 924.762 572.762 924.47 572.47 L 921.53 569.53 C 921.238 569.238 920.776 569.224 920.5 569.5 L 920.5 569.5 C 920.224 569.776 920.224 570.224 920.5 570.5 L 920.5 570.5 C 920.776 570.776 920.776 571.224 920.5 571.5 L 920.5 571.5 C 920.224 571.776 920.224 572.224 920.5 572.5 L 920.5 572.5 C 920.776 572.776 921.224 572.776 921.5 572.5 L 921.5 572.5 C 921.776 572.224 922.238 572.238 922.53 572.53 L 923.47 573.47 C 923.762 573.762 923.762 574.238 923.47 574.53 L 921.53 576.47 C 921.238 576.762 920.762 576.762 920.47 576.47 L 918.53 574.53 C 918.238 574.238 917.776 574.224 917.5 574.5 L 917.5 574.5 C 917.224 574.776 917.238 575.238 917.53 575.53 L 919.47 577.47 C 919.762 577.762 919.776 578.224 919.5 578.5 L 919.5 578.5 C 919.224 578.776 918.762 578.762 918.47 578.47 L 914.53 574.53 C 914.238 574.238 914.238 573.762 914.53 573.47 L 917.47 570.53 C 917.762 570.238 917.776 569.776 917.5 569.5 L 917.5 569.5 C 917.224 569.224 916.762 569.238 916.47 569.53 L 913.53 572.47 C 913.238 572.762 912.762 572.762 912.47 572.47 L 900 560 L 900 600 L 940 600 Z " fill="rgb(171,253,185)"/></g></g><g><g filter="url(#sGCyr7D4oQhkA8AHNnJ5U3qk8WsGFSnr)"><path d=" M 926.785 542.33 L 950.042 533.865 C 950.626 533.652 951.272 533.953 951.484 534.537 L 957.128 550.042 C 957.34 550.625 957.039 551.271 956.455 551.484 L 933.198 559.949 C 932.614 560.161 931.968 559.86 931.756 559.276 L 926.112 543.771 C 925.9 543.188 926.201 542.542 926.785 542.33 Z " fill="rgb(208,164,120)"/><linearGradient id="_lgradient_0" x1="-0.17279411764705802" y1="-0.1766304347826093" x2="2.165441176470587" y2="1.9972826086956523" gradientTransform="matrix(11.322,-4.121,5.575,15.318,927.51,543.368)" gradientUnits="userSpaceOnUse"><stop offset="0%" stop-opacity="1" style="stop-color:rgb(235,235,235)"/><stop offset="99.1304347826087%" stop-opacity="1" style="stop-color:rgb(100,99,99)"/></linearGradient><path d=" M 928.176 543.126 L 938.832 539.248 L 944.408 554.566 L 933.752 558.444 C 933.384 558.578 932.977 558.388 932.843 558.021 L 927.753 544.034 C 927.619 543.667 927.809 543.26 928.176 543.126 Z " fill="url(#_lgradient_0)"/><linearGradient id="_lgradient_1" x1="-0.17279411764705802" y1="-0.1766304347826093" x2="2.165441176470587" y2="1.9972826086956523" gradientTransform="matrix(11.322,-4.121,5.575,15.318,938.832,539.248)" gradientUnits="userSpaceOnUse"><stop offset="0%" stop-opacity="1" style="stop-color:rgb(235,235,235)"/><stop offset="100%" stop-opacity="1" style="stop-color:rgb(111,111,111)"/></linearGradient><path d=" M 938.832 539.248 L 949.488 535.369 C 949.856 535.235 950.263 535.425 950.397 535.793 L 955.487 549.779 C 955.621 550.146 955.431 550.553 955.064 550.687 L 944.408 554.566 L 938.832 539.248 Z " fill="url(#_lgradient_1)"/></g><defs><filter id="sGCyr7D4oQhkA8AHNnJ5U3qk8WsGFSnr" x="-200%" y="-200%" width="400%" height="400%" filterUnits="objectBoundingBox" color-interpolation-filters="sRGB"><feOffset xmlns="http://www.w3.org/2000/svg" in="SourceGraphic" dx="0" dy="0"/><feGaussianBlur xmlns="http://www.w3.org/2000/svg" stdDeviation="2.146804531419514" result="pf_100_offsetBlur"/><feComposite xmlns="http://www.w3.org/2000/svg" in="SourceGraphic" in2="pf_100_offsetBlur" result="pf_100_inverse" operator="out"/><feFlood xmlns="http://www.w3.org/2000/svg" flood-color="#000000" flood-opacity="0.5" result="pf_100_color"/><feComposite xmlns="http://www.w3.org/2000/svg" in="pf_100_color" in2="pf_100_inverse" operator="in" result="pf_100_shadow"/><feComposite xmlns="http://www.w3.org/2000/svg" in="pf_100_shadow" in2="SourceGraphic" operator="over"/></filter></defs><g filter="url(#5jsj2CVLOuXplBPwhPklfIgJjZJg7Aus)"><path d=" M 964.444 549.619 L 973.78 558.955 C 974.014 559.189 974.014 559.57 973.78 559.804 L 967.556 566.028 C 967.322 566.262 966.941 566.262 966.707 566.028 L 957.371 556.692 C 957.137 556.458 957.137 556.077 957.371 555.843 L 963.595 549.619 C 963.829 549.385 964.21 549.385 964.444 549.619 Z " fill="rgb(208,164,120)"/><linearGradient id="_lgradient_2" x1="-0.17279411764705802" y1="-0.1766304347826093" x2="2.165441176470587" y2="1.9972826086956523" gradientTransform="matrix(4.545,4.545,-6.149,6.149,964.105,550.204)" gradientUnits="userSpaceOnUse"><stop offset="0%" stop-opacity="1" style="stop-color:rgb(235,235,235)"/><stop offset="99.1304347826087%" stop-opacity="1" style="stop-color:rgb(100,99,99)"/></linearGradient><path d=" M 964.373 550.471 L 968.65 554.749 L 962.501 560.898 L 958.223 556.62 C 958.076 556.473 958.076 556.233 958.223 556.086 L 963.838 550.471 C 963.985 550.324 964.225 550.324 964.373 550.471 Z " fill="url(#_lgradient_2)"/><linearGradient id="_lgradient_3" x1="-0.17279411764705802" y1="-0.1766304347826093" x2="2.165441176470587" y2="1.9972826086956523" gradientTransform="matrix(4.545,4.545,-6.149,6.149,968.65,554.749)" gradientUnits="userSpaceOnUse"><stop offset="0%" stop-opacity="1" style="stop-color:rgb(235,235,235)"/><stop offset="100%" stop-opacity="1" style="stop-color:rgb(111,111,111)"/></linearGradient><path d=" M 968.65 554.749 L 972.928 559.027 C 973.075 559.174 973.075 559.414 972.928 559.561 L 967.313 565.176 C 967.166 565.323 966.926 565.323 966.779 565.176 L 962.501 560.898 L 968.65 554.749 Z " fill="url(#_lgradient_3)"/></g><defs><filter id="5jsj2CVLOuXplBPwhPklfIgJjZJg7Aus" x="-200%" y="-200%" width="400%" height="400%" filterUnits="objectBoundingBox" color-interpolation-filters="sRGB"><feOffset xmlns="http://www.w3.org/2000/svg" in="SourceGraphic" dx="0" dy="0"/><feGaussianBlur xmlns="http://www.w3.org/2000/svg" stdDeviation="2.146804531419514" result="pf_100_offsetBlur"/><feComposite xmlns="http://www.w3.org/2000/svg" in="SourceGraphic" in2="pf_100_offsetBlur" result="pf_100_inverse" operator="out"/><feFlood xmlns="http://www.w3.org/2000/svg" flood-color="#000000" flood-opacity="0.5" result="pf_100_color"/><feComposite xmlns="http://www.w3.org/2000/svg" in="pf_100_color" in2="pf_100_inverse" operator="in" result="pf_100_shadow"/><feComposite xmlns="http://www.w3.org/2000/svg" in="pf_100_shadow" in2="SourceGraphic" operator="over"/></filter></defs></g></g></g></svg>