<?xml version="1.0" standalone="no"?><!-- Generator: Gravit.io --><svg xmlns="http://www.w3.org/2000/svg" xmlns:xlink="http://www.w3.org/1999/xlink" style="isolation:isolate" viewBox="750 2270 100 100" width="100" height="100"><defs><clipPath id="_clipPath_Efa3SvRXJSCNMqeWH3SrucXFuZrKxkjR"><rect x="750" y="2270" width="100" height="100"/></clipPath></defs><g clip-path="url(#_clipPath_Efa3SvRXJSCNMqeWH3SrucXFuZrKxkjR)"><clipPath id="_clipPath_SNPMr1pCXmrqQQDYwjXwYtvdAg9s66pL"><rect x="750" y="2270" width="100" height="100" transform="matrix(1,0,0,1,0,0)" fill="rgb(255,255,255)"/></clipPath><g clip-path="url(#_clipPath_SNPMr1pCXmrqQQDYwjXwYtvdAg9s66pL)"><defs><linearGradient id="_lgradient_5" x1="1.0000000000000018" y1="0.9999999999999999" x2="0" y2="1.1102230246251565e-16"><stop offset="0%" style="stop-color:#EF8B8B"/><stop offset="100%" style="stop-color:#B5834F"/></linearGradient></defs><path d="M 770 2280 L 830 2280 C 835.519 2280 840 2284.481 840 2290 L 840 2350 C 840 2355.519 835.519 2360 830 2360 L 770 2360 C 764.481 2360 760 2355.519 760 2350 L 760 2290 C 760 2284.481 764.481 2280 770 2280 Z" style="stroke:none;fill:url(#_lgradient_5);stroke-miterlimit:10;"/><clipPath id="_clipPath_TukynuAbyNExraHPPNQwYZZiAIDWAXSh"><path d="M 770 2280 L 830 2280 C 835.519 2280 840 2284.481 840 2290 L 840 2350 C 840 2355.519 835.519 2360 830 2360 L 770 2360 C 764.481 2360 760 2355.519 760 2350 L 760 2290 C 760 2284.481 764.481 2280 770 2280 Z" style="stroke:none;fill:url(#_lgradient_5);stroke-miterlimit:10;"/></clipPath><g clip-path="url(#_clipPath_TukynuAbyNExraHPPNQwYZZiAIDWAXSh)"><g><g><defs><linearGradient id="_lgradient_6" x1="0" y1="0" x2="1.0000000000000002" y2="1"><stop offset="0%" style="stop-color:#DEBC82"/><stop offset="100%" style="stop-color:#B99D6C"/></linearGradient></defs><path d="M 785.722 2309.929 L 785.722 2309.929 C 786.652 2308.999 788.162 2308.999 789.092 2309.929 L 816.184 2337.021 C 817.114 2337.951 817.114 2339.461 816.184 2340.39 L 816.184 2340.39 C 815.254 2341.32 813.744 2341.32 812.814 2340.39 L 785.722 2313.298 C 784.792 2312.368 784.792 2310.859 785.722 2309.929 Z" style="stroke:none;fill:url(#_lgradient_6);stroke-miterlimit:10;"/><linearGradient id="_lgradient_7" x1="0" y1="0.5" x2="1" y2="0.5" gradientTransform="matrix(23.831,0,0,14.298,769.005,2304.948)" gradientUnits="userSpaceOnUse"><stop offset="0%" stop-opacity="1" style="stop-color:rgb(198,198,198)"/><stop offset="99.1304347826087%" stop-opacity="1" style="stop-color:rgb(166,166,166)"/></linearGradient><rect x="768.889" y="2304.6" width="23.827" height="14.296" transform="matrix(0.707,-0.707,0.707,0.707,-1405.961,1229.206)" fill="url(#_lgradient_7)"/><clipPath id="_clipPath_2uQ0q1kXvNFAa3me4Yq8LwNq0eFb89Ff"><rect x="768.889" y="2304.6" width="23.827" height="14.296" transform="matrix(0.707,-0.707,0.707,0.707,-1405.961,1229.206)" fill="url(#_lgradient_7)"/></clipPath><g clip-path="url(#_clipPath_2uQ0q1kXvNFAa3me4Yq8LwNq0eFb89Ff)"><rect x="767.613" y="2308.259" width="9.531" height="23.827" transform="matrix(0.707,-0.707,0.707,0.707,-1414.385,1225.716)" fill="rgb(226,226,226)"/></g></g><g><defs><linearGradient id="_lgradient_8" x1="0" y1="0" x2="1.0000000000000002" y2="1"><stop offset="0%" style="stop-color:#DEBC82"/><stop offset="100%" style="stop-color:#B99D6C"/></linearGradient></defs><path d="M 816.246 2309.327 L 816.246 2309.327 C 817.213 2310.294 817.213 2311.864 816.246 2312.831 L 788.072 2341.005 C 787.105 2341.972 785.535 2341.972 784.568 2341.005 L 784.568 2341.005 C 783.601 2340.038 783.601 2338.468 784.568 2337.501 L 812.742 2309.327 C 813.709 2308.36 815.279 2308.36 816.246 2309.327 Z" style="stroke:none;fill:url(#_lgradient_8);stroke-miterlimit:10;"/><linearGradient id="_lgradient_9" x1="0" y1="0.5" x2="1" y2="0.5" gradientTransform="matrix(35.042,35.042,-14.017,14.017,802.229,2288.301)" gradientUnits="userSpaceOnUse"><stop offset="0%" stop-opacity="1" style="stop-color:rgb(190,190,190)"/><stop offset="100%" stop-opacity="1" style="stop-color:rgb(166,166,166)"/></linearGradient><path d=" M 819.751 2305.822 C 827.787 2313.859 830.17 2323.344 823.255 2337.361 Q 823.302 2323.39 812.742 2312.831 Q 802.183 2302.271 788.212 2302.318 C 802.183 2295.45 811.714 2297.786 819.751 2305.822 Z " fill="url(#_lgradient_9)"/><clipPath id="_clipPath_G92jCyBxihbMMMbHi2f6DLAIqvqlg9wC"><path d=" M 819.751 2305.822 C 827.787 2313.859 830.17 2323.344 823.255 2337.361 Q 823.302 2323.39 812.742 2312.831 Q 802.183 2302.271 788.212 2302.318 C 802.183 2295.45 811.714 2297.786 819.751 2305.822 Z " fill="url(#_lgradient_9)"/></clipPath><g clip-path="url(#_clipPath_G92jCyBxihbMMMbHi2f6DLAIqvqlg9wC)"><path d=" M 813.804 2311.769 C 821.841 2319.805 824.744 2332.262 823.255 2337.361 Q 823.302 2323.39 812.742 2312.831 Q 802.183 2302.271 788.212 2302.318 C 793.367 2299.673 805.717 2302.578 813.804 2311.769 Z " fill="rgb(226,226,226)"/><path d=" M 803.771 2296.571 L 789.964 2303.229 L 785.269 2301.477 L 803.771 2296.571 Z " fill="rgb(226,226,226)"/></g></g></g><defs><filter id="0VpSLrbawscZ8RPruht6LHIlPggHVqMF" x="-200%" y="-200%" width="400%" height="400%" filterUnits="objectBoundingBox" color-interpolation-filters="sRGB"><feOffset xmlns="http://www.w3.org/2000/svg" in="SourceGraphic" dx="0" dy="0"/><feGaussianBlur xmlns="http://www.w3.org/2000/svg" stdDeviation="2.146804531419514" result="pf_100_offsetBlur"/><feComposite xmlns="http://www.w3.org/2000/svg" in="SourceGraphic" in2="pf_100_offsetBlur" result="pf_100_inverse" operator="out"/><feFlood xmlns="http://www.w3.org/2000/svg" flood-color="#000000" flood-opacity="0.5" result="pf_100_color"/><feComposite xmlns="http://www.w3.org/2000/svg" in="pf_100_color" in2="pf_100_inverse" operator="in" result="pf_100_shadow"/><feComposite xmlns="http://www.w3.org/2000/svg" in="pf_100_shadow" in2="SourceGraphic" operator="over"/></filter></defs><g filter="url(#0VpSLrbawscZ8RPruht6LHIlPggHVqMF)"><path d=" M 788.22 2302.318 L 794.281 2308.379 L 790.911 2311.748 L 800.616 2321.453 L 810.94 2311.128 Q 801.01 2302.278 788.22 2302.318 Z  M 788.218 2302.316 L 784.172 2298.27 L 767.323 2315.118 L 777.432 2325.227 L 787.541 2315.118 L 797.246 2324.823 L 784.568 2337.501 C 783.601 2338.468 783.601 2340.038 784.568 2341.005 L 784.568 2341.005 C 785.535 2341.972 787.105 2341.972 788.072 2341.005 L 800.75 2328.327 L 812.814 2340.39 C 813.744 2341.32 815.254 2341.32 816.184 2340.39 L 816.184 2340.39 C 817.114 2339.461 817.114 2337.951 816.184 2337.021 L 804.12 2324.957 L 814.445 2314.633 Q 823.298 2324.566 823.255 2337.361 C 830.17 2323.344 827.787 2313.859 819.751 2305.822 C 811.715 2297.787 802.185 2295.45 788.218 2302.316 Z " fill-rule="evenodd" fill="rgb(66,66,66)" fill-opacity="0.56"/></g></g></g></g></svg>