<?xml version="1.0" standalone="no"?><!-- Generator: Gravit.io --><svg xmlns="http://www.w3.org/2000/svg" xmlns:xlink="http://www.w3.org/1999/xlink" style="isolation:isolate" viewBox="300 -50 200 270" width="200" height="270"><defs><clipPath id="_clipPath_3u0dTlfe5TwQtUdYuIVujdRzIW3tuUX0"><rect x="300" y="-50" width="200" height="270"/></clipPath></defs><g clip-path="url(#_clipPath_3u0dTlfe5TwQtUdYuIVujdRzIW3tuUX0)"><g><g><g><path d=" M 310 110 L 490 110 L 490 220 L 310 220 L 310 110 Z " fill="rgb(248,201,159)"/><clipPath id="_clipPath_U3Vb0Hwclj75mgfuvUTe0Sx0N3lLtLp8"><path d=" M 310 110 L 490 110 L 490 220 L 310 220 L 310 110 Z " fill="rgb(248,201,159)"/></clipPath><g clip-path="url(#_clipPath_U3Vb0Hwclj75mgfuvUTe0Sx0N3lLtLp8)"><path d=" M 435 130 L 400 115 L 310 180 L 310 135 L 415 95 L 435 130 Z " fill="rgb(0,0,0)" fill-opacity="0.2"/></g><path d=" M 400 0 L 500 60 L 500 170 L 400 110 L 400 0 Z " fill="rgb(73,128,155)"/><path d=" M 300 60 L 300 170 L 400 110 L 400 0 L 300 60 Z " fill="rgb(103,176,213)"/></g></g><g><path d=" M 400 80 L 350 110 L 350 20 L 450 20 L 450 110 L 400 80 Z " fill="rgb(248,201,159)"/><clipPath id="_clipPath_r8VubTI3cUfpRUOXt7ageHig9qVyxar0"><path d=" M 400 80 L 350 110 L 350 20 L 450 20 L 450 110 L 400 80 Z " fill="rgb(248,201,159)"/></clipPath><g clip-path="url(#_clipPath_r8VubTI3cUfpRUOXt7ageHig9qVyxar0)"><path d=" M 415 30 L 400 25 L 350 65 L 350 15 L 410 10 L 415 30 Z " fill="rgb(0,0,0)" fill-opacity="0.2"/></g><g><path d=" M 400 -50 L 465.331 -10.801 L 465.331 61.063 L 400 21.864 L 400 -50 Z " fill="rgb(85,147,179)"/><path d=" M 334.669 -10.801 L 334.669 61.063 L 400 21.864 L 400 -50 L 334.669 -10.801 Z " fill="rgb(108,195,238)"/></g></g></g></g></svg>