<?xml version="1.0" standalone="no"?><!-- Generator: Gravit.io --><svg xmlns="http://www.w3.org/2000/svg" xmlns:xlink="http://www.w3.org/1999/xlink" style="isolation:isolate" viewBox="636 276.5 600 600" width="600" height="600"><defs><clipPath id="_clipPath_Q9yQaXKNec61cBGiaW2coaCEyAIiYITX"><rect x="636" y="276.5" width="600" height="600"/></clipPath></defs><g clip-path="url(#_clipPath_Q9yQaXKNec61cBGiaW2coaCEyAIiYITX)"><clipPath id="_clipPath_8wKe6IyiPFzcCwNN5Vj2dhljBLMvQoql"><rect x="636" y="276.5" width="600" height="600" transform="matrix(1,0,0,1,0,0)" fill="rgb(255,255,255)"/></clipPath><g clip-path="url(#_clipPath_8wKe6IyiPFzcCwNN5Vj2dhljBLMvQoql)"><g><defs><linearGradient id="_lgradient_0" x1="0" y1="0" x2="1.0000000000000002" y2="1"><stop offset="0%" style="stop-color:#DEBC82"/><stop offset="100%" style="stop-color:#B99D6C"/></linearGradient></defs><path d="M 831.436 455.82 L 831.436 455.82 C 841.192 446.064 857.034 446.064 866.791 455.82 L 1151.048 740.077 C 1160.804 749.834 1160.804 765.676 1151.048 775.433 L 1151.048 775.433 C 1141.291 785.189 1125.449 785.189 1115.693 775.433 L 831.436 491.176 C 821.679 481.419 821.679 465.577 831.436 455.82 Z" style="stroke:none;fill:url(#_lgradient_0);stroke-miterlimit:10;"/><linearGradient id="_lgradient_1" x1="0" y1="0.5" x2="1" y2="0.5" gradientTransform="matrix(182.231,0,0,375,713.635,370.25)" gradientUnits="userSpaceOnUse"><stop offset="0%" stop-opacity="1" style="stop-color:rgb(190,190,190)"/><stop offset="100%" stop-opacity="1" style="stop-color:rgb(166,166,166)"/></linearGradient><path d=" M 895.865 445.25 Q 825.36 513.418 734.949 745.25 C 665.653 604.3 784.365 407.75 820.865 370.25 L 895.865 445.25 Z " fill="url(#_lgradient_1)"/><clipPath id="_clipPath_oP0ZZiSrYyD2h9ABO1vDBEWgLHZYaEF2"><path d=" M 895.865 445.25 Q 825.36 513.418 734.949 745.25 C 665.653 604.3 784.365 407.75 820.865 370.25 L 895.865 445.25 Z " fill="url(#_lgradient_1)"/></clipPath><g clip-path="url(#_clipPath_oP0ZZiSrYyD2h9ABO1vDBEWgLHZYaEF2)"><path d=" M 676.967 588.272 L 744.142 727.572 L 726.464 774.948 L 676.967 588.272 Z " fill="rgb(226,226,226)"/><path d=" M 722.615 744.5 C 772.924 600.002 816.934 526.262 854.615 523.25 L 814.865 763.25 L 722.615 744.5 Z " fill="rgb(226,226,226)"/></g></g></g></g></svg>