<?xml version="1.0" standalone="no"?><!-- Generator: Gravit.io --><svg xmlns="http://www.w3.org/2000/svg" xmlns:xlink="http://www.w3.org/1999/xlink" style="isolation:isolate" viewBox="3450 0 600 600" width="600" height="600"><defs><clipPath id="_clipPath_Cz9dfMvM9lNdJ5AwiRoR9Ja0JUywP1lP"><rect x="3450" y="0" width="600" height="600"/></clipPath></defs><g clip-path="url(#_clipPath_Cz9dfMvM9lNdJ5AwiRoR9Ja0JUywP1lP)"><rect x="3450" y="0" width="600" height="600" style="fill:rgb(217,217,217)" fill-opacity="0"/><clipPath id="_clipPath_zN7C8dkI3xhlYuYOQ7b6OVa5qmTWHsD0"><rect x="3450" y="0" width="600" height="600" transform="matrix(1,0,0,1,0,0)" fill="rgb(255,255,255)"/></clipPath><g clip-path="url(#_clipPath_zN7C8dkI3xhlYuYOQ7b6OVa5qmTWHsD0)"><g><defs><linearGradient id="_lgradient_0" x1="0" y1="0" x2="1.0000000000000002" y2="1"><stop offset="0%" style="stop-color:#DEBC82"/><stop offset="100%" style="stop-color:#B99D6C"/></linearGradient></defs><path d="M 3642.314 192.415 L 3642.314 192.415 C 3652.07 182.659 3667.913 182.659 3677.669 192.415 L 3961.926 476.672 C 3971.683 486.429 3971.683 502.271 3961.926 512.028 L 3961.926 512.028 C 3952.17 521.784 3936.327 521.784 3926.571 512.028 L 3642.314 227.771 C 3632.557 218.014 3632.557 202.172 3642.314 192.415 Z" style="stroke:none;fill:url(#_lgradient_0);stroke-miterlimit:10;"/><linearGradient id="_lgradient_1" x1="0" y1="0.5" x2="1" y2="0.5" gradientTransform="matrix(353.553,-353.553,141.421,141.421,3430.182,333.837)" gradientUnits="userSpaceOnUse"><stop offset="0%" stop-opacity="1" style="stop-color:rgb(190,190,190)"/><stop offset="100%" stop-opacity="1" style="stop-color:rgb(166,166,166)"/></linearGradient><path d=" M 3606.958 157.06 C 3688.04 75.978 3783.735 51.937 3925.157 121.705 Q 3784.207 121.233 3677.669 227.771 Q 3571.132 334.308 3571.603 475.258 C 3502.307 334.308 3525.877 238.142 3606.958 157.06 Z " fill="url(#_lgradient_1)"/><clipPath id="_clipPath_lhdc2QoXfPxaiuQaq5BvNXu2NUkfPoxh"><path d=" M 3606.958 157.06 C 3688.04 75.978 3783.735 51.937 3925.157 121.705 Q 3784.207 121.233 3677.669 227.771 Q 3571.132 334.308 3571.603 475.258 C 3502.307 334.308 3525.877 238.142 3606.958 157.06 Z " fill="url(#_lgradient_1)"/></clipPath><g clip-path="url(#_clipPath_lhdc2QoXfPxaiuQaq5BvNXu2NUkfPoxh)"><path d=" M 3666.951 217.053 C 3748.033 135.971 3873.715 106.679 3925.157 121.705 Q 3784.207 121.233 3677.669 227.771 Q 3571.132 334.308 3571.603 475.258 C 3544.919 423.256 3574.222 298.645 3666.951 217.053 Z " fill="rgb(226,226,226)"/><path d=" M 3513.62 318.28 L 3580.796 457.58 L 3563.118 504.956 L 3513.62 318.28 Z " fill="rgb(226,226,226)"/></g></g></g></g></svg>