<?xml version="1.0" standalone="no"?><!-- Generator: Gravit.io --><svg xmlns="http://www.w3.org/2000/svg" xmlns:xlink="http://www.w3.org/1999/xlink" style="isolation:isolate" viewBox="2550 0 600 600" width="600" height="600"><defs><clipPath id="_clipPath_Ts43xjIdXBDt5ZvDiPT9dayYOTyyHVLy"><rect x="2550" y="0" width="600" height="600"/></clipPath></defs><g clip-path="url(#_clipPath_Ts43xjIdXBDt5ZvDiPT9dayYOTyyHVLy)"><rect x="2550" y="0" width="600" height="600" style="fill:rgb(217,217,217)" fill-opacity="0"/><clipPath id="_clipPath_LNcYVM8N1gf8kyxy6SGfEXDsr0sPLADy"><rect x="2550" y="0" width="600" height="600" transform="matrix(1,0,0,1,0,0)" fill="rgb(255,255,255)"/></clipPath><g clip-path="url(#_clipPath_LNcYVM8N1gf8kyxy6SGfEXDsr0sPLADy)"><g><defs><linearGradient id="_lgradient_2" x1="0" y1="0" x2="1.0000000000000002" y2="1"><stop offset="0%" style="stop-color:#DEBC82"/><stop offset="100%" style="stop-color:#B99D6C"/></linearGradient></defs><path d="M 2748.04 197.7 L 2748.04 197.7 C 2757.797 187.943 2773.639 187.943 2783.395 197.7 L 3067.652 481.957 C 3077.409 491.713 3077.409 507.556 3067.652 517.312 L 3067.652 517.312 C 3057.896 527.069 3042.054 527.069 3032.297 517.312 L 2748.04 233.055 C 2738.284 223.299 2738.284 207.456 2748.04 197.7 Z" style="stroke:none;fill:url(#_lgradient_2);stroke-miterlimit:10;"/><linearGradient id="_lgradient_3" x1="0" y1="0.5" x2="1" y2="0.5" gradientTransform="matrix(250.038,0,0,150.023,2571.81,141.813)" gradientUnits="userSpaceOnUse"><stop offset="0%" stop-opacity="1" style="stop-color:rgb(198,198,198)"/><stop offset="99.1304347826087%" stop-opacity="1" style="stop-color:rgb(166,166,166)"/></linearGradient><rect x="2571.421" y="141.792" width="250" height="150" transform="matrix(0.707,-0.707,0.707,0.707,636.469,1970.155)" fill="url(#_lgradient_3)"/><clipPath id="_clipPath_wdUTSp1wHUndbVYRJdOH1WgX3a9Mu6z8"><rect x="2571.421" y="141.792" width="250" height="150" transform="matrix(0.707,-0.707,0.707,0.707,636.469,1970.155)" fill="url(#_lgradient_3)"/></clipPath><g clip-path="url(#_clipPath_wdUTSp1wHUndbVYRJdOH1WgX3a9Mu6z8)"><rect x="2558.033" y="180.18" width="100" height="250" transform="matrix(0.707,-0.707,0.707,0.707,548.08,1933.543)" fill="rgb(226,226,226)"/></g></g></g></g></svg>