<?xml version="1.0" standalone="no"?><!-- Generator: Gravit.io --><svg xmlns="http://www.w3.org/2000/svg" xmlns:xlink="http://www.w3.org/1999/xlink" style="isolation:isolate" viewBox="1511 638 100 100" width="100" height="100"><defs><clipPath id="_clipPath_Uj0VGVNtHBnmyFGkt1fnvQZpcaJmR6OC"><rect x="1511" y="638" width="100" height="100"/></clipPath></defs><g clip-path="url(#_clipPath_Uj0VGVNtHBnmyFGkt1fnvQZpcaJmR6OC)"><clipPath id="_clipPath_Y3OkRQgabHZM00HW3iL3ZA9ZRGR0j5OP"><rect x="1511" y="638" width="100" height="100" transform="matrix(1,0,0,1,0,0)" fill="rgb(255,255,255)"/></clipPath><g clip-path="url(#_clipPath_Y3OkRQgabHZM00HW3iL3ZA9ZRGR0j5OP)"><defs><linearGradient id="_lgradient_0" x1="0" y1="0" x2="1.0000000000000002" y2="1"><stop offset="0%" style="stop-color:#FFDF80"/><stop offset="100%" style="stop-color:#BBA563"/></linearGradient></defs><path d="M 1531 648 L 1591 648 C 1596.519 648 1601 652.481 1601 658 L 1601 718 C 1601 723.519 1596.519 728 1591 728 L 1531 728 C 1525.481 728 1521 723.519 1521 718 L 1521 658 C 1521 652.481 1525.481 648 1531 648 Z" style="stroke:none;fill:url(#_lgradient_0);stroke-miterlimit:10;"/><clipPath id="_clipPath_SaTSKS4yhoU3Yb9RqOZMF3aKqSEkgQP4"><path d="M 1531 648 L 1591 648 C 1596.519 648 1601 652.481 1601 658 L 1601 718 C 1601 723.519 1596.519 728 1591 728 L 1531 728 C 1525.481 728 1521 723.519 1521 718 L 1521 658 C 1521 652.481 1525.481 648 1531 648 Z" style="stroke:none;fill:url(#_lgradient_0);stroke-miterlimit:10;"/></clipPath><g clip-path="url(#_clipPath_SaTSKS4yhoU3Yb9RqOZMF3aKqSEkgQP4)"><g><defs><linearGradient id="_lgradient_1" x1="0" y1="0" x2="0.9986666666666668" y2="0.8000000000000002"><stop offset="0%" style="stop-color:#E9C588"/><stop offset="100%" style="stop-color:#D7B67E"/></linearGradient></defs><path d="M 1544.714 707 L 1577.286 707 C 1580.124 707 1582.429 709.304 1582.429 712.143 L 1582.429 715.571 L 1539.571 715.571 L 1539.571 712.143 C 1539.571 709.304 1541.876 707 1544.714 707 Z" style="stroke:none;fill:url(#_lgradient_1);stroke-miterlimit:10;"/><defs><linearGradient id="_lgradient_2" x1="0.1371428571428572" y1="-0.245" x2="0.86" y2="1.2499999999999996"><stop offset="0%" style="stop-color:#A46248"/><stop offset="100%" style="stop-color:#40261C"/></linearGradient></defs><path d="M 1537.857 713.857 L 1584.143 713.857 C 1587.927 713.857 1591 716.93 1591 720.714 L 1591 746.429 C 1591 747.375 1590.232 748.143 1589.286 748.143 L 1532.714 748.143 C 1531.768 748.143 1531 747.375 1531 746.429 L 1531 720.714 C 1531 716.93 1534.073 713.857 1537.857 713.857 Z" style="stroke:none;fill:url(#_lgradient_2);stroke-miterlimit:10;"/><rect x="1556.714" y="719" width="8.571" height="6" transform="matrix(1,0,0,1,0,0)" fill="rgb(49,49,49)" fill-opacity="0.47"/><path d=" M 1558.429 727.571 L 1563.571 727.571 C 1565.464 727.571 1567 726.035 1567 724.143 L 1567 722.429 L 1567 720.714 C 1567 719.768 1566.232 719 1565.286 719 L 1565.286 712.143 C 1565.286 711.67 1564.902 711.286 1564.429 711.286 L 1557.571 711.286 C 1557.098 711.286 1556.714 711.67 1556.714 712.143 L 1556.714 719 C 1555.768 719 1555 719.768 1555 720.714 L 1555 722.429 L 1555 722.429 L 1555 724.143 C 1555 726.035 1556.536 727.571 1558.429 727.571 L 1558.429 727.571 Z  M 1558.429 724.143 L 1563.571 724.143 L 1563.571 722.429 L 1561.857 722.429 L 1561.857 719 L 1560.143 719 L 1560.143 722.429 L 1558.429 722.429 L 1558.429 724.143 Z " fill-rule="evenodd" fill="rgb(153,153,153)"/></g><defs><filter id="nhc0runowr3WA9jeKL41zTDxqrmJyyyH" x="-200%" y="-200%" width="400%" height="400%" filterUnits="objectBoundingBox" color-interpolation-filters="sRGB"><feOffset xmlns="http://www.w3.org/2000/svg" in="SourceGraphic" dx="0" dy="0"/><feGaussianBlur xmlns="http://www.w3.org/2000/svg" stdDeviation="2.146804531419514" result="pf_100_offsetBlur"/><feComposite xmlns="http://www.w3.org/2000/svg" in="SourceGraphic" in2="pf_100_offsetBlur" result="pf_100_inverse" operator="out"/><feFlood xmlns="http://www.w3.org/2000/svg" flood-color="#000000" flood-opacity="1" result="pf_100_color"/><feComposite xmlns="http://www.w3.org/2000/svg" in="pf_100_color" in2="pf_100_inverse" operator="in" result="pf_100_shadow"/><feComposite xmlns="http://www.w3.org/2000/svg" in="pf_100_shadow" in2="SourceGraphic" operator="over"/></filter></defs><g filter="url(#nhc0runowr3WA9jeKL41zTDxqrmJyyyH)"><path d=" M 1539.571 713.857 L 1539.571 712.143 C 1539.571 709.304 1541.876 707 1544.714 707 L 1577.286 707 C 1580.124 707 1582.429 709.304 1582.429 712.143 L 1582.429 713.857 L 1584.143 713.857 C 1587.927 713.857 1591 716.93 1591 720.714 L 1591 746.429 C 1591 747.375 1590.232 748.143 1589.286 748.143 L 1532.714 748.143 C 1531.768 748.143 1531 747.375 1531 746.429 L 1531 720.714 C 1531 716.93 1534.073 713.857 1537.857 713.857 L 1539.571 713.857 Z " fill="rgb(200,137,137)" fill-opacity="0.5"/></g></g><defs><filter id="j8GOZ73e5J9QjExb69I0ROuYzmbQJFXg" x="-200%" y="-200%" width="400%" height="400%" filterUnits="objectBoundingBox" color-interpolation-filters="sRGB"><feOffset xmlns="http://www.w3.org/2000/svg" in="SourceGraphic" dx="0" dy="0"/><feGaussianBlur xmlns="http://www.w3.org/2000/svg" stdDeviation="2.146804531419514" result="pf_100_offsetBlur"/><feComposite xmlns="http://www.w3.org/2000/svg" in="SourceGraphic" in2="pf_100_offsetBlur" result="pf_100_inverse" operator="out"/><feFlood xmlns="http://www.w3.org/2000/svg" flood-color="#000000" flood-opacity="0.5" result="pf_100_color"/><feComposite xmlns="http://www.w3.org/2000/svg" in="pf_100_color" in2="pf_100_inverse" operator="in" result="pf_100_shadow"/><feComposite xmlns="http://www.w3.org/2000/svg" in="pf_100_shadow" in2="SourceGraphic" operator="over"/></filter></defs><g filter="url(#j8GOZ73e5J9QjExb69I0ROuYzmbQJFXg)"><path d=" M 1556 690.571 L 1539.571 690.571 L 1537.857 690.571 C 1534.073 690.571 1531 693.644 1531 697.429 L 1531 699.286 C 1531 700.232 1531.768 701 1532.714 701 L 1589.286 701 C 1590.232 701 1591 700.232 1591 699.286 L 1591 697.429 C 1591 693.644 1587.927 690.571 1584.143 690.571 L 1582.429 690.571 L 1566 690.571 L 1566 661.715 C 1566 659.113 1563.887 657 1561.285 657 L 1560.715 657 C 1558.113 657 1556 659.113 1556 661.715 L 1556 690.571 Z " fill-rule="evenodd" fill="rgb(83,83,83)"/></g></g></g></svg>