<?xml version="1.0" standalone="no"?><!-- Generator: Gravit.io --><svg xmlns="http://www.w3.org/2000/svg" xmlns:xlink="http://www.w3.org/1999/xlink" style="isolation:isolate" viewBox="1200 400 100 100" width="100" height="100"><defs><clipPath id="_clipPath_KoBrDV77hYdp4Fovj3ZBRjAWkYm2HXuc"><rect x="1200" y="400" width="100" height="100"/></clipPath></defs><g clip-path="url(#_clipPath_KoBrDV77hYdp4Fovj3ZBRjAWkYm2HXuc)"><clipPath id="_clipPath_aN47pCmQEGnWAxLzMsxgVAEYP2kDOeE6"><rect x="1200" y="400" width="100" height="100" transform="matrix(1,0,0,1,0,0)" fill="rgb(255,255,255)"/></clipPath><g clip-path="url(#_clipPath_aN47pCmQEGnWAxLzMsxgVAEYP2kDOeE6)"><defs><linearGradient id="_lgradient_2" x1="0" y1="0" x2="1.0000000000000002" y2="1"><stop offset="0%" style="stop-color:#969696"/><stop offset="100%" style="stop-color:#606060"/></linearGradient></defs><path d="M 1220 410 L 1280 410 C 1285.519 410 1290 414.481 1290 420 L 1290 480 C 1290 485.519 1285.519 490 1280 490 L 1220 490 C 1214.481 490 1210 485.519 1210 480 L 1210 420 C 1210 414.481 1214.481 410 1220 410 Z" style="stroke:none;fill:url(#_lgradient_2);stroke-miterlimit:10;"/><defs><filter id="ZPIjFnncL9S5DvotBJs5wSCilSH0YFvk" x="-200%" y="-200%" width="400%" height="400%" filterUnits="objectBoundingBox" color-interpolation-filters="sRGB"><feOffset xmlns="http://www.w3.org/2000/svg" in="SourceGraphic" dx="0" dy="0"/><feGaussianBlur xmlns="http://www.w3.org/2000/svg" stdDeviation="2.146804531419514" result="pf_100_offsetBlur"/><feComposite xmlns="http://www.w3.org/2000/svg" in="SourceGraphic" in2="pf_100_offsetBlur" result="pf_100_inverse" operator="out"/><feFlood xmlns="http://www.w3.org/2000/svg" flood-color="#000000" flood-opacity="0.5" result="pf_100_color"/><feComposite xmlns="http://www.w3.org/2000/svg" in="pf_100_color" in2="pf_100_inverse" operator="in" result="pf_100_shadow"/><feComposite xmlns="http://www.w3.org/2000/svg" in="pf_100_shadow" in2="SourceGraphic" operator="over"/></filter></defs><g filter="url(#ZPIjFnncL9S5DvotBJs5wSCilSH0YFvk)"><linearGradient id="_lgradient_3" x1="0.053575601674959145" y1="-0.05216075412967691" x2="0.8640932245986139" y2="1.020032525202571" gradientTransform="matrix(41.011,0,0,57.396,1229.495,421.302)" gradientUnits="userSpaceOnUse"><stop offset="0%" stop-opacity="1" style="stop-color:rgb(250,154,60)"/><stop offset="100%" stop-opacity="1" style="stop-color:rgb(193,31,46)"/></linearGradient><path d=" M 1249.959 421.302 Q 1249.598 428.593 1262.377 442.813 C 1275.157 457.034 1269.64 465.267 1267.256 469.425 C 1264.872 473.583 1258.441 477.741 1255.503 478.295 C 1252.564 478.85 1232.273 481.539 1229.556 459.889 C 1228.711 452.501 1236.772 440.705 1239.979 437.713 C 1236.755 447.795 1238.162 452.824 1244.193 452.793 C 1250.075 453.038 1250.964 448.014 1247.741 437.713 C 1247.05 433.736 1246.83 430.486 1247.076 427.955 C 1247.436 425.458 1248.399 423.243 1249.959 421.302 Z " fill="url(#_lgradient_3)"/></g></g></g></svg>