<?xml version="1.0" standalone="no"?><!-- Generator: Gravit.io --><svg xmlns="http://www.w3.org/2000/svg" xmlns:xlink="http://www.w3.org/1999/xlink" style="isolation:isolate" viewBox="900 500 100 100" width="100" height="100"><defs><clipPath id="_clipPath_mVjHpfgG9kARQ0gqC9YiJTFsXJOT55yQ"><rect x="900" y="500" width="100" height="100"/></clipPath></defs><g clip-path="url(#_clipPath_mVjHpfgG9kARQ0gqC9YiJTFsXJOT55yQ)"><rect x="900" y="500" width="100" height="100" style="fill:rgb(187,187,187)" fill-opacity="0"/><clipPath id="_clipPath_m4BYqw5FiGxLcWMG6wdQMDOMrWFon634"><rect x="900" y="500" width="100" height="100" transform="matrix(1,0,0,1,0,0)" fill="rgb(255,255,255)"/></clipPath><g clip-path="url(#_clipPath_m4BYqw5FiGxLcWMG6wdQMDOMrWFon634)"><defs><linearGradient id="_lgradient_9" x1="0" y1="0" x2="1.0000000000000002" y2="1"><stop offset="0%" style="stop-color:#54676A"/><stop offset="100%" style="stop-color:#2B3B3E"/></linearGradient></defs><path d="M 920 510 L 980 510 C 985.519 510 990 514.481 990 520 L 990 580 C 990 585.519 985.519 590 980 590 L 920 590 C 914.481 590 910 585.519 910 580 L 910 520 C 910 514.481 914.481 510 920 510 Z" style="stroke:none;fill:url(#_lgradient_9);stroke-miterlimit:10;"/><g><defs><filter id="dHsHhz5lUBcaGCs0zwEmKUQ965zSgYgN" x="-200%" y="-200%" width="400%" height="400%" filterUnits="objectBoundingBox" color-interpolation-filters="sRGB"><feOffset xmlns="http://www.w3.org/2000/svg" in="SourceGraphic" dx="0" dy="0"/><feGaussianBlur xmlns="http://www.w3.org/2000/svg" stdDeviation="2.146804531419514" result="pf_100_offsetBlur"/><feComposite xmlns="http://www.w3.org/2000/svg" in="SourceGraphic" in2="pf_100_offsetBlur" result="pf_100_inverse" operator="out"/><feFlood xmlns="http://www.w3.org/2000/svg" flood-color="#000000" flood-opacity="0.5" result="pf_100_color"/><feComposite xmlns="http://www.w3.org/2000/svg" in="pf_100_color" in2="pf_100_inverse" operator="in" result="pf_100_shadow"/><feComposite xmlns="http://www.w3.org/2000/svg" in="pf_100_shadow" in2="SourceGraphic" operator="over"/></filter></defs><g filter="url(#dHsHhz5lUBcaGCs0zwEmKUQ965zSgYgN)"><path d=" M 950.014 552.003 L 951.255 552.846 C 952.624 553.777 954.491 553.421 955.422 552.052 L 960.483 544.61 C 961.414 543.241 962.693 540.891 963.338 539.366 L 965.964 533.15 C 966.608 531.625 967.595 530.702 968.165 531.09 L 968.165 531.09 C 968.736 531.477 969.514 531.329 969.902 530.759 L 969.902 530.759 C 970.29 530.188 969.493 528.969 968.124 528.038 L 966.884 527.195 C 965.514 526.264 964.088 525.971 963.7 526.541 L 963.7 526.541 C 963.312 527.112 963.46 527.89 964.031 528.278 L 964.031 528.278 C 964.601 528.666 964.105 529.923 962.924 531.083 L 958.109 535.81 C 956.927 536.97 955.212 539.023 954.281 540.392 L 949.22 547.835 C 948.289 549.204 948.645 551.071 950.014 552.003 Z " fill="rgb(223,223,223)"/></g><defs><filter id="bg9bEjN8MyLxq0MHni7SFcARbjlVI86N" x="-200%" y="-200%" width="400%" height="400%" filterUnits="objectBoundingBox" color-interpolation-filters="sRGB"><feOffset xmlns="http://www.w3.org/2000/svg" in="SourceGraphic" dx="0" dy="0"/><feGaussianBlur xmlns="http://www.w3.org/2000/svg" stdDeviation="2.146804531419514" result="pf_100_offsetBlur"/><feComposite xmlns="http://www.w3.org/2000/svg" in="SourceGraphic" in2="pf_100_offsetBlur" result="pf_100_inverse" operator="out"/><feFlood xmlns="http://www.w3.org/2000/svg" flood-color="#000000" flood-opacity="0.5" result="pf_100_color"/><feComposite xmlns="http://www.w3.org/2000/svg" in="pf_100_color" in2="pf_100_inverse" operator="in" result="pf_100_shadow"/><feComposite xmlns="http://www.w3.org/2000/svg" in="pf_100_shadow" in2="SourceGraphic" operator="over"/></filter></defs><g filter="url(#bg9bEjN8MyLxq0MHni7SFcARbjlVI86N)"><clipPath id="_clipPath_eNNwjO9xubO9ThBoW5t0o0Q6gq72Zubu"><rect x="915" y="543.75" width="70" height="30" transform="matrix(1,0,0,1,0,0)" fill="rgb(255,255,255)"/></clipPath><g clip-path="url(#_clipPath_eNNwjO9xubO9ThBoW5t0o0Q6gq72Zubu)"><circle vector-effect="non-scaling-stroke" cx="950" cy="548.75" r="25" fill="rgb(170,170,170)"/></g></g></g></g></g></svg>