<?xml version="1.0" standalone="no"?><!-- Generator: Gravit.io --><svg xmlns="http://www.w3.org/2000/svg" xmlns:xlink="http://www.w3.org/1999/xlink" style="isolation:isolate" viewBox="900 500 100 100" width="100" height="100"><defs><clipPath id="_clipPath_HjlJ5JHCUCn4lGl8E99LpDLpzFvwX6fe"><rect x="900" y="500" width="100" height="100"/></clipPath></defs><g clip-path="url(#_clipPath_HjlJ5JHCUCn4lGl8E99LpDLpzFvwX6fe)"><clipPath id="_clipPath_mo6E6UplDOaoyBsGafK0RvFAM8abcjgo"><rect x="900" y="500" width="100" height="100" transform="matrix(1,0,0,1,0,0)" fill="rgb(255,255,255)"/></clipPath><g clip-path="url(#_clipPath_mo6E6UplDOaoyBsGafK0RvFAM8abcjgo)"><defs><linearGradient id="_lgradient_0" x1="0" y1="0" x2="1.0000000000000002" y2="1"><stop offset="0%" style="stop-color:#EFC68B"/><stop offset="100%" style="stop-color:#B5834F"/></linearGradient></defs><path d="M 920 510 L 980 510 C 985.519 510 990 514.481 990 520 L 990 580 C 990 585.519 985.519 590 980 590 L 920 590 C 914.481 590 910 585.519 910 580 L 910 520 C 910 514.481 914.481 510 920 510 Z" style="stroke:none;fill:url(#_lgradient_0);stroke-miterlimit:10;"/><defs><filter id="aOkasyzuiQ0CrA3H2SAnLUwDd2WSICV0" x="-200%" y="-200%" width="400%" height="400%" filterUnits="objectBoundingBox" color-interpolation-filters="sRGB"><feOffset xmlns="http://www.w3.org/2000/svg" in="SourceGraphic" dx="0" dy="0"/><feGaussianBlur xmlns="http://www.w3.org/2000/svg" stdDeviation="2.146804531419514" result="pf_100_offsetBlur"/><feComposite xmlns="http://www.w3.org/2000/svg" in="SourceGraphic" in2="pf_100_offsetBlur" result="pf_100_inverse" operator="out"/><feFlood xmlns="http://www.w3.org/2000/svg" flood-color="#000000" flood-opacity="0.5" result="pf_100_color"/><feComposite xmlns="http://www.w3.org/2000/svg" in="pf_100_color" in2="pf_100_inverse" operator="in" result="pf_100_shadow"/><feComposite xmlns="http://www.w3.org/2000/svg" in="pf_100_shadow" in2="SourceGraphic" operator="over"/></filter></defs><g filter="url(#aOkasyzuiQ0CrA3H2SAnLUwDd2WSICV0)"><linearGradient id="_lgradient_1" x1="-0.14773547846011678" y1="-0.12461506431559852" x2="1.1518611821445828" y2="1.1577072531535093" gradientTransform="matrix(60.596,0,0,60.437,919.702,519.781)" gradientUnits="userSpaceOnUse"><stop offset="0%" stop-opacity="1" style="stop-color:rgb(100,100,100)"/><stop offset="2.1739130434782608%" stop-opacity="1" style="stop-color:rgb(227,227,227)"/><stop offset="100%" stop-opacity="1" style="stop-color:rgb(102,102,102)"/></linearGradient><path d=" M 968.494 574.402 L 960.476 572.324 L 957.063 579.872 L 950.583 574.711 L 944.395 580.219 L 940.574 572.869 L 932.681 575.383 L 932.18 567.114 L 923.947 566.201 L 926.852 558.443 L 919.702 554.26 L 925.512 548.355 L 920.681 541.625 L 928.39 538.594 L 926.715 530.481 L 934.99 530.847 L 936.76 522.755 L 944.171 526.455 L 949.079 519.781 L 954.344 526.176 L 961.542 522.076 L 963.751 530.06 L 971.994 529.241 L 970.765 537.433 L 978.629 540.039 L 974.174 547.023 L 980.298 552.601 L 973.388 557.169 L 976.713 564.756 L 968.542 566.119 L 968.494 574.402 Z " fill="url(#_lgradient_1)"/></g></g></g></svg>