<?xml version="1.0" standalone="no"?><!-- Generator: Gravit.io --><svg xmlns="http://www.w3.org/2000/svg" xmlns:xlink="http://www.w3.org/1999/xlink" style="isolation:isolate" viewBox="886 526.5 100 100" width="100" height="100"><defs><clipPath id="_clipPath_d0asb5UX4TtVfHXUj7DokzzneE4OJymP"><rect x="886" y="526.5" width="100" height="100"/></clipPath></defs><g clip-path="url(#_clipPath_d0asb5UX4TtVfHXUj7DokzzneE4OJymP)"><rect x="886" y="526.5" width="100" height="100" style="fill:rgb(45,45,45)" fill-opacity="0"/><clipPath id="_clipPath_64xObp8nOpG488r1WmZ3IxIuQfkxkH6q"><rect x="886" y="526.5" width="100" height="100" transform="matrix(1,0,0,1,0,0)" fill="rgb(255,255,255)"/></clipPath><g clip-path="url(#_clipPath_64xObp8nOpG488r1WmZ3IxIuQfkxkH6q)"><defs><linearGradient id="_lgradient_0" x1="0" y1="0" x2="1.0000000000000002" y2="1"><stop offset="0%" style="stop-color:#D77137"/><stop offset="100%" style="stop-color:#534639"/></linearGradient></defs><path d="M 906 536.5 L 966 536.5 C 971.519 536.5 976 540.981 976 546.5 L 976 606.5 C 976 612.019 971.519 616.5 966 616.5 L 906 616.5 C 900.481 616.5 896 612.019 896 606.5 L 896 546.5 C 896 540.981 900.481 536.5 906 536.5 Z" style="stroke:none;fill:url(#_lgradient_0);stroke-miterlimit:10;"/></g><g filter="url(#x9zI9RLVfZIVTIQKUU1fERMQM0Tjvh84)"><circle vector-effect="non-scaling-stroke" cx="938.4066284364974" cy="591.0795412379708" r="9.626513745990337" fill="rgb(62,43,24)"/><path d=" M 906.236 566.766 L 912.818 586.513 C 913.658 589.033 916.497 591.08 919.154 591.08 L 952.846 591.08 C 955.503 591.08 958.342 589.033 959.182 586.513 L 965.764 566.766 C 966.604 564.246 965.129 562.2 962.473 562.2 L 909.527 562.2 C 906.871 562.2 905.396 564.246 906.236 566.766 Z " fill="rgb(181,133,85)"/><circle vector-effect="non-scaling-stroke" cx="933.5933715635023" cy="591.0795412379708" r="9.626513745990337" fill="rgb(232,171,110)"/><path d="M 931.486 589.407 L 933.667 588.39 C 934.269 588.109 934.985 588.37 935.266 588.972 L 936.283 591.153 C 936.564 591.755 936.303 592.471 935.701 592.752 L 933.52 593.769 C 932.918 594.05 932.201 593.789 931.921 593.187 L 930.904 591.006 C 930.623 590.404 930.884 589.688 931.486 589.407 Z" style="stroke:none;fill:#805B37;stroke-miterlimit:10;"/></g><defs><filter id="x9zI9RLVfZIVTIQKUU1fERMQM0Tjvh84" x="-200%" y="-200%" width="400%" height="400%" filterUnits="objectBoundingBox" color-interpolation-filters="sRGB"><feOffset xmlns="http://www.w3.org/2000/svg" in="SourceGraphic" dx="0" dy="0"/><feGaussianBlur xmlns="http://www.w3.org/2000/svg" stdDeviation="4.293609062839028" result="pf_100_offsetBlur"/><feComposite xmlns="http://www.w3.org/2000/svg" in="SourceGraphic" in2="pf_100_offsetBlur" result="pf_100_inverse" operator="out"/><feFlood xmlns="http://www.w3.org/2000/svg" flood-color="#000000" flood-opacity="0.5" result="pf_100_color"/><feComposite xmlns="http://www.w3.org/2000/svg" in="pf_100_color" in2="pf_100_inverse" operator="in" result="pf_100_shadow"/><feComposite xmlns="http://www.w3.org/2000/svg" in="pf_100_shadow" in2="SourceGraphic" operator="over"/></filter></defs></g></svg>