<?xml version="1.0" standalone="no"?><!-- Generator: Gravit.io --><svg xmlns="http://www.w3.org/2000/svg" xmlns:xlink="http://www.w3.org/1999/xlink" style="isolation:isolate" viewBox="890 530 100 100" width="100" height="100"><defs><clipPath id="_clipPath_QSjGFv9H29m7vFpqYSP3PSo8dyk7ITl7"><rect x="890" y="530" width="100" height="100"/></clipPath></defs><g clip-path="url(#_clipPath_QSjGFv9H29m7vFpqYSP3PSo8dyk7ITl7)"><rect x="890" y="530" width="100" height="100" style="fill:rgb(120,72,52)" fill-opacity="0"/><clipPath id="_clipPath_9WHb9CdPPNpunyRHtzhfN95N60VSYQr0"><rect x="890" y="530" width="100" height="100" transform="matrix(1,0,0,1,0,0)" fill="rgb(255,255,255)"/></clipPath><g clip-path="url(#_clipPath_9WHb9CdPPNpunyRHtzhfN95N60VSYQr0)"><defs><linearGradient id="_lgradient_1" x1="0" y1="0" x2="1.0000000000000002" y2="1"><stop offset="0%" style="stop-color:#935840"/><stop offset="100%" style="stop-color:#4D2E21"/></linearGradient></defs><path d="M 910 540 L 970 540 C 975.519 540 980 544.481 980 550 L 980 610 C 980 615.519 975.519 620 970 620 L 910 620 C 904.481 620 900 615.519 900 610 L 900 550 C 900 544.481 904.481 540 910 540 Z" style="stroke:none;fill:url(#_lgradient_1);stroke-miterlimit:10;"/><clipPath id="_clipPath_v8NQQro3phkd4tqWxyZfwCd01ogOG67P"><path d="M 910 540 L 970 540 C 975.519 540 980 544.481 980 550 L 980 610 C 980 615.519 975.519 620 970 620 L 910 620 C 904.481 620 900 615.519 900 610 L 900 550 C 900 544.481 904.481 540 910 540 Z" style="stroke:none;fill:url(#_lgradient_1);stroke-miterlimit:10;"/></clipPath><g clip-path="url(#_clipPath_v8NQQro3phkd4tqWxyZfwCd01ogOG67P)"><defs><filter id="X05PV8VenWIgNU27FQxSZnmOLbo3Sgwv" x="-200%" y="-200%" width="400%" height="400%" filterUnits="objectBoundingBox" color-interpolation-filters="sRGB"><feOffset xmlns="http://www.w3.org/2000/svg" in="SourceGraphic" dx="0" dy="0"/><feGaussianBlur xmlns="http://www.w3.org/2000/svg" stdDeviation="2.146804531419514" result="pf_100_offsetBlur"/><feComposite xmlns="http://www.w3.org/2000/svg" in="SourceGraphic" in2="pf_100_offsetBlur" result="pf_100_inverse" operator="out"/><feFlood xmlns="http://www.w3.org/2000/svg" flood-color="#000000" flood-opacity="0.5" result="pf_100_color"/><feComposite xmlns="http://www.w3.org/2000/svg" in="pf_100_color" in2="pf_100_inverse" operator="in" result="pf_100_shadow"/><feComposite xmlns="http://www.w3.org/2000/svg" in="pf_100_shadow" in2="SourceGraphic" operator="over"/></filter></defs><g filter="url(#X05PV8VenWIgNU27FQxSZnmOLbo3Sgwv)"><circle vector-effect="non-scaling-stroke" cx="940" cy="580" r="30" fill="rgb(177,215,242)"/><clipPath id="_clipPath_GnPeHlbonFS9IMiIOL4uZECoxLMNDdNb"><circle vector-effect="non-scaling-stroke" cx="940" cy="580" r="30" fill="rgb(177,215,242)"/></clipPath><g clip-path="url(#_clipPath_GnPeHlbonFS9IMiIOL4uZECoxLMNDdNb)"><path d=" M 950 540 L 900 590 L 900 540 L 950 540 Z " fill="rgb(251,251,251)" fill-opacity="0.63"/><path d=" M 960 550 L 910 600 L 920 610 L 970 560 L 960 550 Z " fill="rgb(251,251,251)" fill-opacity="0.63"/></g></g></g></g></g></svg>