<?xml version="1.0" standalone="no"?><!-- Generator: Gravit.io --><svg xmlns="http://www.w3.org/2000/svg" xmlns:xlink="http://www.w3.org/1999/xlink" style="isolation:isolate" viewBox="860.641 484.5 159.359 150" width="159.359" height="150"><defs><clipPath id="_clipPath_V8FPGJ8OpP0ht6GuQmPZ8CKY6GLzabOj"><rect x="860.641" y="484.5" width="159.359" height="150"/></clipPath></defs><g clip-path="url(#_clipPath_V8FPGJ8OpP0ht6GuQmPZ8CKY6GLzabOj)"><path d=" M 887.189 551.956 L 887.189 551.956 C 884.273 544.34 875.469 536.601 867.542 534.685 L 867.542 534.685 C 859.614 532.769 858.327 527.051 864.67 521.924 L 864.67 521.924 C 871.013 516.797 875.652 506.033 875.024 497.901 L 875.024 497.901 C 874.397 489.77 879.437 486.779 886.273 491.227 L 886.273 491.227 C 893.109 495.675 904.78 496.761 912.32 493.651 L 912.32 493.651 C 919.859 490.541 924.261 494.411 922.144 502.287 L 922.144 502.287 C 920.026 510.163 922.599 521.599 927.887 527.808 L 927.887 527.808 C 933.175 534.018 930.855 539.4 922.71 539.82 L 922.71 539.82 C 914.565 540.239 904.484 546.221 900.213 553.168 L 900.213 553.168 C 895.941 560.116 890.105 559.573 887.189 551.956 Z " fill="rgb(164,125,74)"/><circle vector-effect="non-scaling-stroke" cx="944.9999999999999" cy="559.4999999999999" r="75" fill="rgb(230,87,87)"/><clipPath id="_clipPath_3nN4LUh5OOvdeaS1Gh3pLEtJ0hbwycvZ"><circle vector-effect="non-scaling-stroke" cx="944.9999999999999" cy="559.4999999999999" r="75" fill="rgb(230,87,87)"/></clipPath><g clip-path="url(#_clipPath_3nN4LUh5OOvdeaS1Gh3pLEtJ0hbwycvZ)"><linearGradient id="_lgradient_1" x1="0.38250000000000195" y1="0.4134375000000001" x2="0.9300000000000023" y2="0.7978125" gradientTransform="matrix(200,0,0,200,805.125,429.188)" gradientUnits="userSpaceOnUse"><stop offset="0%" stop-opacity="1" style="stop-color:rgb(253,122,122)"/><stop offset="100%" stop-opacity="1" style="stop-color:rgb(249,97,97)"/></linearGradient><circle vector-effect="non-scaling-stroke" cx="905.1249999999997" cy="529.1875" r="100" fill="url(#_lgradient_1)"/></g></g></svg>