<?xml version="1.0" standalone="no"?><!-- Generator: Gravit.io --><svg xmlns="http://www.w3.org/2000/svg" xmlns:xlink="http://www.w3.org/1999/xlink" style="isolation:isolate" viewBox="900 500 100 100" width="100" height="100"><defs><clipPath id="_clipPath_ridzOTjt38CgIzGih95TuA00Hic7swYH"><rect x="900" y="500" width="100" height="100"/></clipPath></defs><g clip-path="url(#_clipPath_ridzOTjt38CgIzGih95TuA00Hic7swYH)"><circle vector-effect="non-scaling-stroke" cx="980.5833333333331" cy="580.375" r="12.333333333333371" fill="rgb(72,78,202)"/><circle vector-effect="non-scaling-stroke" cx="949.9999999999995" cy="550.0000000000001" r="50" fill="rgb(72,78,202)"/><clipPath id="_clipPath_TptozyXQ39C9vE0jvHeqahUwVkFNlyCB"><circle vector-effect="non-scaling-stroke" cx="949.9999999999995" cy="550.0000000000001" r="50" fill="rgb(72,78,202)"/></clipPath><g clip-path="url(#_clipPath_TptozyXQ39C9vE0jvHeqahUwVkFNlyCB)"><circle vector-effect="non-scaling-stroke" cx="940.6666666666666" cy="539.1666666666665" r="50" fill="rgb(84,92,236)"/><path d=" M 917.994 557.282 L 917.994 557.282 C 914.391 549.982 904.926 543.105 896.87 541.935 L 896.87 541.935 C 888.814 540.764 887.007 535.201 892.836 529.519 L 892.836 529.519 C 898.665 523.837 902.28 512.71 900.904 504.687 L 900.904 504.687 C 899.528 496.663 904.261 493.225 911.466 497.013 L 911.466 497.013 C 918.671 500.801 930.371 500.801 937.576 497.013 L 937.576 497.013 C 944.781 493.225 949.514 496.663 948.138 504.687 L 948.138 504.687 C 946.762 512.71 950.377 523.837 956.206 529.519 L 956.206 529.519 C 962.036 535.201 960.228 540.764 952.172 541.935 L 952.172 541.935 C 944.116 543.105 934.651 549.982 931.049 557.282 L 931.049 557.282 C 927.446 564.582 921.596 564.582 917.994 557.282 Z " fill="rgb(72,78,202)"/><path d=" M 917.244 541.633 L 917.244 541.633 C 914.991 537.067 909.07 532.765 904.031 532.033 L 904.031 532.033 C 898.992 531.301 897.861 527.82 901.507 524.266 L 901.507 524.266 C 905.154 520.712 907.415 513.751 906.554 508.733 L 906.554 508.733 C 905.693 503.714 908.654 501.563 913.161 503.933 L 913.161 503.933 C 917.668 506.302 924.987 506.302 929.494 503.933 L 929.494 503.933 C 934.001 501.563 936.961 503.714 936.101 508.733 L 936.101 508.733 C 935.24 513.751 937.501 520.712 941.148 524.266 L 941.148 524.266 C 944.794 527.82 943.663 531.301 938.624 532.033 L 938.624 532.033 C 933.585 532.765 927.664 537.067 925.411 541.633 L 925.411 541.633 C 923.157 546.199 919.498 546.199 917.244 541.633 Z " fill="rgb(0,0,0)" fill-opacity="0.59"/></g></g></svg>