<?xml version="1.0" standalone="no"?><!-- Generator: Gravit.io --><svg xmlns="http://www.w3.org/2000/svg" xmlns:xlink="http://www.w3.org/1999/xlink" style="isolation:isolate" viewBox="947.323 442.959 67.118 59.745" width="67.118" height="59.745"><defs><clipPath id="_clipPath_LEEk8v1YJ0lCcREZ5eKDEokLvRsF3He6"><rect x="947.323" y="442.959" width="67.118" height="59.745"/></clipPath></defs><g clip-path="url(#_clipPath_LEEk8v1YJ0lCcREZ5eKDEokLvRsF3He6)"><g><linearGradient id="_lgradient_0" x1="0.07174352572159398" y1="-0.07153260382819054" x2="3.5636353399128033" y2="4.231157796721729" gradientTransform="matrix(49.477,-7.215,7.243,49.667,946.654,453.869)" gradientUnits="userSpaceOnUse"><stop offset="0%" stop-opacity="1" style="stop-color:rgb(255,242,218)"/><stop offset="100%" stop-opacity="1" style="stop-color:rgb(0,0,0)"/></linearGradient><path d=" M 951.602 453.148 L 996.131 446.654 L 985 499 L 958.821 502.655 C 956.088 503.036 953.546 501.129 953.148 498.398 L 947.376 458.817 C 946.977 456.086 948.871 453.546 951.602 453.148 Z " fill="url(#_lgradient_0)"/><clipPath id="_clipPath_YjtWnSae3fH8qrXJjQL7NwctMjBpqaRn"><path d=" M 951.602 453.148 L 996.131 446.654 L 985 499 L 958.821 502.655 C 956.088 503.036 953.546 501.129 953.148 498.398 L 947.376 458.817 C 946.977 456.086 948.871 453.546 951.602 453.148 Z " fill="url(#_lgradient_0)"/></clipPath><g clip-path="url(#_clipPath_YjtWnSae3fH8qrXJjQL7NwctMjBpqaRn)"><path d=" M 985 499 L 959.399 492.043 L 1017 492.043 L 985 499 Z " fill="rgb(176,168,152)"/></g><linearGradient id="_lgradient_1" x1="-0.022866464346492407" y1="-0.07831133524457107" x2="4.877129665112253" y2="4.7799839669976985" gradientTransform="matrix(49.644,5.957,-5.957,49.644,965.356,442.399)" gradientUnits="userSpaceOnUse"><stop offset="0%" stop-opacity="1" style="stop-color:rgb(255,242,218)"/><stop offset="100%" stop-opacity="1" style="stop-color:rgb(0,0,0)"/></linearGradient><path d=" M 970.321 442.995 L 1010.036 447.76 C 1012.776 448.089 1014.733 450.581 1014.404 453.321 L 1009.638 493.036 C 1009.31 495.776 1006.818 497.733 1004.078 497.404 L 959.399 492.043 L 964.76 447.363 C 965.089 444.623 967.581 442.666 970.321 442.995 Z " fill="url(#_lgradient_1)"/></g></g></svg>