<?xml version="1.0" standalone="no"?><!-- Generator: Gravit.io --><svg xmlns="http://www.w3.org/2000/svg" xmlns:xlink="http://www.w3.org/1999/xlink" style="isolation:isolate" viewBox="2800 -761.355 595.961 656.383" width="595.961" height="656.383"><defs><clipPath id="_clipPath_MgKNnJ1NzsR5hfa99qRzMnLVhpAc2dLT"><rect x="2800" y="-761.355" width="595.961" height="656.383"/></clipPath></defs><g clip-path="url(#_clipPath_MgKNnJ1NzsR5hfa99qRzMnLVhpAc2dLT)"><path d=" M 2800 -480 L 2800 -220 C 2800 -208.962 2808.502 -197.166 2818.974 -193.675 L 3081.026 -106.325 C 3091.498 -102.834 3106.337 -106.337 3114.142 -114.142 L 3385.858 -385.858 C 3393.663 -393.663 3397.826 -408.694 3395.149 -419.403 L 3324.254 -702.986 C 3310.868 -756.529 3261.577 -776.946 3214.251 -748.55 L 2817.15 -510.29 C 2807.685 -504.611 2800 -491.038 2800 -480 Z " fill="rgb(30,30,30)"/><clipPath id="_clipPath_jZbxbnTyCVNAXnVOkLhaxHKene2tollT"><path d=" M 2800 -480 L 2800 -220 C 2800 -208.962 2808.502 -197.166 2818.974 -193.675 L 3081.026 -106.325 C 3091.498 -102.834 3106.337 -106.337 3114.142 -114.142 L 3385.858 -385.858 C 3393.663 -393.663 3397.826 -408.694 3395.149 -419.403 L 3324.254 -702.986 C 3310.868 -756.529 3261.577 -776.946 3214.251 -748.55 L 2817.15 -510.29 C 2807.685 -504.611 2800 -491.038 2800 -480 Z " fill="rgb(30,30,30)"/></clipPath><g clip-path="url(#_clipPath_jZbxbnTyCVNAXnVOkLhaxHKene2tollT)"><path d=" M 3400 -900 L 2900 -400 L 2700 0 L 2500 -700 L 3400 -900 Z " fill="rgb(255,255,255)" fill-opacity="0.17"/></g></g></svg>