<?xml version="1.0" standalone="no"?><!-- Generator: Gravit.io --><svg xmlns="http://www.w3.org/2000/svg" xmlns:xlink="http://www.w3.org/1999/xlink" style="isolation:isolate" viewBox="436 76.5 1000 1000" width="1000" height="1000"><defs><clipPath id="_clipPath_NuWzK9dQg60DIYPh2CdFo4DhVtXEkp5m"><rect x="436" y="76.5" width="1000" height="1000"/></clipPath></defs><g clip-path="url(#_clipPath_NuWzK9dQg60DIYPh2CdFo4DhVtXEkp5m)"><clipPath id="_clipPath_cUH7XnbhjfAB1WBvtJDDxl9jHKgXvbrs"><rect x="436" y="76.5" width="1000" height="1000" transform="matrix(1,0,0,1,0,0)" fill="rgb(255,255,255)"/></clipPath><g clip-path="url(#_clipPath_cUH7XnbhjfAB1WBvtJDDxl9jHKgXvbrs)"><clipPath id="_clipPath_G9BNRTu7oY3d7BxQD5Wh5MFuSLvW7pCt"><rect x="436" y="383.238" width="1000" height="693.262" transform="matrix(1,0,0,1,0,0)" fill="rgb(255,255,255)"/></clipPath><g clip-path="url(#_clipPath_G9BNRTu7oY3d7BxQD5Wh5MFuSLvW7pCt)"><g><g><path d=" M 1131.496 939.911 L 942.767 953.868 L 694.983 865.793 L 715.39 742.879 L 708.989 603.443 L 864.026 527.73 L 916.602 383.837 L 1075.18 458.593 L 1132.285 584.014 L 1311.349 637.967 L 1340.988 753.558 L 1131.496 939.911 Z " fill="rgb(189,146,94)"/></g><g><path d=" M 1105.904 948.58 L 916.734 953.868 L 673.249 854.524 L 699.27 732.676 L 699.27 593.093 L 857.615 524.568 L 916.734 383.238 L 1071.717 465.185 L 1123.012 593.093 L 1299.413 655.198 L 1323.721 772.029 L 1105.904 948.58 Z " fill="rgb(223,172,109)"/></g><path d=" M 1009.634 597.014 L 946.689 650.458 L 859.99 635.019 L 657.873 692.538 L 436 935.684 L 652.432 1076.5 L 1219.691 985.887 L 1436 821.48 L 1436 570.886 L 1234.1 517.442 L 1009.634 597.014 Z " fill="rgb(119,119,119)"/><clipPath id="_clipPath_N2vpw9ZzdLGiMDXBWQcqCdcBw4RiFq7T"><path d=" M 1009.634 597.014 L 946.689 650.458 L 859.99 635.019 L 657.873 692.538 L 436 935.684 L 652.432 1076.5 L 1219.691 985.887 L 1436 821.48 L 1436 570.886 L 1234.1 517.442 L 1009.634 597.014 Z " fill="rgb(255,255,255)"/></clipPath><g clip-path="url(#_clipPath_N2vpw9ZzdLGiMDXBWQcqCdcBw4RiFq7T)"><g><path d=" M 1222.223 997.252 L 1475.192 902.24 L 1660.466 684.9 L 1158.09 784.663 L 925.311 1048.321 L 1222.223 997.252 Z " fill="rgb(255,255,255)" fill-opacity="0.23"/><path d=" M 393.245 1019.817 L 574.955 884.425 L 697.283 602.952 L 284.417 325.648 L -22.432 1187.276 L 393.245 1019.817 Z " fill="rgb(255,255,255)" fill-opacity="0.23"/></g></g></g></g></g></g></svg>