<?xml version="1.0" standalone="no"?><!-- Generator: Gravit.io --><svg xmlns="http://www.w3.org/2000/svg" xmlns:xlink="http://www.w3.org/1999/xlink" style="isolation:isolate" viewBox="841.329 471.667 179.28 276.252" width="179.28" height="276.252"><defs><clipPath id="_clipPath_c3QKGFkqd4ODBb4dQBM5LwQAK33OWvFr"><rect x="841.329" y="471.667" width="179.28" height="276.252"/></clipPath></defs><g clip-path="url(#_clipPath_c3QKGFkqd4ODBb4dQBM5LwQAK33OWvFr)"><g><path d="M 950.638 522.263 L 950.638 522.263 C 959.475 526.16 963.485 536.499 959.588 545.337 L 874.843 737.478 C 870.946 746.315 860.607 750.325 851.769 746.428 L 851.769 746.428 C 842.932 742.53 838.922 732.191 842.82 723.354 L 927.564 531.212 C 931.462 522.375 941.801 518.365 950.638 522.263 Z" style="stroke:none;fill:#9ACE9B;stroke-miterlimit:10;"/><g><rect x="867.387" y="533.104" width="152.376" height="9.792" transform="matrix(0.915,0.404,-0.404,0.915,297.349,-335.023)" fill="rgb(238,229,109)"/><rect x="867.823" y="533.297" width="152.376" height="9.792" transform="matrix(0.97,0.245,-0.245,0.97,160.566,-214.816)" fill="rgb(238,229,109)"/><rect x="867.387" y="533.104" width="152.376" height="9.792" transform="matrix(0.82,0.572,-0.572,0.82,476.984,-442.852)" fill="rgb(238,229,109)"/><rect x="879.196" y="504.429" width="74.843" height="9.792" transform="matrix(0.711,0.703,-0.703,0.711,622.489,-497.198)" fill="rgb(238,229,109)"/><rect x="889.722" y="502.361" width="74.843" height="9.792" transform="matrix(0.561,0.828,-0.828,0.561,827.456,-544.868)" fill="rgb(238,229,109)"/><rect x="901.999" y="502.923" width="74.843" height="9.792" transform="matrix(0.409,0.913,-0.913,0.409,1018.724,-557.124)" fill="rgb(238,229,109)"/><rect x="923.043" y="496.254" width="53.484" height="9.792" transform="matrix(0.175,0.985,-0.985,0.175,1277.416,-521.542)" fill="rgb(238,229,109)"/><rect x="941.562" y="507.667" width="53.484" height="9.792" transform="matrix(0.845,-0.535,0.535,0.845,-123.989,597.591)" fill="rgb(238,229,109)"/><rect x="931.887" y="500.155" width="53.484" height="9.792" transform="matrix(0.203,-0.979,0.979,0.203,269.177,1340.935)" fill="rgb(238,229,109)"/><rect x="929.561" y="517.405" width="74.843" height="9.792" transform="matrix(0.95,-0.313,0.313,0.95,-114.975,329.373)" fill="rgb(238,229,109)"/><rect x="939" y="524.096" width="74.843" height="9.792" transform="matrix(0.999,-0.053,0.053,0.999,-26.452,52.047)" fill="rgb(238,229,109)"/><rect x="945.458" y="533.654" width="74.843" height="9.792" transform="matrix(-0.994,-0.105,0.105,-0.994,1903.781,1177.324)" fill="rgb(238,229,109)"/><rect x="934.959" y="502.66" width="53.484" height="9.792" transform="matrix(0.684,-0.729,0.729,0.684,-66.424,861.731)" fill="rgb(238,229,109)"/></g><g><rect x="861.408" y="546.66" width="152.376" height="9.792" transform="matrix(0.915,0.404,-0.404,0.915,302.311,-331.458)" fill="rgb(238,229,109)"/><rect x="861.844" y="546.853" width="152.376" height="9.792" transform="matrix(0.97,0.245,-0.245,0.97,163.704,-212.939)" fill="rgb(238,229,109)"/><rect x="861.408" y="546.66" width="152.376" height="9.792" transform="matrix(0.82,0.572,-0.572,0.82,483.661,-437)" fill="rgb(238,229,109)"/><rect x="873.217" y="517.986" width="74.843" height="9.792" transform="matrix(0.711,0.703,-0.703,0.711,630.29,-489.083)" fill="rgb(238,229,109)"/><rect x="883.743" y="515.918" width="74.843" height="9.792" transform="matrix(0.561,0.828,-0.828,0.561,836.054,-533.96)" fill="rgb(238,229,109)"/><rect x="896.02" y="516.479" width="74.843" height="9.792" transform="matrix(0.409,0.913,-0.913,0.409,1027.561,-543.654)" fill="rgb(238,229,109)"/><rect x="917.064" y="509.811" width="53.484" height="9.792" transform="matrix(0.175,0.985,-0.985,0.175,1285.829,-504.466)" fill="rgb(238,229,109)"/><rect x="935.583" y="521.223" width="53.484" height="9.792" transform="matrix(0.845,-0.535,0.535,0.845,-132.169,596.495)" fill="rgb(238,229,109)"/><rect x="925.907" y="513.711" width="53.484" height="9.792" transform="matrix(0.203,-0.979,0.979,0.203,251.141,1345.881)" fill="rgb(238,229,109)"/><rect x="923.582" y="530.961" width="74.843" height="9.792" transform="matrix(0.95,-0.313,0.313,0.95,-119.525,328.182)" fill="rgb(238,229,109)"/><rect x="933.021" y="537.652" width="74.843" height="9.792" transform="matrix(0.999,-0.053,0.053,0.999,-27.172,51.751)" fill="rgb(238,229,109)"/><rect x="939.479" y="547.211" width="74.843" height="9.792" transform="matrix(-0.994,-0.105,0.105,-0.994,1890.432,1203.734)" fill="rgb(238,229,109)"/><rect x="928.98" y="516.216" width="53.484" height="9.792" transform="matrix(0.684,-0.729,0.729,0.684,-78.2,861.652)" fill="rgb(238,229,109)"/></g></g></g></svg>