<?xml version="1.0" standalone="no"?><!-- Generator: Gravit.io --><svg xmlns="http://www.w3.org/2000/svg" xmlns:xlink="http://www.w3.org/1999/xlink" style="isolation:isolate" viewBox="436 76.5 1000 1000" width="1000" height="1000"><defs><clipPath id="_clipPath_PgnjpQfi6uhmFQbssLSs0usl9xteXxjr"><rect x="436" y="76.5" width="1000" height="1000"/></clipPath></defs><g clip-path="url(#_clipPath_PgnjpQfi6uhmFQbssLSs0usl9xteXxjr)"><clipPath id="_clipPath_MB4Hyx8hNZyXRDx45EC4Ap1oaN6vtVO5"><rect x="436" y="76.5" width="1000" height="1000" transform="matrix(1,0,0,1,0,0)" fill="rgb(255,255,255)"/></clipPath><g clip-path="url(#_clipPath_MB4Hyx8hNZyXRDx45EC4Ap1oaN6vtVO5)"><clipPath id="_clipPath_v2BnaBvwzm5vVX4H5W8yrMHBQoiFv9a7"><rect x="436" y="498.439" width="1000" height="578.061" transform="matrix(1,0,0,1,0,0)" fill="rgb(255,255,255)"/></clipPath><g clip-path="url(#_clipPath_v2BnaBvwzm5vVX4H5W8yrMHBQoiFv9a7)"><g><g><path d=" M 1082.911 934.576 L 939.227 938.594 L 754.29 863.138 L 691.344 770.588 L 808.922 519.817 L 923.398 519.817 L 1054.765 498.439 L 1211.534 576.824 L 1095.904 664.569 L 1229.888 711.741 L 1248.352 800.479 L 1082.911 934.576 Z " fill="rgb(255,229,114)"/></g><path d=" M 1009.634 597.014 L 946.689 650.458 L 859.99 635.019 L 657.873 692.538 L 436 935.684 L 652.432 1076.5 L 1219.691 985.887 L 1436 821.48 L 1436 570.886 L 1234.1 517.442 L 1009.634 597.014 Z " fill="rgb(119,119,119)"/><clipPath id="_clipPath_3VgER1KrStoPTcogkwYjEQ4yOqQJK6lW"><path d=" M 1009.634 597.014 L 946.689 650.458 L 859.99 635.019 L 657.873 692.538 L 436 935.684 L 652.432 1076.5 L 1219.691 985.887 L 1436 821.48 L 1436 570.886 L 1234.1 517.442 L 1009.634 597.014 Z " fill="rgb(255,255,255)"/></clipPath><g clip-path="url(#_clipPath_3VgER1KrStoPTcogkwYjEQ4yOqQJK6lW)"><g><path d=" M 1222.223 997.252 L 1475.192 902.24 L 1660.466 684.9 L 1158.09 784.663 L 925.311 1048.321 L 1222.223 997.252 Z " fill="rgb(255,255,255)" fill-opacity="0.23"/><path d=" M 393.245 1019.817 L 574.955 884.425 L 697.283 602.952 L 284.417 325.648 L -22.432 1187.276 L 393.245 1019.817 Z " fill="rgb(255,255,255)" fill-opacity="0.23"/></g></g></g></g></g></g></svg>