<?xml version="1.0" standalone="no"?><!-- Generator: Gravit.io --><svg xmlns="http://www.w3.org/2000/svg" xmlns:xlink="http://www.w3.org/1999/xlink" style="isolation:isolate" viewBox="926.256 568.859 22.635 22.635" width="22.635" height="22.635"><defs><clipPath id="_clipPath_dCyp73lchEHgtaldmt9r7TSKcCFqmjl1"><rect x="926.256" y="568.859" width="22.635" height="22.635"/></clipPath></defs><g clip-path="url(#_clipPath_dCyp73lchEHgtaldmt9r7TSKcCFqmjl1)"><g><polygon points="947.473,570.277,947.024,571.95,945.8,570.726" fill="rgb(115,88,58)"/><path d=" M 944.291 573.459 C 943.51 572.679 943.51 571.411 944.291 570.631 C 945.071 569.85 946.339 569.85 947.119 570.631 C 947.9 571.411 947.9 572.679 947.119 573.459 C 946.339 574.24 945.071 574.24 944.291 573.459 Z " fill="rgb(52,174,38)"/><path d=" M 928.027 589.723 C 927.247 588.942 927.247 587.675 928.027 586.894 C 928.808 586.114 930.075 586.114 930.856 586.894 C 931.636 587.675 931.636 588.942 930.856 589.723 C 930.075 590.503 928.808 590.503 928.027 589.723 Z " fill="rgb(52,174,38)"/><path d=" M 928.734 589.016 C 924.832 585.113 925.624 577.984 930.502 573.106 C 935.38 568.227 942.509 567.435 946.412 571.338 C 950.315 575.241 949.523 582.37 944.644 587.248 C 939.766 592.126 932.637 592.918 928.734 589.016 Z " fill="rgb(52,174,38)"/><clipPath id="_clipPath_Iz5rLGjPUY93DJxD7umMGYmtrGt2WPnQ"><path d=" M 928.734 589.016 C 924.832 585.113 925.624 577.984 930.502 573.106 C 935.38 568.227 942.509 567.435 946.412 571.338 C 950.315 575.241 949.523 582.37 944.644 587.248 C 939.766 592.126 932.637 592.918 928.734 589.016 Z " fill="rgb(52,174,38)"/></clipPath><g clip-path="url(#_clipPath_Iz5rLGjPUY93DJxD7umMGYmtrGt2WPnQ)"><path d=" M 923.431 585.834 C 917.967 580.37 917.967 571.498 923.431 566.035 C 928.895 560.571 937.766 560.571 943.23 566.035 C 948.694 571.498 948.694 580.37 943.23 585.834 C 937.766 591.297 928.895 591.297 923.431 585.834 Z " fill="rgb(235,235,235)" fill-opacity="0.19"/></g></g></g></svg>