<?xml version="1.0" standalone="no"?><!-- Generator: Gravit.io --><svg xmlns="http://www.w3.org/2000/svg" xmlns:xlink="http://www.w3.org/1999/xlink" style="isolation:isolate" viewBox="-281 385 410 201.5" width="410" height="201.5"><defs><clipPath id="_clipPath_F0W51qbnk616ctNjpfoEZkX4ezdFobEO"><rect x="-281" y="385" width="410" height="201.5"/></clipPath></defs><g clip-path="url(#_clipPath_F0W51qbnk616ctNjpfoEZkX4ezdFobEO)"><rect x="-281" y="385" width="410" height="201.5" style="fill:rgb(208,208,208)" fill-opacity="0"/><g><g><rect x="118" y="385" width="11" height="200" transform="matrix(1,0,0,1,0,0)" fill="rgb(153,129,89)"/><path d=" M -35.333 585 L -25.3 585 L 10.3 573 L 36 585 L 36 563 L -35.333 563 L -35.333 585 Z " fill="rgb(153,129,89)"/><path d=" M -194.25 385 L -184.2 385 L -147.5 398 L -124.5 385 L -146 416 L -194.25 418 L -194.25 385 Z " fill="rgb(153,129,89)"/><linearGradient id="_lgradient_1" x1="-5.551115123125783e-16" y1="0" x2="0.9999999999999994" y2="1.0000000000000002" gradientTransform="matrix(400,0,0,200,-281,385)" gradientUnits="userSpaceOnUse"><stop offset="0%" stop-opacity="1" style="stop-color:rgb(233,197,136)"/><stop offset="100%" stop-opacity="1" style="stop-color:rgb(185,157,108)"/></linearGradient><path d=" M -281 385 L -194.25 385 L -157.5 398 L -124.5 385 L 119 385 L 119 585 L 36 585 L 0.333 573 L -35.333 585 L -281 585 L -281 385 Z " fill="url(#_lgradient_1)"/></g><path d=" M -235 473 L -99 431 L -33.293 441 L 53 428 L -27 448 L -95 440 L -235 473 Z " fill="rgb(153,129,89)"/><path d=" M 53 517 L -121.919 549.672 L -209 517 L -107 540.324 L 53 517 Z " fill="rgb(153,129,89)"/><path d=" M -183 493 L -68 478 L -28 484 L 45 465 L -25 493 L -68 484 L -183 493 Z " fill="rgb(153,129,89)"/></g></g></svg>