<?xml version="1.0" standalone="no"?><!-- Generator: Gravit.io --><svg xmlns="http://www.w3.org/2000/svg" xmlns:xlink="http://www.w3.org/1999/xlink" style="isolation:isolate" viewBox="847.957 437.381 184.092 300.439" width="184.092" height="300.439"><defs><clipPath id="_clipPath_0ct0wUMPlR4fVCXxqklpD8mmAwQ8CWqu"><rect x="847.957" y="437.381" width="184.092" height="300.439"/></clipPath></defs><g clip-path="url(#_clipPath_0ct0wUMPlR4fVCXxqklpD8mmAwQ8CWqu)"><g><path d="M 957.266 512.164 L 957.266 512.164 C 966.104 516.062 970.114 526.401 966.216 535.238 L 881.472 727.38 C 877.574 736.217 867.235 740.227 858.398 736.329 L 858.398 736.329 C 849.561 732.432 845.55 722.093 849.448 713.255 L 934.193 521.114 C 938.09 512.277 948.429 508.267 957.266 512.164 Z" style="stroke:none;fill:#9ACE9B;stroke-miterlimit:10;"/></g><g><path d=" M 938.088 462.72 C 946.44 443.783 968.596 435.19 987.532 443.542 C 1006.469 451.894 1015.062 474.049 1006.71 492.986 L 1006.71 492.986 C 1025.647 501.338 1034.24 523.493 1025.888 542.43 C 1017.536 561.367 995.381 569.96 976.444 561.608 L 976.444 561.608 L 976.444 561.608 C 968.092 580.545 945.937 589.138 927.001 580.786 C 908.064 572.434 899.47 550.279 907.822 531.342 L 907.822 531.342 L 907.822 531.342 C 888.886 522.99 880.292 500.835 888.644 481.898 C 896.997 462.962 919.152 454.368 938.088 462.72 L 938.088 462.72 Z " fill-rule="evenodd" fill="rgb(191,63,63)"/><path d=" M 915.936 478.933 C 913.701 458.358 928.591 439.838 949.166 437.603 C 969.742 435.368 988.262 450.258 990.497 470.834 L 990.497 470.834 C 1011.073 468.598 1029.593 483.488 1031.828 504.064 C 1034.063 524.64 1019.173 543.16 998.597 545.395 L 998.597 545.395 L 998.597 545.395 C 1000.832 565.971 985.942 584.49 965.366 586.726 C 944.791 588.961 926.271 574.071 924.036 553.495 L 924.036 553.495 L 924.036 553.495 C 903.46 555.73 884.94 540.84 882.705 520.264 C 880.47 499.688 895.36 481.169 915.936 478.933 L 915.936 478.933 Z " fill-rule="evenodd" fill="rgb(255,92,92)"/><path d=" M 915.34 505.674 C 905.562 492.313 908.47 473.526 921.831 463.748 C 935.192 453.969 953.978 456.877 963.757 470.238 C 973.536 483.599 970.627 502.385 957.266 512.164 C 943.906 521.943 925.119 519.035 915.34 505.674 Z " fill="rgb(234,77,77)"/><path d=" M 957.266 512.164 C 947.488 498.803 950.396 480.017 963.757 470.238 C 977.118 460.459 995.904 463.368 1005.683 476.729 C 1015.462 490.09 1012.553 508.876 999.192 518.655 C 985.832 528.433 967.045 525.525 957.266 512.164 Z " fill="rgb(223,65,65)"/><path d=" M 950.776 554.09 C 940.997 540.729 943.906 521.943 957.266 512.164 C 970.627 502.385 989.414 505.294 999.192 518.655 C 1008.971 532.016 1006.063 550.802 992.702 560.581 C 979.341 570.359 960.555 567.451 950.776 554.09 Z " fill="rgb(213,54,54)"/><path d=" M 908.85 547.6 C 899.071 534.239 901.979 515.452 915.34 505.674 C 928.701 495.895 947.488 498.803 957.266 512.164 C 967.045 525.525 964.137 544.312 950.776 554.09 C 937.415 563.869 918.629 560.961 908.85 547.6 Z " fill="rgb(236,76,76)"/></g></g></svg>