<?xml version="1.0" encoding="UTF-8" standalone="no"?><!-- Generator: Gravit.io --><svg xmlns="http://www.w3.org/2000/svg" xmlns:xlink="http://www.w3.org/1999/xlink" style="isolation:isolate" viewBox="529 248 158 232" width="158pt" height="232pt"><defs><clipPath id="_clipPath_IbPhxEc7JKSJUvugN3GhKd1TBONPCLvL"><rect x="529" y="248" width="158" height="232"/></clipPath></defs><g clip-path="url(#_clipPath_IbPhxEc7JKSJUvugN3GhKd1TBONPCLvL)"><rect x="529" y="248" width="158" height="232" style="fill:rgb(191,191,191)" fill-opacity="0"/><path d=" M 543 456 L 572 480 L 668 466 L 687 439 L 675 333 L 635 279 L 579 248 L 563 333 L 529 384 L 543 456 Z " fill="rgb(119,119,119)"/><clipPath id="_clipPath_YFEu9O97hvyiyBDNmcSCHDQmuMJqJBa6"><path d=" M 543 456 L 572 480 L 668 466 L 687 439 L 675 333 L 635 279 L 579 248 L 563 333 L 529 384 L 543 456 Z " fill="rgb(119,119,119)"/></clipPath><g clip-path="url(#_clipPath_YFEu9O97hvyiyBDNmcSCHDQmuMJqJBa6)"><path d=" M 563 333 L 593 289 L 693 343 L 606 127 L 476 289 L 563 333 Z " fill="rgb(255,255,255)" fill-opacity="0.23"/></g></g></svg>