<?xml version="1.0" standalone="no"?><!-- Generator: Gravit.io --><svg xmlns="http://www.w3.org/2000/svg" xmlns:xlink="http://www.w3.org/1999/xlink" style="isolation:isolate" viewBox="348.5 194 815 815" width="815" height="815"><defs><clipPath id="_clipPath_4SXKEruMCahn47FWHH3AB78ILqowb0ZR"><rect x="348.5" y="194" width="815" height="815"/></clipPath></defs><g clip-path="url(#_clipPath_4SXKEruMCahn47FWHH3AB78ILqowb0ZR)"><clipPath id="_clipPath_mz0xisUEEV2jQbofFqUhc8zW4ffgSDFu"><rect x="348.5" y="194" width="815" height="815" transform="matrix(1,0,0,1,0,0)" fill="rgb(255,255,255)"/></clipPath><g clip-path="url(#_clipPath_mz0xisUEEV2jQbofFqUhc8zW4ffgSDFu)"><g><path d=" M 839.299 612.195 L 756 612.195 L 672.701 612.195 C 589.914 612.195 556.307 553.987 597.701 482.291 L 639.351 410.152 L 681 338.013 C 722.394 266.317 789.606 266.317 831 338.013 L 872.649 410.152 L 914.299 482.291 C 955.693 553.987 922.086 612.195 839.299 612.195 Z " fill="rgb(247,143,102)"/><defs><linearGradient id="_lgradient_0" x1="0.1371428571428572" y1="-0.245" x2="0.86" y2="1.2499999999999996"><stop offset="0%" style="stop-color:#A46248"/><stop offset="100%" style="stop-color:#40261C"/></linearGradient></defs><path d="M 639.529 426.489 L 872.471 426.489 C 929.61 426.489 976 472.879 976 530.018 L 976 899.525 C 976 924.147 956.011 944.136 931.389 944.136 L 577.381 944.136 C 554.542 944.136 536 925.594 536 902.755 L 536 530.018 C 536 472.879 582.39 426.489 639.529 426.489 Z" style="stroke:none;fill:url(#_lgradient_0);stroke-miterlimit:10;"/><clipPath id="_clipPath_50XP59IC6w08mnf79Z8VeCycQnSi9dSc"><path d="M 639.529 426.489 L 872.471 426.489 C 929.61 426.489 976 472.879 976 530.018 L 976 899.525 C 976 924.147 956.011 944.136 931.389 944.136 L 577.381 944.136 C 554.542 944.136 536 925.594 536 902.755 L 536 530.018 C 536 472.879 582.39 426.489 639.529 426.489 Z" style="stroke:none;fill:url(#_lgradient_0);stroke-miterlimit:10;"/></clipPath><g clip-path="url(#_clipPath_50XP59IC6w08mnf79Z8VeCycQnSi9dSc)"><path d=" M 55.882 180.607 C 55.882 -200.442 365.245 -509.805 746.294 -509.805 C 1127.343 -509.805 1436.706 -200.442 1436.706 180.607 C 1436.706 561.655 1127.343 871.018 746.294 871.018 C 365.245 871.018 55.882 561.655 55.882 180.607 Z  M 193.965 180.607 C 193.965 -124.232 441.455 -371.723 746.294 -371.723 C 1051.133 -371.723 1298.624 -124.232 1298.624 180.607 C 1298.624 485.446 1051.133 732.936 746.294 732.936 C 441.455 732.936 193.965 485.446 193.965 180.607 Z " fill-rule="evenodd" fill="rgb(247,143,102)"/></g><rect x="714.265" y="464.291" width="83.471" height="58.429" transform="matrix(1,0,0,1,0,0)" fill="rgb(49,49,49)" fill-opacity="0.47"/><path d=" M 730.458 549.43 L 781.542 549.43 L 781.542 549.43 C 800.338 549.43 815.598 534.17 815.598 515.375 L 815.598 498.347 L 815.598 498.347 L 815.598 481.319 C 815.598 471.921 807.968 464.291 798.57 464.291 L 798.57 464.291 L 798.57 396.179 C 798.57 391.48 794.755 387.666 790.056 387.666 L 721.944 387.666 C 717.245 387.666 713.43 391.48 713.43 396.179 L 713.43 464.291 C 704.032 464.291 696.402 471.921 696.402 481.319 L 696.402 498.347 L 696.402 515.375 C 696.402 534.17 711.662 549.43 730.458 549.43 L 730.458 549.43 L 730.458 549.43 L 730.458 549.43 Z  M 730.458 515.375 L 781.542 515.375 L 781.542 498.347 L 764.514 498.347 L 764.514 464.291 L 747.486 464.291 L 747.486 498.347 L 730.458 498.347 L 730.458 515.375 Z " fill-rule="evenodd" fill="rgb(153,153,153)"/></g></g></g></svg>