<?xml version="1.0" standalone="no"?><!-- Generator: Gravit.io --><svg xmlns="http://www.w3.org/2000/svg" xmlns:xlink="http://www.w3.org/1999/xlink" style="isolation:isolate" viewBox="1518 1057.5 400 339" width="400" height="339"><defs><clipPath id="_clipPath_cadncQNSeEP5MMC1HmmV4B6ujm3v8j8G"><rect x="1518" y="1057.5" width="400" height="339"/></clipPath></defs><g clip-path="url(#_clipPath_cadncQNSeEP5MMC1HmmV4B6ujm3v8j8G)"><rect x="1518" y="1057.5" width="400" height="339" style="fill:rgb(159,159,159)" fill-opacity="0"/><g><linearGradient id="_lgradient_0" x1="0" y1="0" x2="1" y2="0.9999999999999998" gradientTransform="matrix(140,0,0,225,1768,1171.5)" gradientUnits="userSpaceOnUse"><stop offset="0%" stop-opacity="1" style="stop-color:rgb(162,96,70)"/><stop offset="100%" stop-opacity="1" style="stop-color:rgb(72,42,31)"/></linearGradient><rect x="1768" y="1171.5" width="140" height="225" transform="matrix(1,0,0,1,0,0)" fill="url(#_lgradient_0)"/><clipPath id="_clipPath_4QqsPC1Sfyeol0Ysbf2BGba8SSJll332"><rect x="1768" y="1171.5" width="140" height="225" transform="matrix(1,0,0,1,0,0)" fill="url(#_lgradient_0)"/></clipPath><g clip-path="url(#_clipPath_4QqsPC1Sfyeol0Ysbf2BGba8SSJll332)"><path d=" M 1887 1223 L 1914 1338 L 1928 1443 L 1734 1424 L 1743 1287 L 1887 1223 Z " fill="rgb(75,44,32)"/></g><linearGradient id="_lgradient_1" x1="0" y1="0.5" x2="1" y2="0.5" gradientTransform="matrix(180,0,0,115,1728,1057.5)" gradientUnits="userSpaceOnUse"><stop offset="0%" stop-opacity="1" style="stop-color:rgb(161,96,70)"/><stop offset="100%" stop-opacity="1" style="stop-color:rgb(117,69,50)"/></linearGradient><path d=" M 1908 1172.5 L 1868 1057.5 L 1728 1057.5 L 1768 1172.5 L 1908 1172.5 Z " fill="url(#_lgradient_1)"/><path d=" M 1918 1172.5 L 1878 1057.5 L 1868 1057.5 L 1908 1172.5 L 1918 1172.5 Z " fill="rgb(75,44,32)"/><g><clipPath id="_clipPath_ogz8mmWI66yrrJF2mvS1CfPpvNsXlz4j"><rect x="1689" y="1184.5" width="199" height="98.34" transform="matrix(1,0,0,1,0,0)" fill="rgb(255,255,255)"/></clipPath><g clip-path="url(#_clipPath_ogz8mmWI66yrrJF2mvS1CfPpvNsXlz4j)"><g><g><linearGradient id="_lgradient_2" x1="0.40970072239422084" y1="-0.2194968553459119" x2="0.4097007223942207" y2="0.7805031446540881" gradientTransform="matrix(-149.83,0,0,98.34,1838.83,1184.5)" gradientUnits="userSpaceOnUse"><stop offset="0%" stop-opacity="1" style="stop-color:rgb(64,38,28)"/><stop offset="100%" stop-opacity="1" style="stop-color:rgb(64,38,28)"/></linearGradient><path d=" M 1838.83 1184.5 L 1738.175 1184.5 C 1711.035 1184.5 1689 1206.532 1689 1233.67 L 1689 1233.67 C 1689 1260.808 1711.035 1282.84 1738.175 1282.84 L 1838.83 1282.84 L 1838.83 1184.5 Z " fill="url(#_lgradient_2)"/><circle vector-effect="non-scaling-stroke" cx="1838.8298368298363" cy="1233.670246666666" r="49.17016317016305" fill="rgb(113,85,64)"/><circle vector-effect="non-scaling-stroke" cx="1838.8298368298363" cy="1233.670246666666" r="41.789999999999964" fill="rgb(233,197,136)"/><circle vector-effect="non-scaling-stroke" cx="1838.8298368298363" cy="1233.670246666666" r="21.558333333333394" fill="rgb(157,120,91)"/><circle vector-effect="non-scaling-stroke" cx="1838.8298368298363" cy="1233.670246666666" r="8.733888888888941" fill="rgb(113,85,64)"/></g></g></g><clipPath id="_clipPath_coUQmCbBoYLtoT4SMLc9AknPuVchz5Jr"><rect x="1638" y="1101.5" width="199" height="98.34" transform="matrix(1,0,0,1,0,0)" fill="rgb(255,255,255)"/></clipPath><g clip-path="url(#_clipPath_coUQmCbBoYLtoT4SMLc9AknPuVchz5Jr)"><g><g><linearGradient id="_lgradient_3" x1="0.40970072239422084" y1="-0.2194968553459119" x2="0.4097007223942207" y2="0.7805031446540881" gradientTransform="matrix(-149.83,0,0,98.34,1787.83,1101.5)" gradientUnits="userSpaceOnUse"><stop offset="0%" stop-opacity="1" style="stop-color:rgb(195,116,85)"/><stop offset="100%" stop-opacity="1" style="stop-color:rgb(64,38,28)"/></linearGradient><path d=" M 1787.83 1101.5 L 1687.175 1101.5 C 1660.035 1101.5 1638 1123.532 1638 1150.67 L 1638 1150.67 C 1638 1177.808 1660.035 1199.84 1687.175 1199.84 L 1787.83 1199.84 L 1787.83 1101.5 Z " fill="url(#_lgradient_3)"/><circle vector-effect="non-scaling-stroke" cx="1787.8298368298363" cy="1150.6702466666661" r="49.17016317016305" fill="rgb(113,85,64)"/><circle vector-effect="non-scaling-stroke" cx="1787.8298368298363" cy="1150.6702466666661" r="41.789999999999964" fill="rgb(233,197,136)"/><circle vector-effect="non-scaling-stroke" cx="1787.8298368298363" cy="1150.6702466666661" r="21.558333333333394" fill="rgb(157,120,91)"/><circle vector-effect="non-scaling-stroke" cx="1787.8298368298363" cy="1150.6702466666661" r="8.733888888888941" fill="rgb(113,85,64)"/></g></g></g><clipPath id="_clipPath_igk5CC1IS0A1UvcfWbBJ6w76FFMkfavs"><rect x="1638" y="1268.16" width="199" height="98.34" transform="matrix(1,0,0,1,0,0)" fill="rgb(255,255,255)"/></clipPath><g clip-path="url(#_clipPath_igk5CC1IS0A1UvcfWbBJ6w76FFMkfavs)"><g><g><linearGradient id="_lgradient_4" x1="0.40970072239422084" y1="-0.2194968553459119" x2="0.4097007223942207" y2="0.7805031446540881" gradientTransform="matrix(-149.83,0,0,98.34,1787.83,1268.16)" gradientUnits="userSpaceOnUse"><stop offset="0%" stop-opacity="1" style="stop-color:rgb(64,38,28)"/><stop offset="100%" stop-opacity="1" style="stop-color:rgb(64,38,28)"/></linearGradient><path d=" M 1787.83 1268.16 L 1687.175 1268.16 C 1660.035 1268.16 1638 1290.192 1638 1317.33 L 1638 1317.33 C 1638 1344.468 1660.035 1366.5 1687.175 1366.5 L 1787.83 1366.5 L 1787.83 1268.16 Z " fill="url(#_lgradient_4)"/><circle vector-effect="non-scaling-stroke" cx="1787.8298368298365" cy="1317.3297533333323" r="49.17016317016305" fill="rgb(113,85,64)"/><circle vector-effect="non-scaling-stroke" cx="1787.8298368298365" cy="1317.3297533333323" r="41.789999999999964" fill="rgb(233,197,136)"/><circle vector-effect="non-scaling-stroke" cx="1787.8298368298365" cy="1317.3297533333323" r="21.558333333333394" fill="rgb(157,120,91)"/><circle vector-effect="non-scaling-stroke" cx="1787.8298368298365" cy="1317.3297533333323" r="8.733888888888941" fill="rgb(113,85,64)"/></g></g></g><clipPath id="_clipPath_vW5YG9bxg52dOxte8uepgfEgc0p8HkWa"><rect x="1589.5" y="1184.5" width="199" height="98.34" transform="matrix(1,0,0,1,0,0)" fill="rgb(255,255,255)"/></clipPath><g clip-path="url(#_clipPath_vW5YG9bxg52dOxte8uepgfEgc0p8HkWa)"><g><g><linearGradient id="_lgradient_5" x1="0.40970072239422084" y1="-0.2194968553459119" x2="0.4097007223942207" y2="0.7805031446540881" gradientTransform="matrix(-149.83,0,0,98.34,1739.33,1184.5)" gradientUnits="userSpaceOnUse"><stop offset="0%" stop-opacity="1" style="stop-color:rgb(195,116,85)"/><stop offset="100%" stop-opacity="1" style="stop-color:rgb(64,38,28)"/></linearGradient><path d=" M 1739.33 1184.5 L 1638.675 1184.5 C 1611.535 1184.5 1589.5 1206.532 1589.5 1233.67 L 1589.5 1233.67 C 1589.5 1260.808 1611.535 1282.84 1638.675 1282.84 L 1739.33 1282.84 L 1739.33 1184.5 Z " fill="url(#_lgradient_5)"/><circle vector-effect="non-scaling-stroke" cx="1739.3298368298365" cy="1233.670246666666" r="49.17016317016305" fill="rgb(113,85,64)"/><circle vector-effect="non-scaling-stroke" cx="1739.3298368298365" cy="1233.670246666666" r="41.789999999999964" fill="rgb(233,197,136)"/><circle vector-effect="non-scaling-stroke" cx="1739.3298368298365" cy="1233.670246666666" r="21.558333333333394" fill="rgb(157,120,91)"/><circle vector-effect="non-scaling-stroke" cx="1739.3298368298365" cy="1233.670246666666" r="8.733888888888941" fill="rgb(113,85,64)"/></g></g></g><clipPath id="_clipPath_ugydQtPLQvuuS3BmJu3rPJluHj5bkiw9"><rect x="1538.5" y="1268.16" width="199" height="98.34" transform="matrix(1,0,0,1,0,0)" fill="rgb(255,255,255)"/></clipPath><g clip-path="url(#_clipPath_ugydQtPLQvuuS3BmJu3rPJluHj5bkiw9)"><g><g><linearGradient id="_lgradient_6" x1="0.40970072239422084" y1="-0.2194968553459119" x2="0.4097007223942207" y2="0.7805031446540881" gradientTransform="matrix(-149.83,0,0,98.34,1688.33,1268.16)" gradientUnits="userSpaceOnUse"><stop offset="0%" stop-opacity="1" style="stop-color:rgb(195,116,85)"/><stop offset="100%" stop-opacity="1" style="stop-color:rgb(64,38,28)"/></linearGradient><path d=" M 1688.33 1268.16 L 1587.675 1268.16 C 1560.535 1268.16 1538.5 1290.192 1538.5 1317.33 L 1538.5 1317.33 C 1538.5 1344.468 1560.535 1366.5 1587.675 1366.5 L 1688.33 1366.5 L 1688.33 1268.16 Z " fill="url(#_lgradient_6)"/><circle vector-effect="non-scaling-stroke" cx="1688.3298368298365" cy="1317.3297533333323" r="49.17016317016305" fill="rgb(113,85,64)"/><circle vector-effect="non-scaling-stroke" cx="1688.3298368298365" cy="1317.3297533333323" r="41.789999999999964" fill="rgb(233,197,136)"/><circle vector-effect="non-scaling-stroke" cx="1688.3298368298365" cy="1317.3297533333323" r="21.558333333333394" fill="rgb(157,120,91)"/><circle vector-effect="non-scaling-stroke" cx="1688.3298368298365" cy="1317.3297533333323" r="8.733888888888941" fill="rgb(113,85,64)"/></g></g></g></g><path d=" M 1842.312 1096.5 L 1832.312 1096.5 L 1758.317 1101.039 C 1736.202 1109.493 1719.46 1124.676 1708 1146.5 L 1628.14 1282.261 C 1622.544 1291.776 1618 1308.462 1618 1319.5 L 1618 1366.5 L 1628 1366.5 L 1628 1319.25 C 1628 1308.212 1632.549 1291.529 1638.153 1282.019 L 1718 1146.5 C 1730.322 1121.963 1753.665 1106.973 1768 1101.5 L 1842.312 1096.5 Z " fill="rgb(233,197,136)"/><path d=" M 1792.625 1096.5 L 1782.625 1096.5 L 1708.317 1101.039 C 1686.202 1109.493 1669.46 1124.676 1658 1146.5 L 1578.14 1282.261 C 1572.544 1291.776 1568 1308.462 1568 1319.5 L 1568 1366.5 L 1578 1366.5 L 1578 1319.25 C 1578 1308.212 1582.549 1291.529 1588.153 1282.019 L 1668 1146.5 C 1680.322 1121.963 1703.665 1106.973 1718 1101.5 L 1792.625 1096.5 Z " fill="rgb(233,197,136)"/><rect x="1908" y="1171.5" width="10" height="225" transform="matrix(-1,0,0,-1,3826,2568)" fill="rgb(75,44,32)"/><g><rect x="1528" y="1365" width="380" height="15" transform="matrix(1,0,0,1,0,0)" fill="rgb(75,44,32)"/><rect x="1518" y="1365" width="140" height="15" transform="matrix(1,0,0,1,0,0)" fill="rgb(159,94,69)"/></g></g></g></svg>