<?xml version="1.0" standalone="no"?><!-- Generator: Gravit.io --><svg xmlns="http://www.w3.org/2000/svg" xmlns:xlink="http://www.w3.org/1999/xlink" style="isolation:isolate" viewBox="586 336.5 700 480" width="700" height="480"><defs><clipPath id="_clipPath_OBRbcllNxnN7yYNPdSQ0HZOkfdOoUpVE"><rect x="586" y="336.5" width="700" height="480"/></clipPath></defs><g clip-path="url(#_clipPath_OBRbcllNxnN7yYNPdSQ0HZOkfdOoUpVE)"><g><defs><linearGradient id="_lgradient_0" x1="0" y1="0" x2="0.9986666666666668" y2="0.8000000000000002"><stop offset="0%" style="stop-color:#E9C588"/><stop offset="100%" style="stop-color:#D7B67E"/></linearGradient></defs><path d="M 746 336.5 L 1126 336.5 C 1159.115 336.5 1186 363.385 1186 396.5 L 1186 436.5 L 686 436.5 L 686 396.5 C 686 363.385 712.885 336.5 746 336.5 Z" style="stroke:none;fill:url(#_lgradient_0);stroke-miterlimit:10;"/><defs><linearGradient id="_lgradient_1" x1="0.1371428571428572" y1="-0.245" x2="0.86" y2="1.2499999999999996"><stop offset="0%" style="stop-color:#A46248"/><stop offset="100%" style="stop-color:#40261C"/></linearGradient></defs><path d="M 666 416.5 L 1206 416.5 C 1250.153 416.5 1286 452.347 1286 496.5 L 1286 796.5 C 1286 807.538 1277.038 816.5 1266 816.5 L 606 816.5 C 594.962 816.5 586 807.538 586 796.5 L 586 496.5 C 586 452.347 621.847 416.5 666 416.5 Z" style="stroke:none;fill:url(#_lgradient_1);stroke-miterlimit:10;"/><rect x="886" y="476.5" width="100" height="70" transform="matrix(1,0,0,1,0,0)" fill="rgb(49,49,49)" fill-opacity="0.47"/><path d=" M 906 576.5 L 966 576.5 C 988.077 576.5 1006 558.577 1006 536.5 L 1006 516.5 L 1006 496.5 C 1006 485.462 997.038 476.5 986 476.5 L 986 396.5 C 986 390.981 981.519 386.5 976 386.5 L 896 386.5 C 890.481 386.5 886 390.981 886 396.5 L 886 476.5 C 874.962 476.5 866 485.462 866 496.5 L 866 516.5 L 866 536.5 C 866 558.577 883.923 576.5 906 576.5 L 906 576.5 Z  M 906 536.5 L 966 536.5 L 966 516.5 L 946 516.5 L 946 476.5 L 926 476.5 L 926 516.5 L 906 516.5 L 906 536.5 Z " fill-rule="evenodd" fill="rgb(153,153,153)"/></g></g></svg>