<?xml version="1.0" standalone="no"?><!-- Generator: Gravit.io --><svg xmlns="http://www.w3.org/2000/svg" xmlns:xlink="http://www.w3.org/1999/xlink" style="isolation:isolate" viewBox="-218 504 200 270" width="200" height="270"><defs><clipPath id="_clipPath_W8ZWrvSr9zj15FNPaAGLin3QPdhyMvFA"><rect x="-218" y="504" width="200" height="270"/></clipPath></defs><g clip-path="url(#_clipPath_W8ZWrvSr9zj15FNPaAGLin3QPdhyMvFA)"><g><g><g><path d=" M -208 664 L -28 664 L -28 774 L -208 774 L -208 664 Z " fill="rgb(248,201,159)"/><clipPath id="_clipPath_nyJsvf1zFpJdBEe2zSzKkQ68Q4F07Qvi"><path d=" M -208 664 L -28 664 L -28 774 L -208 774 L -208 664 Z " fill="rgb(248,201,159)"/></clipPath><g clip-path="url(#_clipPath_nyJsvf1zFpJdBEe2zSzKkQ68Q4F07Qvi)"><path d=" M -83 684 L -118 669 L -208 734 L -208 689 L -103 649 L -83 684 Z " fill="rgb(0,0,0)" fill-opacity="0.2"/></g><path d=" M -118 554 L -18 614 L -18 724 L -118 664 L -118 554 Z " fill="rgb(178,125,185)"/><path d=" M -218 614 L -218 724 L -118 664 L -118 554 L -218 614 Z " fill="rgb(243,171,253)"/></g></g><g><path d=" M -118 634 L -168 664 L -168 574 L -68 574 L -68 664 L -118 634 Z " fill="rgb(248,201,159)"/><clipPath id="_clipPath_SSBPmiM1C5uoNVrOc9O7Uya62Kd3HnNW"><path d=" M -118 634 L -168 664 L -168 574 L -68 574 L -68 664 L -118 634 Z " fill="rgb(248,201,159)"/></clipPath><g clip-path="url(#_clipPath_SSBPmiM1C5uoNVrOc9O7Uya62Kd3HnNW)"><path d=" M -103 584 L -118 579 L -168 619 L -168 569 L -108 564 L -103 584 Z " fill="rgb(0,0,0)" fill-opacity="0.2"/></g><g><path d=" M -118 504 L -52.669 543.199 L -52.669 615.063 L -118 575.864 L -118 504 Z " fill="rgb(178,125,185)"/><path d=" M -183.331 543.199 L -183.331 615.063 L -118 575.864 L -118 504 L -183.331 543.199 Z " fill="rgb(243,171,253)"/></g></g></g></g></svg>