<?xml version="1.0" standalone="no"?><!-- Generator: Gravit.io --><svg xmlns="http://www.w3.org/2000/svg" xmlns:xlink="http://www.w3.org/1999/xlink" style="isolation:isolate" viewBox="932 595.5 200 270" width="200" height="270"><defs><clipPath id="_clipPath_bpmWoRHWTL3tQaB3YuE1txGR666BA2rj"><rect x="932" y="595.5" width="200" height="270"/></clipPath></defs><g clip-path="url(#_clipPath_bpmWoRHWTL3tQaB3YuE1txGR666BA2rj)"><g><g><g><path d=" M 942 755.5 L 1122 755.5 L 1122 865.5 L 942 865.5 L 942 755.5 Z " fill="rgb(248,201,159)"/><clipPath id="_clipPath_zN03dRd5asR7UFz2M2UOi7liMMLhoPmM"><path d=" M 942 755.5 L 1122 755.5 L 1122 865.5 L 942 865.5 L 942 755.5 Z " fill="rgb(248,201,159)"/></clipPath><g clip-path="url(#_clipPath_zN03dRd5asR7UFz2M2UOi7liMMLhoPmM)"><path d=" M 1067 775.5 L 1032 760.5 L 942 825.5 L 942 780.5 L 1047 740.5 L 1067 775.5 Z " fill="rgb(0,0,0)" fill-opacity="0.2"/></g><path d=" M 1032 645.5 L 1132 705.5 L 1132 815.5 L 1032 755.5 L 1032 645.5 Z " fill="rgb(202,193,122)"/><path d=" M 932 705.5 L 932 815.5 L 1032 755.5 L 1032 645.5 L 932 705.5 Z " fill="rgb(248,237,147)"/></g></g><g><path d=" M 1032 725.5 L 982 755.5 L 982 665.5 L 1082 665.5 L 1082 755.5 L 1032 725.5 Z " fill="rgb(248,201,159)"/><clipPath id="_clipPath_tkEwMnov8V5nA7buqxQfBcEMj7JJV7N9"><path d=" M 1032 725.5 L 982 755.5 L 982 665.5 L 1082 665.5 L 1082 755.5 L 1032 725.5 Z " fill="rgb(248,201,159)"/></clipPath><g clip-path="url(#_clipPath_tkEwMnov8V5nA7buqxQfBcEMj7JJV7N9)"><path d=" M 1047 675.5 L 1032 670.5 L 982 710.5 L 982 660.5 L 1042 655.5 L 1047 675.5 Z " fill="rgb(0,0,0)" fill-opacity="0.2"/></g><g><path d=" M 1032 595.5 L 1097.331 634.699 L 1097.331 706.563 L 1032 667.364 L 1032 595.5 Z " fill="rgb(202,193,122)"/><path d=" M 966.669 634.699 L 966.669 706.563 L 1032 667.364 L 1032 595.5 L 966.669 634.699 Z " fill="rgb(248,237,147)"/></g></g></g></g></svg>