<?xml version="1.0" standalone="no"?><!-- Generator: Gravit.io --><svg xmlns="http://www.w3.org/2000/svg" xmlns:xlink="http://www.w3.org/1999/xlink" style="isolation:isolate" viewBox="875 530 120 90" width="120" height="90"><defs><clipPath id="_clipPath_j3Vzm98xiJp6ZC9cXEdakm9D4THkAMwp"><rect x="875" y="530" width="120" height="90"/></clipPath></defs><g clip-path="url(#_clipPath_j3Vzm98xiJp6ZC9cXEdakm9D4THkAMwp)"><path d="M 885 530 L 885 530 C 887.76 530 890 532.24 890 535 L 890 615 C 890 617.76 887.76 620 885 620 L 885 620 C 882.24 620 880 617.76 880 615 L 880 535 C 880 532.24 882.24 530 885 530 Z" style="stroke:none;fill:#977252;stroke-miterlimit:10;"/><path d="M 905 530 L 905 530 C 907.76 530 910 532.24 910 535 L 910 615 C 910 617.76 907.76 620 905 620 L 905 620 C 902.24 620 900 617.76 900 615 L 900 535 C 900 532.24 902.24 530 905 530 Z" style="stroke:none;fill:#977252;stroke-miterlimit:10;"/><path d="M 925 530 L 925 530 C 927.76 530 930 532.24 930 535 L 930 615 C 930 617.76 927.76 620 925 620 L 925 620 C 922.24 620 920 617.76 920 615 L 920 535 C 920 532.24 922.24 530 925 530 Z" style="stroke:none;fill:#977252;stroke-miterlimit:10;"/><path d="M 945 530 L 945 530 C 947.76 530 950 532.24 950 535 L 950 615 C 950 617.76 947.76 620 945 620 L 945 620 C 942.24 620 940 617.76 940 615 L 940 535 C 940 532.24 942.24 530 945 530 Z" style="stroke:none;fill:#977252;stroke-miterlimit:10;"/><path d="M 965 530 L 965 530 C 967.76 530 970 532.24 970 535 L 970 615 C 970 617.76 967.76 620 965 620 L 965 620 C 962.24 620 960 617.76 960 615 L 960 535 C 960 532.24 962.24 530 965 530 Z" style="stroke:none;fill:#977252;stroke-miterlimit:10;"/><path d="M 985 530 L 985 530 C 987.76 530 990 532.24 990 535 L 990 615 C 990 617.76 987.76 620 985 620 L 985 620 C 982.24 620 980 617.76 980 615 L 980 535 C 980 532.24 982.24 530 985 530 Z" style="stroke:none;fill:#977252;stroke-miterlimit:10;"/><circle vector-effect="non-scaling-stroke" cx="889.9999999999999" cy="565" r="5" fill="rgb(121,89,61)"/><circle vector-effect="non-scaling-stroke" cx="879.9999999999998" cy="585" r="5" fill="rgb(121,89,61)"/><circle vector-effect="non-scaling-stroke" cx="884.9999999999999" cy="545" r="5" fill="rgb(121,89,61)"/><circle vector-effect="non-scaling-stroke" cx="884.9999999999999" cy="605" r="5" fill="rgb(121,89,61)"/><circle vector-effect="non-scaling-stroke" cx="899.9999999999999" cy="595" r="5" fill="rgb(121,89,61)"/><circle vector-effect="non-scaling-stroke" cx="909.9999999999998" cy="555" r="5" fill="rgb(121,89,61)"/><circle vector-effect="non-scaling-stroke" cx="919.9999999999997" cy="575" r="5" fill="rgb(121,89,61)"/><circle vector-effect="non-scaling-stroke" cx="929.9999999999995" cy="545" r="5" fill="rgb(121,89,61)"/><circle vector-effect="non-scaling-stroke" cx="924.9999999999999" cy="605" r="5" fill="rgb(121,89,61)"/><circle vector-effect="non-scaling-stroke" cx="949.9999999999999" cy="595" r="5" fill="rgb(121,89,61)"/><circle vector-effect="non-scaling-stroke" cx="939.9999999999994" cy="565" r="5" fill="rgb(121,89,61)"/><circle vector-effect="non-scaling-stroke" cx="949.9999999999993" cy="555" r="5" fill="rgb(121,89,61)"/><circle vector-effect="non-scaling-stroke" cx="969.9999999999999" cy="575" r="5" fill="rgb(121,89,61)"/><circle vector-effect="non-scaling-stroke" cx="959.9999999999999" cy="605" r="5" fill="rgb(121,89,61)"/><circle vector-effect="non-scaling-stroke" cx="969.9999999999998" cy="555" r="5" fill="rgb(121,89,61)"/><circle vector-effect="non-scaling-stroke" cx="979.9999999999999" cy="595" r="5" fill="rgb(121,89,61)"/><circle vector-effect="non-scaling-stroke" cx="990.0000000000001" cy="565" r="5" fill="rgb(121,89,61)"/></g></svg>