<?xml version="1.0" standalone="no"?><!-- Generator: Gravit.io --><svg xmlns="http://www.w3.org/2000/svg" xmlns:xlink="http://www.w3.org/1999/xlink" style="isolation:isolate" viewBox="850 470 200 220" width="200" height="220"><defs><clipPath id="_clipPath_YU6aLAKEEVFd5zNqxaXZOhF6RCda264h"><rect x="850" y="470" width="200" height="220"/></clipPath></defs><g clip-path="url(#_clipPath_YU6aLAKEEVFd5zNqxaXZOhF6RCda264h)"><clipPath id="_clipPath_ZFkaJBOxPQH1hpIIERAHMlq2b322VMjs"><rect x="850" y="470" width="200" height="220" transform="matrix(1,0,0,1,0,0)" fill="rgb(255,255,255)"/></clipPath><g clip-path="url(#_clipPath_ZFkaJBOxPQH1hpIIERAHMlq2b322VMjs)"><g><g><path d=" M 940 690 L 978 676 L 946.667 605.333 L 940 690 Z " fill="rgb(0,0,0)" fill-opacity="0.24"/><path d=" M 950 621.25 L 970 690 L 1040 690 L 1040 600 L 946.875 577.625 L 946.968 580.674 L 860 600 Q 860 639.63 860 680 Q 860 688.533 860 690 L 871.333 690 L 940 690 L 950 635 L 950 621.25 Z " fill="rgb(248,201,159)"/><clipPath id="_clipPath_4qyzJYhtlOvEsDZw1PYGu82bOaXGla02"><path d=" M 950 621.25 L 970 690 L 1040 690 L 1040 600 L 946.875 577.625 L 946.968 580.674 L 860 600 Q 860 639.63 860 680 Q 860 688.533 860 690 L 871.333 690 L 940 690 L 950 635 L 950 621.25 Z " fill="rgb(255,255,255)"/></clipPath><g clip-path="url(#_clipPath_4qyzJYhtlOvEsDZw1PYGu82bOaXGla02)"><g><path d=" M 1004.25 597.5 L 949.875 585.5 L 855.75 635.75 L 857.25 592.25 L 962.625 542.375 L 1004.25 597.5 Z " fill="rgb(0,0,0)" fill-opacity="0.13"/></g></g><line x1="950" y1="470.227" x2="950" y2="580" vector-effect="non-scaling-stroke" stroke-width="1" stroke="rgb(73,128,155)" stroke-linejoin="miter" stroke-linecap="butt" stroke-miterlimit="3"/><path d=" M 950 470 L 1031.5 502.6 L 1050 520 L 1050 650 L 1032.45 612.98 L 950 580 L 950 470 Z " fill="rgb(104,148,189)"/><path d=" M 866.5 503.4 L 850 520 L 850 650 L 865.4 613.84 L 950 580 L 950 470 L 866.5 503.4 Z " fill="rgb(139,195,247)"/></g></g></g></g></svg>