<?xml version="1.0" standalone="no"?><!-- Generator: Gravit.io --><svg xmlns="http://www.w3.org/2000/svg" xmlns:xlink="http://www.w3.org/1999/xlink" style="isolation:isolate" viewBox="835 466.5 200 220" width="200" height="220"><defs><clipPath id="_clipPath_8twZuHZlXprMc7FncP7QFKxEpCHF614T"><rect x="835" y="466.5" width="200" height="220"/></clipPath></defs><g clip-path="url(#_clipPath_8twZuHZlXprMc7FncP7QFKxEpCHF614T)"><clipPath id="_clipPath_ncdngrWht6U6139ATA7yedh9wGEfJPjG"><rect x="835" y="466.5" width="200" height="220" transform="matrix(1,0,0,1,0,0)" fill="rgb(255,255,255)"/></clipPath><g clip-path="url(#_clipPath_ncdngrWht6U6139ATA7yedh9wGEfJPjG)"><g><g><path d=" M 926 686 L 964 672 L 932.667 601.333 L 926 686 Z " fill="rgb(0,0,0)" fill-opacity="0.24"/><path d=" M 936 617.25 L 956 686 L 1026 686 L 1026 596 L 932.875 573.625 L 932.968 576.674 L 846 596 Q 846 635.63 846 676 Q 846 684.533 846 686 L 857.333 686 L 926 686 L 936 631 L 936 617.25 Z " fill="rgb(248,201,159)"/><clipPath id="_clipPath_Pz9jkRmFBL1Y5fTK8z12JWYoE9CFtaWX"><path d=" M 936 617.25 L 956 686 L 1026 686 L 1026 596 L 932.875 573.625 L 932.968 576.674 L 846 596 Q 846 635.63 846 676 Q 846 684.533 846 686 L 857.333 686 L 926 686 L 936 631 L 936 617.25 Z " fill="rgb(255,255,255)"/></clipPath><g clip-path="url(#_clipPath_Pz9jkRmFBL1Y5fTK8z12JWYoE9CFtaWX)"><g><path d=" M 990.25 593.5 L 935.875 581.5 L 841.75 631.75 L 843.25 588.25 L 948.625 538.375 L 990.25 593.5 Z " fill="rgb(0,0,0)" fill-opacity="0.13"/></g></g><line x1="936" y1="466.227" x2="936" y2="576" vector-effect="non-scaling-stroke" stroke-width="1" stroke="rgb(193,107,107)" stroke-linejoin="miter" stroke-linecap="butt" stroke-miterlimit="3"/><path d=" M 936 466 L 1017.5 498.6 L 1036 516 L 1036 646 L 1018.45 608.98 L 936 576 L 936 466 Z " fill="rgb(193,107,107)"/><path d=" M 852.5 499.4 L 836 516 L 836 646 L 851.4 609.84 L 936 576 L 936 466 L 852.5 499.4 Z " fill="rgb(247,137,137)"/></g></g></g></g></svg>