<?xml version="1.0" standalone="no"?><!-- Generator: Gravit.io --><svg xmlns="http://www.w3.org/2000/svg" xmlns:xlink="http://www.w3.org/1999/xlink" style="isolation:isolate" viewBox="637.888 237.888 624.225 624.225" width="624.225" height="624.225"><defs><clipPath id="_clipPath_tDDWPzTpITNiwrFVe61aAm2FtTtd26Fc"><rect x="637.888" y="237.888" width="624.225" height="624.225"/></clipPath></defs><g clip-path="url(#_clipPath_tDDWPzTpITNiwrFVe61aAm2FtTtd26Fc)"><radialGradient id="_rgradient_1" fx="0.5" fy="0.5" cx="0.5" cy="0.5" r="0.5" gradientTransform="matrix(624.225,0,0,624.225,637.888,237.888)" gradientUnits="userSpaceOnUse"><stop offset="0%" stop-opacity="1" style="stop-color:rgb(135,206,250)"/><stop offset="100%" stop-opacity="1" style="stop-color:rgb(187,229,255)"/></radialGradient><path d=" M 667.157 479.289 L 879.289 267.157 C 918.316 228.131 981.684 228.131 1020.711 267.157 L 1232.843 479.289 C 1271.869 518.316 1271.869 581.684 1232.843 620.711 L 1020.711 832.843 C 981.684 871.869 918.316 871.869 879.289 832.843 L 667.157 620.711 C 628.131 581.684 628.131 518.316 667.157 479.289 Z  M 925 500 L 975 500 C 988.798 500 1000 511.202 1000 525 L 1000 575 C 1000 588.798 988.798 600 975 600 L 925 600 C 911.202 600 900 588.798 900 575 L 900 525 C 900 511.202 911.202 500 925 500 Z " fill-rule="evenodd" fill="url(#_rgradient_1)"/></g></svg>