<?xml version="1.0" standalone="no"?><!-- Generator: Gravit.io --><svg xmlns="http://www.w3.org/2000/svg" xmlns:xlink="http://www.w3.org/1999/xlink" style="isolation:isolate" viewBox="693 333.5 486 486" width="486" height="486"><defs><clipPath id="_clipPath_gB50lfb06Z0vQSVLyC8DLgSmGEeglA31"><rect x="693" y="333.5" width="486" height="486"/></clipPath></defs><g clip-path="url(#_clipPath_gB50lfb06Z0vQSVLyC8DLgSmGEeglA31)"><clipPath id="_clipPath_v79WKOl9P0BK3TU2yoNWfeOXdMZRgmt3"><rect x="693" y="333.5" width="486" height="486" transform="matrix(1,0,0,1,0,0)" fill="rgb(255,255,255)"/></clipPath><g clip-path="url(#_clipPath_v79WKOl9P0BK3TU2yoNWfeOXdMZRgmt3)"><g><clipPath id="_clipPath_fU3Nq4989HqsZylc5p3iQ7MHHXItWdmS"><circle vector-effect="non-scaling-stroke" cx="935.9999999999998" cy="412.38636363636374" r="377" fill="rgb(255,255,255)"/></clipPath><g clip-path="url(#_clipPath_fU3Nq4989HqsZylc5p3iQ7MHHXItWdmS)"><g><circle vector-effect="non-scaling-stroke" cx="935.9999999999998" cy="705.3863636363637" r="200" fill="rgb(124,179,123)"/><clipPath id="_clipPath_xQ8iUizhwoHJCnXHCCSsLQ2N9tXd4Pq1"><circle vector-effect="non-scaling-stroke" cx="935.9999999999998" cy="705.3863636363637" r="200" fill="rgb(255,255,255)"/></clipPath><g clip-path="url(#_clipPath_xQ8iUizhwoHJCnXHCCSsLQ2N9tXd4Pq1)"><g><circle vector-effect="non-scaling-stroke" cx="828.9999999999998" cy="604.3863636363637" r="200" fill="rgb(152,221,151)"/></g></g></g></g><g><circle vector-effect="non-scaling-stroke" cx="851.5" cy="590.75" r="4" fill="rgb(253,116,116)"/><circle vector-effect="non-scaling-stroke" cx="855.9375" cy="606.09375" r="4" fill="rgb(253,116,116)"/><circle vector-effect="non-scaling-stroke" cx="846.875" cy="619.71875" r="4" fill="rgb(253,116,116)"/><circle vector-effect="non-scaling-stroke" cx="807.75" cy="587.8828125" r="4" fill="rgb(253,116,116)"/><circle vector-effect="non-scaling-stroke" cx="798.46875" cy="598.0078125" r="4" fill="rgb(253,116,116)"/><circle vector-effect="non-scaling-stroke" cx="808.59375" cy="610.2421875" r="4" fill="rgb(253,116,116)"/><circle vector-effect="non-scaling-stroke" cx="793.6875" cy="613.1953125" r="4" fill="rgb(253,116,116)"/><circle vector-effect="non-scaling-stroke" cx="856.6875" cy="636.46875" r="4" fill="rgb(253,116,116)"/><circle vector-effect="non-scaling-stroke" cx="857.8125" cy="624.84375" r="4" fill="rgb(253,116,116)"/><circle vector-effect="non-scaling-stroke" cx="866.625" cy="613.59375" r="4" fill="rgb(253,116,116)"/><circle vector-effect="non-scaling-stroke" cx="864.5625" cy="597.09375" r="4" fill="rgb(253,116,116)"/><circle vector-effect="non-scaling-stroke" cx="863.625" cy="582.84375" r="4" fill="rgb(253,116,116)"/><circle vector-effect="non-scaling-stroke" cx="929" cy="534.375" r="4" fill="rgb(253,116,116)"/><circle vector-effect="non-scaling-stroke" cx="922.75" cy="546.625" r="4" fill="rgb(253,116,116)"/><circle vector-effect="non-scaling-stroke" cx="936.65625" cy="549.421875" r="4" fill="rgb(253,116,116)"/><circle vector-effect="non-scaling-stroke" cx="921.09375" cy="570.328125" r="4" fill="rgb(253,116,116)"/><circle vector-effect="non-scaling-stroke" cx="935.296875" cy="572.25" r="4" fill="rgb(253,116,116)"/><circle vector-effect="non-scaling-stroke" cx="944.859375" cy="562.2890625" r="4" fill="rgb(253,116,116)"/><circle vector-effect="non-scaling-stroke" cx="858.2734375" cy="690" r="4" fill="rgb(253,116,116)"/><circle vector-effect="non-scaling-stroke" cx="852.0234375" cy="702.25" r="4" fill="rgb(253,116,116)"/><circle vector-effect="non-scaling-stroke" cx="865.9296875" cy="705.046875" r="4" fill="rgb(253,116,116)"/><circle vector-effect="non-scaling-stroke" cx="933.609375" cy="695.3203125" r="4" fill="rgb(253,116,116)"/><circle vector-effect="non-scaling-stroke" cx="926.015625" cy="709.3828125" r="4" fill="rgb(253,116,116)"/><circle vector-effect="non-scaling-stroke" cx="941.90625" cy="711.2109375" r="4" fill="rgb(253,116,116)"/><circle vector-effect="non-scaling-stroke" cx="927.703125" cy="725.5546875" r="4" fill="rgb(253,116,116)"/><circle vector-effect="non-scaling-stroke" cx="944.296875" cy="729.4921875" r="4" fill="rgb(253,116,116)"/><circle vector-effect="non-scaling-stroke" cx="931.359375" cy="741.5859375" r="4" fill="rgb(253,116,116)"/><circle vector-effect="non-scaling-stroke" cx="915.1875" cy="736.9453125" r="4" fill="rgb(253,116,116)"/><circle vector-effect="non-scaling-stroke" cx="918.28125" cy="752.6953125" r="4" fill="rgb(253,116,116)"/><circle vector-effect="non-scaling-stroke" cx="850.3671875" cy="725.953125" r="4" fill="rgb(253,116,116)"/><circle vector-effect="non-scaling-stroke" cx="864.5703125" cy="727.875" r="4" fill="rgb(253,116,116)"/><circle vector-effect="non-scaling-stroke" cx="859.25" cy="715.9375" r="4" fill="rgb(253,116,116)"/><circle vector-effect="non-scaling-stroke" cx="855.875" cy="741.3125" r="4" fill="rgb(253,116,116)"/><circle vector-effect="non-scaling-stroke" cx="874.5" cy="741.4375" r="4" fill="rgb(253,116,116)"/><circle vector-effect="non-scaling-stroke" cx="864.75" cy="753.4375" r="4" fill="rgb(253,116,116)"/><circle vector-effect="non-scaling-stroke" cx="874.1328125" cy="717.9140625" r="4" fill="rgb(253,116,116)"/><circle vector-effect="non-scaling-stroke" cx="1008.1875" cy="550.03125" r="4" fill="rgb(253,116,116)"/><circle vector-effect="non-scaling-stroke" cx="1000.6875" cy="562.59375" r="4" fill="rgb(253,116,116)"/><circle vector-effect="non-scaling-stroke" cx="1017.1875" cy="567.09375" r="4" fill="rgb(253,116,116)"/><circle vector-effect="non-scaling-stroke" cx="1055.4375" cy="580.03125" r="4" fill="rgb(253,116,116)"/><circle vector-effect="non-scaling-stroke" cx="1047.9375" cy="593.53125" r="4" fill="rgb(253,116,116)"/><circle vector-effect="non-scaling-stroke" cx="1065.75" cy="596.15625" r="4" fill="rgb(253,116,116)"/><circle vector-effect="non-scaling-stroke" cx="1055.75" cy="607.46875" r="4" fill="rgb(253,116,116)"/><circle vector-effect="non-scaling-stroke" cx="1071.1875" cy="611.46875" r="4" fill="rgb(253,116,116)"/><circle vector-effect="non-scaling-stroke" cx="1060.25" cy="623.46875" r="4" fill="rgb(253,116,116)"/><circle vector-effect="non-scaling-stroke" cx="1092.75" cy="640.96875" r="4" fill="rgb(253,116,116)"/><circle vector-effect="non-scaling-stroke" cx="1085.0625" cy="656.90625" r="4" fill="rgb(253,116,116)"/><circle vector-effect="non-scaling-stroke" cx="1101.9375" cy="659.15625" r="4" fill="rgb(253,116,116)"/><circle vector-effect="non-scaling-stroke" cx="1090.125" cy="673.40625" r="4" fill="rgb(253,116,116)"/><circle vector-effect="non-scaling-stroke" cx="1080.5625" cy="686.71875" r="4" fill="rgb(253,116,116)"/><circle vector-effect="non-scaling-stroke" cx="1036.84375" cy="675.2265625" r="4" fill="rgb(253,116,116)"/><circle vector-effect="non-scaling-stroke" cx="1042.875" cy="687.2265625" r="4" fill="rgb(253,116,116)"/><circle vector-effect="non-scaling-stroke" cx="1029.1875" cy="692.53125" r="4" fill="rgb(253,116,116)"/><circle vector-effect="non-scaling-stroke" cx="1041.75" cy="704.71875" r="4" fill="rgb(253,116,116)"/><circle vector-effect="non-scaling-stroke" cx="1022.25" cy="709.59375" r="4" fill="rgb(253,116,116)"/><circle vector-effect="non-scaling-stroke" cx="1035" cy="723.09375" r="4" fill="rgb(253,116,116)"/><circle vector-effect="non-scaling-stroke" cx="1014.5625" cy="727.96875" r="4" fill="rgb(253,116,116)"/><circle vector-effect="non-scaling-stroke" cx="1108.6875" cy="678.0234375" r="4" fill="rgb(253,116,116)"/><circle vector-effect="non-scaling-stroke" cx="1094.90625" cy="690.9609375" r="4" fill="rgb(253,116,116)"/><circle vector-effect="non-scaling-stroke" cx="1109.8125" cy="697.0078125" r="4" fill="rgb(253,116,116)"/><circle vector-effect="non-scaling-stroke" cx="1094.765625" cy="705.5859375" r="4" fill="rgb(253,116,116)"/><circle vector-effect="non-scaling-stroke" cx="1044.84375" cy="619.1015625" r="4" fill="rgb(253,116,116)"/><circle vector-effect="non-scaling-stroke" cx="1049.0625" cy="633.4453125" r="4" fill="rgb(253,116,116)"/><circle vector-effect="non-scaling-stroke" cx="1004.8125" cy="578.90625" r="4" fill="rgb(253,116,116)"/><circle vector-effect="non-scaling-stroke" cx="1016.8125" cy="586.40625" r="4" fill="rgb(253,116,116)"/><circle vector-effect="non-scaling-stroke" cx="1002.1875" cy="593.34375" r="4" fill="rgb(253,116,116)"/><circle vector-effect="non-scaling-stroke" cx="1001.9999999999999" cy="613.4999999999999" r="4" fill="rgb(253,116,116)"/><circle vector-effect="non-scaling-stroke" cx="968.625" cy="627.5390625" r="4" fill="rgb(253,116,116)"/><circle vector-effect="non-scaling-stroke" cx="982.265625" cy="639.7734375" r="4" fill="rgb(253,116,116)"/><circle vector-effect="non-scaling-stroke" cx="965.8125" cy="645.3984375" r="4" fill="rgb(253,116,116)"/><circle vector-effect="non-scaling-stroke" cx="978.609375" cy="656.7890625" r="4" fill="rgb(253,116,116)"/><circle vector-effect="non-scaling-stroke" cx="965.296875" cy="664.1953125" r="4" fill="rgb(253,116,116)"/><circle vector-effect="non-scaling-stroke" cx="980.484375" cy="672.2578125" r="4" fill="rgb(253,116,116)"/><circle vector-effect="non-scaling-stroke" cx="990.515625" cy="651.6796875" r="4" fill="rgb(253,116,116)"/><circle vector-effect="non-scaling-stroke" cx="965.0625" cy="683.2265625" r="4" fill="rgb(253,116,116)"/><circle vector-effect="non-scaling-stroke" cx="903.6875" cy="627" r="4" fill="rgb(253,116,116)"/><circle vector-effect="non-scaling-stroke" cx="914.25" cy="640.03125" r="4" fill="rgb(253,116,116)"/><circle vector-effect="non-scaling-stroke" cx="898.3125" cy="646.78125" r="4" fill="rgb(253,116,116)"/><circle vector-effect="non-scaling-stroke" cx="909.9375" cy="655.59375" r="4" fill="rgb(253,116,116)"/><circle vector-effect="non-scaling-stroke" cx="897.5625" cy="665.53125" r="4" fill="rgb(253,116,116)"/><circle vector-effect="non-scaling-stroke" cx="913.875" cy="674.53125" r="4" fill="rgb(253,116,116)"/><circle vector-effect="non-scaling-stroke" cx="924.75" cy="662.15625" r="4" fill="rgb(253,116,116)"/><circle vector-effect="non-scaling-stroke" cx="898.546875" cy="683.484375" r="4" fill="rgb(253,116,116)"/><circle vector-effect="non-scaling-stroke" cx="791.4583333333333" cy="652.5" r="4" fill="rgb(253,116,116)"/><circle vector-effect="non-scaling-stroke" cx="799.5" cy="662.53125" r="4" fill="rgb(253,116,116)"/><circle vector-effect="non-scaling-stroke" cx="785.25" cy="672.46875" r="4" fill="rgb(253,116,116)"/><circle vector-effect="non-scaling-stroke" cx="797.625" cy="683.90625" r="4" fill="rgb(253,116,116)"/><circle vector-effect="non-scaling-stroke" cx="809.625" cy="712.59375" r="4" fill="rgb(253,116,116)"/><circle vector-effect="non-scaling-stroke" cx="809.4375" cy="694.40625" r="4" fill="rgb(253,116,116)"/><circle vector-effect="non-scaling-stroke" cx="783.875" cy="693.46875" r="4" fill="rgb(253,116,116)"/><circle vector-effect="non-scaling-stroke" cx="795.25" cy="703.59375" r="4" fill="rgb(253,116,116)"/><circle vector-effect="non-scaling-stroke" cx="795.4375" cy="720.71875" r="4" fill="rgb(253,116,116)"/><circle vector-effect="non-scaling-stroke" cx="1015.125" cy="602.53125" r="4" fill="rgb(253,116,116)"/><circle vector-effect="non-scaling-stroke" cx="993.5625" cy="574.03125" r="4" fill="rgb(253,116,116)"/><circle vector-effect="non-scaling-stroke" cx="928.6822916666666" cy="583.8984375" r="4" fill="rgb(253,116,116)"/><circle vector-effect="non-scaling-stroke" cx="939.09375" cy="593.6484375" r="4" fill="rgb(253,116,116)"/><circle vector-effect="non-scaling-stroke" cx="928.734375" cy="560.0625" r="4" fill="rgb(253,116,116)"/></g></g></g></g></svg>