<?xml version="1.0" standalone="no"?><!-- Generator: Gravit.io --><svg xmlns="http://www.w3.org/2000/svg" xmlns:xlink="http://www.w3.org/1999/xlink" style="isolation:isolate" viewBox="548.29 333.607 773.421 485.786" width="773.421" height="485.786"><defs><clipPath id="_clipPath_nplixwxz3QRqUpooZHQqWL4YzZhdVfx1"><rect x="548.29" y="333.607" width="773.421" height="485.786"/></clipPath></defs><g clip-path="url(#_clipPath_nplixwxz3QRqUpooZHQqWL4YzZhdVfx1)"><rect x="548.29" y="333.607" width="773.421" height="485.786" style="fill:rgb(213,213,213)" fill-opacity="0"/><path d=" M 631.838 443.094 L 550.811 686.173 C 542.085 712.353 556.735 739.041 583.507 745.734 L 837.986 809.354 C 891.529 822.739 978.471 822.739 1032.014 809.354 L 1286.493 745.734 C 1313.265 739.041 1327.915 712.353 1319.189 686.173 L 1238.162 443.094 C 1236.417 437.858 1230.749 432.19 1225.513 430.445 L 935 333.607 L 644.487 430.445 C 639.251 432.19 633.583 437.858 631.838 443.094 Z " fill="rgb(149,149,149)"/><clipPath id="_clipPath_dZGIWTAueo5HWpAcF8YOPwyPosaq6NsA"><path d=" M 631.838 443.094 L 550.811 686.173 C 542.085 712.353 556.735 739.041 583.507 745.734 L 837.986 809.354 C 891.529 822.739 978.471 822.739 1032.014 809.354 L 1286.493 745.734 C 1313.265 739.041 1327.915 712.353 1319.189 686.173 L 1238.162 443.094 C 1236.417 437.858 1230.749 432.19 1225.513 430.445 L 935 333.607 L 644.487 430.445 C 639.251 432.19 633.583 437.858 631.838 443.094 Z " fill="rgb(149,149,149)"/></clipPath><g clip-path="url(#_clipPath_dZGIWTAueo5HWpAcF8YOPwyPosaq6NsA)"><path d=" M 299 723.607 L 835.119 697.476 C 890.245 694.789 968.347 662.678 1009.422 625.813 L 1335 333.607 L 1487 1050.607 L 311 1050.607 L 299 723.607 Z " fill="rgb(121,121,121)"/></g><path d=" M 925 374 L 815 413 L 843.733 448 L 962.733 398 L 925 374 Z " fill="rgb(223,172,109)"/><clipPath id="_clipPath_g78c8hniBObZKP0AMFBIzStwH7B9eWXI"><path d=" M 925 374 L 815 413 L 843.733 448 L 962.733 398 L 925 374 Z " fill="rgb(223,172,109)"/></clipPath><g clip-path="url(#_clipPath_g78c8hniBObZKP0AMFBIzStwH7B9eWXI)"><path d=" M 797.666 406 L 852 430 L 993.729 390 L 877 463 L 814.433 457 L 797.666 406 Z " fill="rgb(193,149,94)"/></g><path d=" M 797.666 497.375 L 704 567 L 747.703 589.326 L 846.736 506.541 L 797.666 497.375 Z " fill="rgb(223,172,109)"/><clipPath id="_clipPath_a630iBKA9drEBBnoZqc33HcNNpSjNFd9"><path d=" M 797.666 497.375 L 704 567 L 747.703 589.326 L 846.736 506.541 L 797.666 497.375 Z " fill="rgb(223,172,109)"/></clipPath><g clip-path="url(#_clipPath_a630iBKA9drEBBnoZqc33HcNNpSjNFd9)"><path d=" M 804 485 L 740 604 L 879 523 L 804 485 Z " fill="rgb(193,149,94)"/></g><path d=" M 1055.043 467.777 L 940 448.126 L 962.733 492.098 L 1091 506.541 L 1055.043 467.777 Z " fill="rgb(223,172,109)"/><clipPath id="_clipPath_0jJ2oYyN4bhiL68avF5vru05ufUG0OrP"><path d=" M 1055.043 467.777 L 940 448.126 L 962.733 492.098 L 1091 506.541 L 1055.043 467.777 Z " fill="rgb(223,172,109)"/></clipPath><g clip-path="url(#_clipPath_0jJ2oYyN4bhiL68avF5vru05ufUG0OrP)"><path d=" M 933 442 L 988 479 L 1108 512 L 953 500 L 933 442 Z " fill="rgb(193,149,94)"/></g><path d=" M 1184.361 610 L 1108 666.761 L 1131.376 681.746 L 1212.112 614.256 L 1184.361 610 Z " fill="rgb(223,172,109)"/><clipPath id="_clipPath_kRIszNBf247UikISU8okwF0TUvXhmnmu"><path d=" M 1184.361 610 L 1108 666.761 L 1131.376 681.746 L 1212.112 614.256 L 1184.361 610 Z " fill="rgb(223,172,109)"/></clipPath><g clip-path="url(#_clipPath_kRIszNBf247UikISU8okwF0TUvXhmnmu)"><path d=" M 1100 664.662 L 1123 671 L 1230 603 L 1135 713 L 1100 664.662 Z " fill="rgb(193,149,94)"/></g><path d=" M 958.472 695.494 L 868.854 707.676 L 886.828 748.616 L 983.767 707.676 L 958.472 695.494 Z " fill="rgb(223,172,109)"/><clipPath id="_clipPath_HHpaP9HIiDlngY8g38ABc7Sx1cjuGI78"><path d=" M 958.472 695.494 L 868.854 707.676 L 886.828 748.616 L 983.767 707.676 L 958.472 695.494 Z " fill="rgb(223,172,109)"/></clipPath><g clip-path="url(#_clipPath_HHpaP9HIiDlngY8g38ABc7Sx1cjuGI78)"><path d=" M 859 700 L 891 725 L 1013 703 L 881 773 L 859 700 Z " fill="rgb(193,149,94)"/></g><path d=" M 906.659 579.484 L 989.514 626.26 L 993.729 598.815 L 899.293 552.392 L 906.659 579.484 Z " fill="rgb(223,172,109)"/><clipPath id="_clipPath_36mMSs3rrccG73YsBDiTUWEcmAruYjCd"><path d=" M 906.659 579.484 L 989.514 626.26 L 993.729 598.815 L 899.293 552.392 L 906.659 579.484 Z " fill="rgb(223,172,109)"/></clipPath><g clip-path="url(#_clipPath_36mMSs3rrccG73YsBDiTUWEcmAruYjCd)"><path d=" M 891 576 L 1019 604 L 1004 637 L 891 576 Z " fill="rgb(193,149,94)"/></g><path d=" M 791.214 646.281 L 697.86 664.662 L 712.513 688.246 L 814.433 662.064 L 791.214 646.281 Z " fill="rgb(223,172,109)"/><clipPath id="_clipPath_xTXHlXv2v53pzVoxGx0jXkXXw5LaOyQl"><path d=" M 791.214 646.281 L 697.86 664.662 L 712.513 688.246 L 814.433 662.064 L 791.214 646.281 Z " fill="rgb(223,172,109)"/></clipPath><g clip-path="url(#_clipPath_xTXHlXv2v53pzVoxGx0jXkXXw5LaOyQl)"><path d=" M 787 635 L 797.666 658 L 694 695.494 L 846.736 664.662 L 787 635 Z " fill="rgb(193,149,94)"/></g></g></svg>