<?xml version="1.0" standalone="no"?><!-- Generator: Gravit.io --><svg xmlns="http://www.w3.org/2000/svg" xmlns:xlink="http://www.w3.org/1999/xlink" style="isolation:isolate" viewBox="407.229 392.713 773.421 485.786" width="773.421" height="485.786"><defs><clipPath id="_clipPath_XIEu0NKvXuaPXqQ4o65eWncQ7LId4g5R"><rect x="407.229" y="392.713" width="773.421" height="485.786"/></clipPath></defs><g clip-path="url(#_clipPath_XIEu0NKvXuaPXqQ4o65eWncQ7LId4g5R)"><g><path d=" M 490.777 502.2 L 409.751 745.279 C 401.024 771.459 415.675 798.147 442.447 804.84 L 696.925 868.46 C 750.469 881.845 837.41 881.845 890.954 868.46 L 1145.432 804.84 C 1172.204 798.147 1186.855 771.459 1178.128 745.279 L 1097.102 502.2 C 1095.356 496.964 1089.688 491.296 1084.453 489.551 L 793.939 392.713 L 503.426 489.551 C 498.19 491.296 492.522 496.964 490.777 502.2 Z " fill="rgb(53,40,62)"/><clipPath id="_clipPath_viaz0xNJYqx2XnU1qMnzziKXESBisvTm"><path d=" M 490.777 502.2 L 409.751 745.279 C 401.024 771.459 415.675 798.147 442.447 804.84 L 696.925 868.46 C 750.469 881.845 837.41 881.845 890.954 868.46 L 1145.432 804.84 C 1172.204 798.147 1186.855 771.459 1178.128 745.279 L 1097.102 502.2 C 1095.356 496.964 1089.688 491.296 1084.453 489.551 L 793.939 392.713 L 503.426 489.551 C 498.19 491.296 492.522 496.964 490.777 502.2 Z " fill="rgb(53,40,62)"/></clipPath><g clip-path="url(#_clipPath_viaz0xNJYqx2XnU1qMnzziKXESBisvTm)"><path d=" M 157.939 782.713 L 694.058 756.582 C 749.184 753.895 827.287 721.784 868.361 684.92 L 1193.939 392.713 L 1345.939 1109.713 L 169.939 1109.713 L 157.939 782.713 Z " fill="rgb(43,32,50)"/></g><path d=" M 783.939 433.106 L 673.939 472.106 L 702.672 507.106 L 821.672 457.106 L 783.939 433.106 Z " fill="rgb(223,172,109)"/><clipPath id="_clipPath_C8XNfgBjhVFgKuJc9YBkTOkYKJQiLdBi"><path d=" M 783.939 433.106 L 673.939 472.106 L 702.672 507.106 L 821.672 457.106 L 783.939 433.106 Z " fill="rgb(223,172,109)"/></clipPath><g clip-path="url(#_clipPath_C8XNfgBjhVFgKuJc9YBkTOkYKJQiLdBi)"><path d=" M 656.606 465.106 L 710.939 489.106 L 852.669 449.106 L 735.939 522.106 L 673.373 516.106 L 656.606 465.106 Z " fill="rgb(193,149,94)"/></g><path d=" M 656.606 556.481 L 562.939 626.106 L 606.642 648.432 L 705.675 565.647 L 656.606 556.481 Z " fill="rgb(247,137,137)"/><clipPath id="_clipPath_teVjlqEtvjUwK4ur9CfepLveJmb6dwPu"><path d=" M 656.606 556.481 L 562.939 626.106 L 606.642 648.432 L 705.675 565.647 L 656.606 556.481 Z " fill="rgb(247,137,137)"/></clipPath><g clip-path="url(#_clipPath_teVjlqEtvjUwK4ur9CfepLveJmb6dwPu)"><path d=" M 662.939 544.106 L 598.939 663.106 L 737.939 582.106 L 662.939 544.106 Z " fill="rgb(181,98,98)"/></g><path d=" M 913.982 526.883 L 798.939 507.232 L 821.672 551.204 L 949.939 565.647 L 913.982 526.883 Z " fill="rgb(223,172,109)"/><clipPath id="_clipPath_haqm3nQoqWAQMBnT2baJCX9XD3SD1jpx"><path d=" M 913.982 526.883 L 798.939 507.232 L 821.672 551.204 L 949.939 565.647 L 913.982 526.883 Z " fill="rgb(223,172,109)"/></clipPath><g clip-path="url(#_clipPath_haqm3nQoqWAQMBnT2baJCX9XD3SD1jpx)"><path d=" M 791.939 501.106 L 846.939 538.106 L 966.939 571.106 L 811.939 559.106 L 791.939 501.106 Z " fill="rgb(193,149,94)"/></g><path d=" M 1043.3 669.106 L 966.939 725.867 L 990.315 740.852 L 1071.052 673.362 L 1043.3 669.106 Z " fill="rgb(223,172,109)"/><clipPath id="_clipPath_UgHDL63kENVPLmNPz0CJpQkYKMCFdsAM"><path d=" M 1043.3 669.106 L 966.939 725.867 L 990.315 740.852 L 1071.052 673.362 L 1043.3 669.106 Z " fill="rgb(223,172,109)"/></clipPath><g clip-path="url(#_clipPath_UgHDL63kENVPLmNPz0CJpQkYKMCFdsAM)"><path d=" M 958.939 723.768 L 981.939 730.106 L 1088.939 662.106 L 993.939 772.106 L 958.939 723.768 Z " fill="rgb(193,149,94)"/></g><path d=" M 817.411 754.6 L 727.793 766.782 L 745.768 807.722 L 842.706 766.782 L 817.411 754.6 Z " fill="rgb(223,172,109)"/><clipPath id="_clipPath_5uudnWQz8FL2wYxnBuGVuKpoYTuvy7Sk"><path d=" M 817.411 754.6 L 727.793 766.782 L 745.768 807.722 L 842.706 766.782 L 817.411 754.6 Z " fill="rgb(223,172,109)"/></clipPath><g clip-path="url(#_clipPath_5uudnWQz8FL2wYxnBuGVuKpoYTuvy7Sk)"><path d=" M 717.939 759.106 L 749.939 784.106 L 871.939 762.106 L 739.939 832.106 L 717.939 759.106 Z " fill="rgb(193,149,94)"/></g><path d=" M 765.599 638.591 L 848.453 685.366 L 852.669 657.921 L 758.232 611.498 L 765.599 638.591 Z " fill="rgb(223,172,109)"/><clipPath id="_clipPath_9sSHUMO6oOjvX3C7AxfUndE8v3UVco3l"><path d=" M 765.599 638.591 L 848.453 685.366 L 852.669 657.921 L 758.232 611.498 L 765.599 638.591 Z " fill="rgb(223,172,109)"/></clipPath><g clip-path="url(#_clipPath_9sSHUMO6oOjvX3C7AxfUndE8v3UVco3l)"><path d=" M 749.939 635.106 L 877.939 663.106 L 862.939 696.106 L 749.939 635.106 Z " fill="rgb(193,149,94)"/></g><path d=" M 650.153 705.387 L 556.799 723.768 L 571.453 747.352 L 673.373 721.17 L 650.153 705.387 Z " fill="rgb(223,172,109)"/><clipPath id="_clipPath_64rFOR2dLxPRLYMHFBooThnoB3KoCgmZ"><path d=" M 650.153 705.387 L 556.799 723.768 L 571.453 747.352 L 673.373 721.17 L 650.153 705.387 Z " fill="rgb(223,172,109)"/></clipPath><g clip-path="url(#_clipPath_64rFOR2dLxPRLYMHFBooThnoB3KoCgmZ)"><path d=" M 645.939 694.106 L 656.606 717.106 L 552.939 754.6 L 705.675 723.768 L 645.939 694.106 Z " fill="rgb(193,149,94)"/></g></g></g></svg>