<?xml version="1.0" standalone="no"?><!-- Generator: Gravit.io --><svg xmlns="http://www.w3.org/2000/svg" xmlns:xlink="http://www.w3.org/1999/xlink" style="isolation:isolate" viewBox="549.29 333.607 773.421 485.786" width="773.421" height="485.786"><defs><clipPath id="_clipPath_LzDpzl0CE4K8Wu6kDWtmuC2vHM51GyEl"><rect x="549.29" y="333.607" width="773.421" height="485.786"/></clipPath></defs><g clip-path="url(#_clipPath_LzDpzl0CE4K8Wu6kDWtmuC2vHM51GyEl)"><g><path d=" M 632.838 443.094 L 551.811 686.173 C 543.085 712.353 557.735 739.041 584.507 745.734 L 838.986 809.354 C 892.529 822.739 979.471 822.739 1033.014 809.354 L 1287.493 745.734 C 1314.265 739.041 1328.915 712.353 1320.189 686.173 L 1239.162 443.094 C 1237.417 437.858 1231.749 432.19 1226.513 430.445 L 936 333.607 L 645.487 430.445 C 640.251 432.19 634.583 437.858 632.838 443.094 Z " fill="rgb(53,40,62)"/><clipPath id="_clipPath_0iWuZ4EpzZ37gafDn1yrzXNdVEbd8djU"><path d=" M 632.838 443.094 L 551.811 686.173 C 543.085 712.353 557.735 739.041 584.507 745.734 L 838.986 809.354 C 892.529 822.739 979.471 822.739 1033.014 809.354 L 1287.493 745.734 C 1314.265 739.041 1328.915 712.353 1320.189 686.173 L 1239.162 443.094 C 1237.417 437.858 1231.749 432.19 1226.513 430.445 L 936 333.607 L 645.487 430.445 C 640.251 432.19 634.583 437.858 632.838 443.094 Z " fill="rgb(53,40,62)"/></clipPath><g clip-path="url(#_clipPath_0iWuZ4EpzZ37gafDn1yrzXNdVEbd8djU)"><path d=" M 300 723.607 L 836.119 697.476 C 891.245 694.789 969.347 662.678 1010.422 625.813 L 1336 333.607 L 1488 1050.607 L 312 1050.607 L 300 723.607 Z " fill="rgb(43,32,50)"/></g><path d=" M 776 529 L 849 471 L 908 529 L 837 569 L 776 529 Z " fill="rgb(255,229,114)"/><clipPath id="_clipPath_6m1qHuuBCVrJDfc7UAj62SDrNQstnrHg"><path d=" M 776 529 L 849 471 L 908 529 L 837 569 L 776 529 Z " fill="rgb(255,229,114)"/></clipPath><g clip-path="url(#_clipPath_6m1qHuuBCVrJDfc7UAj62SDrNQstnrHg)"><path d=" M 751 518 L 837 554 L 896.862 528.345 L 856 464 L 935 512 L 840 627 L 751 518 Z " fill="rgb(0,0,0)" fill-opacity="0.24"/></g><path d=" M 1102 629.5 L 1133 576.5 L 1193 624.5 L 1137 659.5 L 1102 629.5 Z " fill="rgb(255,229,114)"/><clipPath id="_clipPath_UTke2WfGvAbZArWt2MWK2WaN3GeKgNBa"><path d=" M 1102 629.5 L 1133 576.5 L 1193 624.5 L 1137 659.5 L 1102 629.5 Z " fill="rgb(255,229,114)"/></clipPath><g clip-path="url(#_clipPath_UTke2WfGvAbZArWt2MWK2WaN3GeKgNBa)"><path d=" M 1119 580 L 1115 624.5 L 1137 643 L 1208 635 L 1069 695 L 1119 580 Z " fill="rgb(195,175,87)"/></g></g></g></svg>