<?xml version="1.0" standalone="no"?><!-- Generator: Gravit.io --><svg xmlns="http://www.w3.org/2000/svg" xmlns:xlink="http://www.w3.org/1999/xlink" style="isolation:isolate" viewBox="736 276.5 400 600" width="400" height="600"><defs><clipPath id="_clipPath_I0sQcg9AZ5NYKFBvcF0WmVQjDtj4W8h1"><rect x="736" y="276.5" width="400" height="600"/></clipPath></defs><g clip-path="url(#_clipPath_I0sQcg9AZ5NYKFBvcF0WmVQjDtj4W8h1)"><clipPath id="_clipPath_oqcq22jrocRSjjnFXhx8lgJMsC1GivIi"><rect x="736" y="276.5" width="400" height="600" transform="matrix(1,0,0,1,0,0)" fill="rgb(255,255,255)"/></clipPath><g clip-path="url(#_clipPath_oqcq22jrocRSjjnFXhx8lgJMsC1GivIi)"><g><clipPath id="_clipPath_A9daOFFOWDsLXKGOO3mXuTydPaU5xaCB"><rect x="886" y="576.5" width="100" height="300" transform="matrix(1,0,0,1,0,0)" fill="rgb(255,255,255)"/></clipPath><g clip-path="url(#_clipPath_A9daOFFOWDsLXKGOO3mXuTydPaU5xaCB)"><g><circle vector-effect="non-scaling-stroke" cx="936" cy="726.5" r="150" fill="rgb(153,126,90)"/><circle vector-effect="non-scaling-stroke" cx="961" cy="601.5" r="125" fill="rgb(0,0,0)" fill-opacity="0.17"/></g></g><circle vector-effect="non-scaling-stroke" cx="936" cy="476.5" r="200" fill="rgb(124,179,123)"/><clipPath id="_clipPath_Xz7hdMbTYufAGzRobpdo12Oq1uqWSKyU"><circle vector-effect="non-scaling-stroke" cx="936" cy="476.5" r="200" fill="rgb(255,255,255)"/></clipPath><g clip-path="url(#_clipPath_Xz7hdMbTYufAGzRobpdo12Oq1uqWSKyU)"><g><circle vector-effect="non-scaling-stroke" cx="836" cy="376.5" r="200" fill="rgb(152,221,151)"/></g></g></g><g><circle vector-effect="non-scaling-stroke" cx="861.5000000000001" cy="617.5" r="12.5" fill="rgb(52,174,38)"/><circle vector-effect="non-scaling-stroke" cx="930.5" cy="580.5" r="12.5" fill="rgb(52,174,38)"/><circle vector-effect="non-scaling-stroke" cx="1009.5" cy="611.5" r="12.5" fill="rgb(52,174,38)"/><circle vector-effect="non-scaling-stroke" cx="1017.5" cy="535.5" r="12.5" fill="rgb(52,174,38)"/><circle vector-effect="non-scaling-stroke" cx="1085.5" cy="496.5" r="12.5" fill="rgb(52,174,38)"/><circle vector-effect="non-scaling-stroke" cx="1063.5" cy="429.5" r="12.5" fill="rgb(52,174,38)"/><circle vector-effect="non-scaling-stroke" cx="867.5" cy="535.5" r="12.5" fill="rgb(52,174,38)"/><circle vector-effect="non-scaling-stroke" cx="762.5" cy="503.5" r="12.5" fill="rgb(52,174,38)"/><circle vector-effect="non-scaling-stroke" cx="948.5" cy="484" r="12.5" fill="rgb(52,174,38)"/><circle vector-effect="non-scaling-stroke" cx="969.5" cy="400.5" r="12.5" fill="rgb(52,174,38)"/><circle vector-effect="non-scaling-stroke" cx="930.5" cy="316.5" r="12.5" fill="rgb(52,174,38)"/><circle vector-effect="non-scaling-stroke" cx="849.0000000000001" cy="417" r="12.5" fill="rgb(52,174,38)"/></g></g></g></svg>