<?xml version="1.0" standalone="no"?><!-- Generator: Gravit.io --><svg xmlns="http://www.w3.org/2000/svg" xmlns:xlink="http://www.w3.org/1999/xlink" style="isolation:isolate" viewBox="548.29 333.607 773.421 485.786" width="773.421" height="485.786"><defs><clipPath id="_clipPath_gtEN1FWVvj58nzZFC7slj6pgNussgWBy"><rect x="548.29" y="333.607" width="773.421" height="485.786"/></clipPath></defs><g clip-path="url(#_clipPath_gtEN1FWVvj58nzZFC7slj6pgNussgWBy)"><rect x="548.29" y="333.607" width="773.421" height="485.786" style="fill:rgb(213,213,213)" fill-opacity="0"/><path d=" M 631.838 443.094 L 550.811 686.173 C 542.085 712.353 556.735 739.041 583.507 745.734 L 837.986 809.354 C 891.529 822.739 978.471 822.739 1032.014 809.354 L 1286.493 745.734 C 1313.265 739.041 1327.915 712.353 1319.189 686.173 L 1238.162 443.094 C 1236.417 437.858 1230.749 432.19 1225.513 430.445 L 935 333.607 L 644.487 430.445 C 639.251 432.19 633.583 437.858 631.838 443.094 Z " fill="rgb(149,149,149)"/><clipPath id="_clipPath_ZoBNNlXuEYXOZURUbZRdrS9SJLOgmKMQ"><path d=" M 631.838 443.094 L 550.811 686.173 C 542.085 712.353 556.735 739.041 583.507 745.734 L 837.986 809.354 C 891.529 822.739 978.471 822.739 1032.014 809.354 L 1286.493 745.734 C 1313.265 739.041 1327.915 712.353 1319.189 686.173 L 1238.162 443.094 C 1236.417 437.858 1230.749 432.19 1225.513 430.445 L 935 333.607 L 644.487 430.445 C 639.251 432.19 633.583 437.858 631.838 443.094 Z " fill="rgb(149,149,149)"/></clipPath><g clip-path="url(#_clipPath_ZoBNNlXuEYXOZURUbZRdrS9SJLOgmKMQ)"><path d=" M 299 723.607 L 835.119 697.476 C 890.245 694.789 968.347 662.678 1009.422 625.813 L 1335 333.607 L 1487 1050.607 L 311 1050.607 L 299 723.607 Z " fill="rgb(121,121,121)"/></g><path d=" M 868 433.607 L 764 502 L 764 633 L 800 529 L 868 433.607 Z " fill="rgb(175,208,232)"/><clipPath id="_clipPath_JDXYmJYB78nz8EWaVD5xzz8FY3aQ2Osy"><path d=" M 868 433.607 L 764 502 L 764 633 L 800 529 L 868 433.607 Z " fill="rgb(175,208,232)"/></clipPath><g clip-path="url(#_clipPath_JDXYmJYB78nz8EWaVD5xzz8FY3aQ2Osy)"><path d=" M 891 424 L 784 512 L 758 663 L 709 433.607 L 891 424 Z " fill="rgb(153,169,169)"/></g><path d=" M 1055 529 L 1126 633 L 1064 750 L 1086 647 L 1055 529 Z " fill="rgb(175,208,232)"/><clipPath id="_clipPath_BNIDdk1GMPMGNXTgyznrNobcXbJ3jewv"><path d=" M 1055 529 L 1126 633 L 1064 750 L 1086 647 L 1055 529 Z " fill="rgb(175,208,232)"/></clipPath><g clip-path="url(#_clipPath_BNIDdk1GMPMGNXTgyznrNobcXbJ3jewv)"><path d=" M 1120 594 L 1055 774 L 1199 637 L 1120 594 Z " fill="rgb(153,169,169)"/></g><path d=" M 898 655 L 935 471 L 970 486 L 898 655 Z " fill="rgb(175,208,232)"/><clipPath id="_clipPath_dx5VgwgijuZmUXGgsWYyGOt1CQm6y5NB"><path d=" M 898 655 L 935 471 L 970 486 L 898 655 Z " fill="rgb(175,208,232)"/></clipPath><g clip-path="url(#_clipPath_dx5VgwgijuZmUXGgsWYyGOt1CQm6y5NB)"><path d=" M 927 449 L 947 502 L 912 633 L 1055 479 L 927 449 Z " fill="rgb(153,169,169)"/></g><path d=" M 659 641 L 715 733.607 L 685 637 L 659 641 Z " fill="rgb(175,208,232)"/><clipPath id="_clipPath_qNAhEhFIKxJxhvYwMyDrmS4D0R8OwzBi"><path d=" M 659 641 L 715 733.607 L 685 637 L 659 641 Z " fill="rgb(175,208,232)"/></clipPath><g clip-path="url(#_clipPath_qNAhEhFIKxJxhvYwMyDrmS4D0R8OwzBi)"><path d=" M 635 641 L 677 647 L 715 715 L 701 606 L 635 641 Z " fill="rgb(153,169,169)"/></g><path d=" M 1126 458 L 1207 545 L 1221 520 L 1126 458 Z " fill="rgb(175,208,232)"/><clipPath id="_clipPath_0Wn6G9I2SOOwDsixEXMbUzIFAbAgphgB"><path d=" M 1126 458 L 1207 545 L 1221 520 L 1126 458 Z " fill="rgb(175,208,232)"/></clipPath><g clip-path="url(#_clipPath_0Wn6G9I2SOOwDsixEXMbUzIFAbAgphgB)"><path d=" M 1232 516 L 1204 529 L 1130 483 L 1221 573 L 1232 516 Z " fill="rgb(153,169,169)"/></g></g></svg>