<?xml version="1.0" standalone="no"?><!-- Generator: Gravit.io --><svg xmlns="http://www.w3.org/2000/svg" xmlns:xlink="http://www.w3.org/1999/xlink" style="isolation:isolate" viewBox="549.29 333.607 773.421 485.786" width="773.421" height="485.786"><defs><clipPath id="_clipPath_8FjRv4GaIG8MyZ4perA70BuqCpv4iBwZ"><rect x="549.29" y="333.607" width="773.421" height="485.786"/></clipPath></defs><g clip-path="url(#_clipPath_8FjRv4GaIG8MyZ4perA70BuqCpv4iBwZ)"><g><path d=" M 632.838 443.094 L 551.811 686.173 C 543.085 712.353 557.735 739.041 584.507 745.734 L 838.986 809.354 C 892.529 822.739 979.471 822.739 1033.014 809.354 L 1287.493 745.734 C 1314.265 739.041 1328.915 712.353 1320.189 686.173 L 1239.162 443.094 C 1237.417 437.858 1231.749 432.19 1226.513 430.445 L 936 333.607 L 645.487 430.445 C 640.251 432.19 634.583 437.858 632.838 443.094 Z " fill="rgb(53,40,62)"/><clipPath id="_clipPath_zqd61M7xoxHQuvQX2tVSCcit3Wc6lXe8"><path d=" M 632.838 443.094 L 551.811 686.173 C 543.085 712.353 557.735 739.041 584.507 745.734 L 838.986 809.354 C 892.529 822.739 979.471 822.739 1033.014 809.354 L 1287.493 745.734 C 1314.265 739.041 1328.915 712.353 1320.189 686.173 L 1239.162 443.094 C 1237.417 437.858 1231.749 432.19 1226.513 430.445 L 936 333.607 L 645.487 430.445 C 640.251 432.19 634.583 437.858 632.838 443.094 Z " fill="rgb(53,40,62)"/></clipPath><g clip-path="url(#_clipPath_zqd61M7xoxHQuvQX2tVSCcit3Wc6lXe8)"><path d=" M 300 723.607 L 836.119 697.476 C 891.245 694.789 969.347 662.678 1010.422 625.813 L 1336 333.607 L 1488 1050.607 L 312 1050.607 L 300 723.607 Z " fill="rgb(43,32,50)"/></g><path d=" M 869 433.607 L 765 502 L 765 633 L 801 529 L 869 433.607 Z " fill="rgb(175,208,232)"/><clipPath id="_clipPath_7Bkog8xqLsQmsAKgWRm6PV0kAvfjKriH"><path d=" M 869 433.607 L 765 502 L 765 633 L 801 529 L 869 433.607 Z " fill="rgb(175,208,232)"/></clipPath><g clip-path="url(#_clipPath_7Bkog8xqLsQmsAKgWRm6PV0kAvfjKriH)"><path d=" M 892 424 L 785 512 L 759 663 L 710 433.607 L 892 424 Z " fill="rgb(153,169,169)"/></g><path d=" M 1056 529 L 1127 633 L 1065 750 L 1087 647 L 1056 529 Z " fill="rgb(171,253,185)"/><clipPath id="_clipPath_lFjMUCpqxNNVrz7uePChzZvFEOIn1AbE"><path d=" M 1056 529 L 1127 633 L 1065 750 L 1087 647 L 1056 529 Z " fill="rgb(171,253,185)"/></clipPath><g clip-path="url(#_clipPath_lFjMUCpqxNNVrz7uePChzZvFEOIn1AbE)"><path d=" M 1121 594 L 1056 774 L 1200 637 L 1121 594 Z " fill="rgb(151,179,156)"/></g><path d=" M 899 655 L 936 471 L 971 486 L 899 655 Z " fill="rgb(175,208,232)"/><clipPath id="_clipPath_rFb9MSGqumTRjfueGMVIyMjXZgIR0zHq"><path d=" M 899 655 L 936 471 L 971 486 L 899 655 Z " fill="rgb(175,208,232)"/></clipPath><g clip-path="url(#_clipPath_rFb9MSGqumTRjfueGMVIyMjXZgIR0zHq)"><path d=" M 928 449 L 948 502 L 913 633 L 1056 479 L 928 449 Z " fill="rgb(153,169,169)"/></g><path d=" M 660 641 L 716 733.607 L 686 637 L 660 641 Z " fill="rgb(171,253,185)"/><clipPath id="_clipPath_eebqIMV8zm01TVbdknoZ8YAi1jaTY9M8"><path d=" M 660 641 L 716 733.607 L 686 637 L 660 641 Z " fill="rgb(171,253,185)"/></clipPath><g clip-path="url(#_clipPath_eebqIMV8zm01TVbdknoZ8YAi1jaTY9M8)"><path d=" M 636 641 L 678 647 L 716 715 L 702 606 L 636 641 Z " fill="rgb(149,166,152)"/></g><path d=" M 1127 458 L 1208 545 L 1222 520 L 1127 458 Z " fill="rgb(175,208,232)"/><clipPath id="_clipPath_vr3A6q4QVWqQjG3imkA8DH0F1dtp44N0"><path d=" M 1127 458 L 1208 545 L 1222 520 L 1127 458 Z " fill="rgb(175,208,232)"/></clipPath><g clip-path="url(#_clipPath_vr3A6q4QVWqQjG3imkA8DH0F1dtp44N0)"><path d=" M 1233 516 L 1205 529 L 1131 483 L 1222 573 L 1233 516 Z " fill="rgb(153,169,169)"/></g></g></g></svg>