<?xml version="1.0" standalone="no"?><!-- Generator: Gravit.io --><svg xmlns="http://www.w3.org/2000/svg" xmlns:xlink="http://www.w3.org/1999/xlink" style="isolation:isolate" viewBox="1985 475 115 115" width="115" height="115"><defs><clipPath id="_clipPath_B8DtADvVkg1rQl97PTOOziQh3kakjYWF"><rect x="1985" y="475" width="115" height="115"/></clipPath></defs><g clip-path="url(#_clipPath_B8DtADvVkg1rQl97PTOOziQh3kakjYWF)"><rect x="1985" y="475" width="115" height="115" style="fill:rgb(142,142,142)" fill-opacity="0"/><g><g><path d=" M 2100 520 L 2100 560 L 2065 590 L 2015 590 L 1985 550 L 1985 525.188 L 2015 475 L 2065 480 L 2100 520 Z " fill="rgb(235,235,235)"/><path d=" M 1985 525 L 2030 487.5 L 2015 475 L 1985 525 Z " fill="rgb(219,219,219)"/><path d=" M 2065 480 L 2060 495 L 2100 520 L 2065 480 Z " fill="rgb(219,219,219)"/><path d=" M 1985 550 L 2025 570 L 2015 590 L 1985 550 Z " fill="rgb(219,219,219)"/><clipPath id="_clipPath_XcPmXWDd4wS901f1nFfCpharC4qrTXFF"><path d=" M 2100 520 L 2100 560 L 2065 590 L 2015 590 L 1985 550 L 1985 525.188 L 2015 475 L 2065 480 L 2100 520 Z " fill="rgb(255,255,255)"/></clipPath><g clip-path="url(#_clipPath_XcPmXWDd4wS901f1nFfCpharC4qrTXFF)"><path d=" M 2065 480 L 2055 490 L 2075 480 L 2065 480 Z " fill="rgb(170,170,170)" fill-opacity="0.75"/><path d=" M 2015 475 L 2025 485 L 1995 475 L 2015 475 Z " fill="rgb(170,170,170)" fill-opacity="0.75"/></g><linearGradient id="_lgradient_4" x1="1.1709870266256512" y1="0.10652109419716282" x2="-3.182848833054253" y2="2.498264464552129" gradientTransform="matrix(38.513,-6.791,7.594,43.069,2053.893,483.722)" gradientUnits="userSpaceOnUse"><stop offset="0%" stop-opacity="1" style="stop-color:rgb(235,235,235)"/><stop offset="100%" stop-opacity="1" style="stop-color:rgb(0,0,0)"/></linearGradient><path d=" M 2100 520 L 2075 480 L 2055 490 L 2100 520 L 2100 520 Z " fill="url(#_lgradient_4)"/><linearGradient id="_lgradient_5" x1="1.1709870266256512" y1="0.10652109419716282" x2="-3.182848833054253" y2="2.498264464552129" gradientTransform="matrix(-31.953,-5.634,-8.852,50.202,2025.805,480.432)" gradientUnits="userSpaceOnUse"><stop offset="0%" stop-opacity="1" style="stop-color:rgb(235,235,235)"/><stop offset="100%" stop-opacity="1" style="stop-color:rgb(0,0,0)"/></linearGradient><path d=" M 1985 525 L 1995 475 L 2025 485 L 1985 525 L 1985 525 Z " fill="url(#_lgradient_5)"/><linearGradient id="_lgradient_6" x1="0.1666666666666573" y1="0.4642857142857135" x2="5.308333333333323" y2="1.1428571428571441" gradientTransform="matrix(35,0,0,40,1985,550)" gradientUnits="userSpaceOnUse"><stop offset="0%" stop-opacity="1" style="stop-color:rgb(207,207,207)"/><stop offset="100%" stop-opacity="1" style="stop-color:rgb(0,0,0)"/></linearGradient><path d=" M 1985 550 L 2015 590 L 2020 565 L 1985 550 Z " fill="url(#_lgradient_6)"/><linearGradient id="_lgradient_7" x1="0.32500000000000284" y1="0.019999999999999574" x2="2.6249999999999996" y2="3.419999999999998" gradientTransform="matrix(40,0,0,30,2060,560)" gradientUnits="userSpaceOnUse"><stop offset="0%" stop-opacity="1" style="stop-color:rgb(207,207,207)"/><stop offset="100%" stop-opacity="1" style="stop-color:rgb(0,0,0)"/></linearGradient><path d=" M 2100 560 L 2060 570 L 2065 590 L 2100 560 Z " fill="url(#_lgradient_7)"/></g><g><radialGradient id="_rgradient_40" fx="0.5" fy="0.5" cx="0.5" cy="0.5" r="0.5" gradientTransform="matrix(41.65,-4.502,3.899,36.07,2015.125,504.883)" gradientUnits="userSpaceOnUse"><stop offset="0%" stop-opacity="1" style="stop-color:rgb(116,166,213)"/><stop offset="100%" stop-opacity="1" style="stop-color:rgb(104,115,200)"/></radialGradient><path d=" M 2039.849 538.702 L 2039.849 538.702 L 2039.849 538.702 C 2028.355 539.944 2022.816 532.368 2027.487 521.793 L 2027.487 521.793 L 2027.487 521.793 C 2032.158 511.218 2041.489 510.209 2048.312 519.542 L 2048.312 519.542 L 2048.312 519.542 C 2055.135 528.874 2051.343 537.46 2039.849 538.702 Z " fill="url(#_rgradient_40)"/><radialGradient id="_rgradient_41" fx="0.5" fy="0.5" cx="0.5" cy="0.5" r="0.5" gradientTransform="matrix(41.047,8.374,-7.252,35.548,2030.658,529.081)" gradientUnits="userSpaceOnUse"><stop offset="0%" stop-opacity="1" style="stop-color:rgb(116,166,213)"/><stop offset="100%" stop-opacity="1" style="stop-color:rgb(104,115,200)"/></radialGradient><path d=" M 2043.93 568.816 L 2043.93 568.816 L 2043.93 568.816 C 2032.602 566.505 2029.629 557.603 2037.294 548.949 L 2037.294 548.949 L 2037.294 548.949 C 2044.959 540.294 2054.155 542.17 2057.818 553.136 L 2057.818 553.136 L 2057.818 553.136 C 2061.48 564.101 2055.257 571.127 2043.93 568.816 Z " fill="url(#_rgradient_41)"/><radialGradient id="_rgradient_42" fx="0.5" fy="0.5" cx="0.5" cy="0.5" r="0.5" gradientTransform="matrix(41.047,8.374,-7.252,35.548,1994.986,507.776)" gradientUnits="userSpaceOnUse"><stop offset="0%" stop-opacity="1" style="stop-color:rgb(116,166,213)"/><stop offset="100%" stop-opacity="1" style="stop-color:rgb(104,115,200)"/></radialGradient><path d=" M 2008.258 547.511 L 2008.258 547.511 L 2008.258 547.511 C 1996.93 545.201 1993.957 536.298 2001.622 527.644 L 2001.622 527.644 L 2001.622 527.644 C 2009.287 518.99 2018.483 520.866 2022.146 531.831 L 2022.146 531.831 L 2022.146 531.831 C 2025.808 542.796 2019.585 549.822 2008.258 547.511 Z " fill="url(#_rgradient_42)"/><radialGradient id="_rgradient_43" fx="0.5" fy="0.5" cx="0.5" cy="0.5" r="0.5" gradientTransform="matrix(12.619,7.073,-6.126,10.928,2072.245,532.796)" gradientUnits="userSpaceOnUse"><stop offset="0%" stop-opacity="1" style="stop-color:rgb(116,166,213)"/><stop offset="100%" stop-opacity="1" style="stop-color:rgb(104,115,200)"/></radialGradient><path d=" M 2072.429 547.261 L 2072.429 547.261 L 2072.429 547.261 C 2068.947 545.309 2068.906 542.069 2072.337 540.029 L 2072.337 540.029 L 2072.337 540.029 C 2075.769 537.989 2078.596 539.574 2078.647 543.565 L 2078.647 543.565 L 2078.647 543.565 C 2078.697 547.557 2075.911 549.213 2072.429 547.261 Z " fill="url(#_rgradient_43)"/><radialGradient id="_rgradient_44" fx="0.5" fy="0.5" cx="0.5" cy="0.5" r="0.5" gradientTransform="matrix(12.619,7.073,-6.126,10.928,2064.558,524.921)" gradientUnits="userSpaceOnUse"><stop offset="0%" stop-opacity="1" style="stop-color:rgb(116,166,213)"/><stop offset="100%" stop-opacity="1" style="stop-color:rgb(104,115,200)"/></radialGradient><path d=" M 2064.742 539.386 L 2064.742 539.386 L 2064.742 539.386 C 2061.259 537.434 2061.218 534.194 2064.65 532.154 L 2064.65 532.154 L 2064.65 532.154 C 2068.081 530.114 2070.908 531.699 2070.959 535.69 L 2070.959 535.69 L 2070.959 535.69 C 2071.01 539.682 2068.224 541.338 2064.742 539.386 Z " fill="url(#_rgradient_44)"/><radialGradient id="_rgradient_45" fx="0.5" fy="0.5" cx="0.5" cy="0.5" r="0.5" gradientTransform="matrix(12.619,7.073,-6.126,10.928,2026.401,531.929)" gradientUnits="userSpaceOnUse"><stop offset="0%" stop-opacity="1" style="stop-color:rgb(116,166,213)"/><stop offset="100%" stop-opacity="1" style="stop-color:rgb(104,115,200)"/></radialGradient><path d=" M 2026.585 546.394 L 2026.585 546.394 L 2026.585 546.394 C 2023.103 544.442 2023.062 541.201 2026.493 539.162 L 2026.493 539.162 L 2026.493 539.162 C 2029.925 537.122 2032.752 538.706 2032.803 542.698 L 2032.803 542.698 L 2032.803 542.698 C 2032.854 546.69 2030.068 548.346 2026.585 546.394 Z " fill="url(#_rgradient_45)"/><radialGradient id="_rgradient_46" fx="0.5" fy="0.5" cx="0.5" cy="0.5" r="0.5" gradientTransform="matrix(-8.206,-11.914,10.318,-7.106,2025.155,564.034)" gradientUnits="userSpaceOnUse"><stop offset="0%" stop-opacity="1" style="stop-color:rgb(116,166,213)"/><stop offset="100%" stop-opacity="1" style="stop-color:rgb(104,115,200)"/></radialGradient><path d=" M 2031.369 550.97 L 2031.369 550.97 L 2031.369 550.97 C 2033.634 554.258 2032.241 557.185 2028.262 557.502 L 2028.262 557.502 L 2028.262 557.502 C 2024.283 557.819 2022.444 555.15 2024.159 551.545 L 2024.159 551.545 L 2024.159 551.545 C 2025.874 547.94 2029.105 547.683 2031.369 550.97 Z " fill="url(#_rgradient_46)"/><radialGradient id="_rgradient_47" fx="0.5" fy="0.5" cx="0.5" cy="0.5" r="0.5" gradientTransform="matrix(12.619,7.073,-6.126,10.928,2051.339,521.734)" gradientUnits="userSpaceOnUse"><stop offset="0%" stop-opacity="1" style="stop-color:rgb(116,166,213)"/><stop offset="100%" stop-opacity="1" style="stop-color:rgb(104,115,200)"/></radialGradient><path d=" M 2051.523 536.199 L 2051.523 536.199 L 2051.523 536.199 C 2048.041 534.247 2047.999 531.006 2051.431 528.966 L 2051.431 528.966 L 2051.431 528.966 C 2054.862 526.926 2057.69 528.511 2057.74 532.503 L 2057.74 532.503 L 2057.74 532.503 C 2057.791 536.494 2055.005 538.151 2051.523 536.199 Z " fill="url(#_rgradient_47)"/><radialGradient id="_rgradient_48" fx="0.5" fy="0.5" cx="0.5" cy="0.5" r="0.5" gradientTransform="matrix(14.399,-1.396,1.209,12.47,2042.844,513.667)" gradientUnits="userSpaceOnUse"><stop offset="0%" stop-opacity="1" style="stop-color:rgb(116,166,213)"/><stop offset="100%" stop-opacity="1" style="stop-color:rgb(104,115,200)"/></radialGradient><path d=" M 2051.253 525.438 L 2051.253 525.438 L 2051.253 525.438 C 2047.279 525.823 2045.395 523.186 2047.048 519.552 L 2047.048 519.552 L 2047.048 519.552 C 2048.701 515.919 2051.927 515.606 2054.248 518.854 L 2054.248 518.854 L 2054.248 518.854 C 2056.568 522.103 2055.226 525.053 2051.253 525.438 Z " fill="url(#_rgradient_48)"/><radialGradient id="_rgradient_49" fx="0.5" fy="0.5" cx="0.5" cy="0.5" r="0.5" gradientTransform="matrix(9.58,10.839,-9.387,8.297,2066.114,513.479)" gradientUnits="userSpaceOnUse"><stop offset="0%" stop-opacity="1" style="stop-color:rgb(116,166,213)"/><stop offset="100%" stop-opacity="1" style="stop-color:rgb(104,115,200)"/></radialGradient><path d=" M 2061.517 527.195 L 2061.517 527.195 L 2061.517 527.195 C 2058.873 524.204 2059.903 521.131 2063.816 520.337 L 2063.816 520.337 L 2063.816 520.337 C 2067.728 519.543 2069.874 521.972 2068.606 525.757 L 2068.606 525.757 L 2068.606 525.757 C 2067.337 529.542 2064.161 530.186 2061.517 527.195 Z " fill="url(#_rgradient_49)"/><radialGradient id="_rgradient_50" fx="0.5" fy="0.5" cx="0.5" cy="0.5" r="0.5" gradientTransform="matrix(11.053,-9.333,8.082,9.572,2048.205,511.302)" gradientUnits="userSpaceOnUse"><stop offset="0%" stop-opacity="1" style="stop-color:rgb(116,166,213)"/><stop offset="100%" stop-opacity="1" style="stop-color:rgb(104,115,200)"/></radialGradient><path d=" M 2061.814 516.208 L 2061.814 516.208 L 2061.814 516.208 C 2058.764 518.783 2055.715 517.684 2055.01 513.755 L 2055.01 513.755 L 2055.01 513.755 C 2054.305 509.826 2056.781 507.735 2060.536 509.089 L 2060.536 509.089 L 2060.536 509.089 C 2064.292 510.443 2064.864 513.633 2061.814 516.208 Z " fill="url(#_rgradient_50)"/></g><g><radialGradient id="_rgradient_51" fx="0.5" fy="0.5" cx="0.5" cy="0.5" r="0.5" gradientTransform="matrix(35.815,-21.732,18.82,31.017,2028.735,535.366)" gradientUnits="userSpaceOnUse"><stop offset="0%" stop-opacity="1" style="stop-color:rgb(139,195,247)"/><stop offset="100%" stop-opacity="1" style="stop-color:rgb(112,146,255)"/></radialGradient><path d=" M 2065.463 555.517 L 2065.463 555.517 L 2065.463 555.517 C 2055.579 561.514 2047.35 557 2047.099 545.442 L 2047.099 545.442 L 2047.099 545.442 C 2046.847 533.884 2054.871 529.015 2065.006 534.576 L 2065.006 534.576 L 2065.006 534.576 C 2075.142 540.137 2075.346 549.52 2065.463 555.517 Z " fill="url(#_rgradient_51)"/><radialGradient id="_rgradient_52" fx="0.5" fy="0.5" cx="0.5" cy="0.5" r="0.5" gradientTransform="matrix(12.367,-7.504,6.499,10.711,2031.732,554.766)" gradientUnits="userSpaceOnUse"><stop offset="0%" stop-opacity="1" style="stop-color:rgb(139,195,247)"/><stop offset="100%" stop-opacity="1" style="stop-color:rgb(112,146,255)"/></radialGradient><path d=" M 2044.415 561.725 L 2044.415 561.725 L 2044.415 561.725 C 2041.002 563.796 2038.16 562.237 2038.073 558.246 L 2038.073 558.246 L 2038.073 558.246 C 2037.986 554.255 2040.757 552.573 2044.257 554.494 L 2044.257 554.494 L 2044.257 554.494 C 2047.757 556.414 2047.827 559.654 2044.415 561.725 Z " fill="url(#_rgradient_52)"/><radialGradient id="_rgradient_53" fx="0.5" fy="0.5" cx="0.5" cy="0.5" r="0.5" gradientTransform="matrix(12.619,7.073,-6.126,10.928,2040.691,505.658)" gradientUnits="userSpaceOnUse"><stop offset="0%" stop-opacity="1" style="stop-color:rgb(139,195,247)"/><stop offset="100%" stop-opacity="1" style="stop-color:rgb(112,146,255)"/></radialGradient><path d=" M 2040.875 520.123 L 2040.875 520.123 L 2040.875 520.123 C 2037.392 518.171 2037.351 514.93 2040.783 512.89 L 2040.783 512.89 L 2040.783 512.89 C 2044.214 510.85 2047.041 512.435 2047.092 516.427 L 2047.092 516.427 L 2047.092 516.427 C 2047.143 520.419 2044.357 522.075 2040.875 520.123 Z " fill="url(#_rgradient_53)"/><radialGradient id="_rgradient_54" fx="0.5" fy="0.5" cx="0.5" cy="0.5" r="0.5" gradientTransform="matrix(12.619,7.073,-6.126,10.928,2005.598,524.716)" gradientUnits="userSpaceOnUse"><stop offset="0%" stop-opacity="1" style="stop-color:rgb(139,195,247)"/><stop offset="100%" stop-opacity="1" style="stop-color:rgb(112,146,255)"/></radialGradient><path d=" M 2005.782 539.181 L 2005.782 539.181 L 2005.782 539.181 C 2002.3 537.229 2002.258 533.988 2005.69 531.948 L 2005.69 531.948 L 2005.69 531.948 C 2009.121 529.909 2011.949 531.493 2011.999 535.485 L 2011.999 535.485 L 2011.999 535.485 C 2012.05 539.477 2009.264 541.133 2005.782 539.181 Z " fill="url(#_rgradient_54)"/><radialGradient id="_rgradient_55" fx="0.5" fy="0.5" cx="0.5" cy="0.5" r="0.5" gradientTransform="matrix(12.619,7.073,-6.126,10.928,2073.738,542.837)" gradientUnits="userSpaceOnUse"><stop offset="0%" stop-opacity="1" style="stop-color:rgb(139,195,247)"/><stop offset="100%" stop-opacity="1" style="stop-color:rgb(112,146,255)"/></radialGradient><path d=" M 2073.922 557.302 L 2073.922 557.302 L 2073.922 557.302 C 2070.44 555.35 2070.399 552.109 2073.83 550.069 L 2073.83 550.069 L 2073.83 550.069 C 2077.262 548.029 2080.089 549.614 2080.14 553.606 L 2080.14 553.606 L 2080.14 553.606 C 2080.191 557.597 2077.405 559.253 2073.922 557.302 Z " fill="url(#_rgradient_55)"/><radialGradient id="_rgradient_56" fx="0.5" fy="0.5" cx="0.5" cy="0.5" r="0.5" gradientTransform="matrix(12.619,7.073,-6.126,10.928,2044.955,516.992)" gradientUnits="userSpaceOnUse"><stop offset="0%" stop-opacity="1" style="stop-color:rgb(139,195,247)"/><stop offset="100%" stop-opacity="1" style="stop-color:rgb(112,146,255)"/></radialGradient><path d=" M 2045.139 531.457 L 2045.139 531.457 L 2045.139 531.457 C 2041.657 529.505 2041.615 526.264 2045.047 524.224 L 2045.047 524.224 L 2045.047 524.224 C 2048.478 522.184 2051.306 523.769 2051.356 527.761 L 2051.356 527.761 L 2051.356 527.761 C 2051.407 531.752 2048.621 533.408 2045.139 531.457 Z " fill="url(#_rgradient_56)"/><radialGradient id="_rgradient_57" fx="0.5" fy="0.5" cx="0.5" cy="0.5" r="0.5" gradientTransform="matrix(11.808,-8.357,7.237,10.226,2051,520.19)" gradientUnits="userSpaceOnUse"><stop offset="0%" stop-opacity="1" style="stop-color:rgb(139,195,247)"/><stop offset="100%" stop-opacity="1" style="stop-color:rgb(112,146,255)"/></radialGradient><path d=" M 2064.142 526.238 L 2064.142 526.238 L 2064.142 526.238 C 2060.883 528.544 2057.939 527.189 2057.571 523.214 L 2057.571 523.214 L 2057.571 523.214 C 2057.203 519.239 2059.849 517.367 2063.475 519.036 L 2063.475 519.036 L 2063.475 519.036 C 2067.102 520.705 2067.4 523.932 2064.142 526.238 Z " fill="url(#_rgradient_57)"/><radialGradient id="_rgradient_58" fx="0.5" fy="0.5" cx="0.5" cy="0.5" r="0.5" gradientTransform="matrix(13.769,4.436,-3.841,11.925,2050.089,501.988)" gradientUnits="userSpaceOnUse"><stop offset="0%" stop-opacity="1" style="stop-color:rgb(139,195,247)"/><stop offset="100%" stop-opacity="1" style="stop-color:rgb(112,146,255)"/></radialGradient><path d=" M 2053.133 516.131 L 2053.133 516.131 L 2053.133 516.131 C 2049.333 514.907 2048.651 511.738 2051.611 509.06 L 2051.611 509.06 L 2051.611 509.06 C 2054.571 506.381 2057.656 507.375 2058.496 511.277 L 2058.496 511.277 L 2058.496 511.277 C 2059.335 515.18 2056.932 517.355 2053.133 516.131 Z " fill="url(#_rgradient_58)"/><radialGradient id="_rgradient_59" fx="0.5" fy="0.5" cx="0.5" cy="0.5" r="0.5" gradientTransform="matrix(4.261,2.388,-2.068,3.69,2044.767,533.388)" gradientUnits="userSpaceOnUse"><stop offset="0%" stop-opacity="1" style="stop-color:rgb(139,195,247)"/><stop offset="100%" stop-opacity="1" style="stop-color:rgb(112,146,255)"/></radialGradient><path d=" M 2044.829 538.272 L 2044.829 538.272 L 2044.829 538.272 C 2043.653 537.613 2043.639 536.518 2044.798 535.83 L 2044.798 535.83 L 2044.798 535.83 C 2045.957 535.141 2046.911 535.676 2046.928 537.024 L 2046.928 537.024 L 2046.928 537.024 C 2046.945 538.372 2046.005 538.931 2044.829 538.272 Z " fill="url(#_rgradient_59)"/><radialGradient id="_rgradient_60" fx="0.5" fy="0.5" cx="0.5" cy="0.5" r="0.5" gradientTransform="matrix(4.261,2.388,-2.068,3.69,2039.658,520.573)" gradientUnits="userSpaceOnUse"><stop offset="0%" stop-opacity="1" style="stop-color:rgb(139,195,247)"/><stop offset="100%" stop-opacity="1" style="stop-color:rgb(112,146,255)"/></radialGradient><path d=" M 2039.72 525.457 L 2039.72 525.457 L 2039.72 525.457 C 2038.545 524.798 2038.531 523.704 2039.689 523.015 L 2039.689 523.015 L 2039.689 523.015 C 2040.848 522.326 2041.803 522.861 2041.82 524.209 L 2041.82 524.209 L 2041.82 524.209 C 2041.837 525.557 2040.896 526.116 2039.72 525.457 Z " fill="url(#_rgradient_60)"/><radialGradient id="_rgradient_61" fx="0.5" fy="0.5" cx="0.5" cy="0.5" r="0.5" gradientTransform="matrix(4.261,2.388,-2.068,3.69,2035.584,507.591)" gradientUnits="userSpaceOnUse"><stop offset="0%" stop-opacity="1" style="stop-color:rgb(139,195,247)"/><stop offset="100%" stop-opacity="1" style="stop-color:rgb(112,146,255)"/></radialGradient><path d=" M 2035.646 512.475 L 2035.646 512.475 L 2035.646 512.475 C 2034.47 511.816 2034.456 510.722 2035.615 510.033 L 2035.615 510.033 L 2035.615 510.033 C 2036.773 509.344 2037.728 509.879 2037.745 511.227 L 2037.745 511.227 L 2037.745 511.227 C 2037.762 512.575 2036.822 513.134 2035.646 512.475 Z " fill="url(#_rgradient_61)"/><radialGradient id="_rgradient_62" fx="0.5" fy="0.5" cx="0.5" cy="0.5" r="0.5" gradientTransform="matrix(4.261,2.388,-2.068,3.69,2038.959,535.997)" gradientUnits="userSpaceOnUse"><stop offset="0%" stop-opacity="1" style="stop-color:rgb(139,195,247)"/><stop offset="100%" stop-opacity="1" style="stop-color:rgb(112,146,255)"/></radialGradient><path d=" M 2039.021 540.881 L 2039.021 540.881 L 2039.021 540.881 C 2037.845 540.222 2037.831 539.128 2038.99 538.439 L 2038.99 538.439 L 2038.99 538.439 C 2040.148 537.751 2041.103 538.286 2041.12 539.634 L 2041.12 539.634 L 2041.12 539.634 C 2041.137 540.981 2040.197 541.541 2039.021 540.881 Z " fill="url(#_rgradient_62)"/><radialGradient id="_rgradient_63" fx="0.5" fy="0.5" cx="0.5" cy="0.5" r="0.5" gradientTransform="matrix(4.261,2.388,-2.068,3.69,2043.459,541.06)" gradientUnits="userSpaceOnUse"><stop offset="0%" stop-opacity="1" style="stop-color:rgb(139,195,247)"/><stop offset="100%" stop-opacity="1" style="stop-color:rgb(112,146,255)"/></radialGradient><path d=" M 2043.521 545.944 L 2043.521 545.944 L 2043.521 545.944 C 2042.345 545.285 2042.331 544.191 2043.49 543.502 L 2043.49 543.502 L 2043.49 543.502 C 2044.648 542.813 2045.603 543.348 2045.62 544.696 L 2045.62 544.696 L 2045.62 544.696 C 2045.637 546.044 2044.697 546.603 2043.521 545.944 Z " fill="url(#_rgradient_63)"/><radialGradient id="_rgradient_64" fx="0.5" fy="0.5" cx="0.5" cy="0.5" r="0.5" gradientTransform="matrix(4.261,2.388,-2.068,3.69,2044.162,547.529)" gradientUnits="userSpaceOnUse"><stop offset="0%" stop-opacity="1" style="stop-color:rgb(139,195,247)"/><stop offset="100%" stop-opacity="1" style="stop-color:rgb(112,146,255)"/></radialGradient><path d=" M 2044.224 552.413 L 2044.224 552.413 L 2044.224 552.413 C 2043.048 551.754 2043.034 550.659 2044.193 549.971 L 2044.193 549.971 L 2044.193 549.971 C 2045.351 549.282 2046.306 549.817 2046.323 551.165 L 2046.323 551.165 L 2046.323 551.165 C 2046.34 552.513 2045.4 553.072 2044.224 552.413 Z " fill="url(#_rgradient_64)"/><radialGradient id="_rgradient_65" fx="0.5" fy="0.5" cx="0.5" cy="0.5" r="0.5" gradientTransform="matrix(4.261,2.388,-2.068,3.69,2049.084,555.404)" gradientUnits="userSpaceOnUse"><stop offset="0%" stop-opacity="1" style="stop-color:rgb(139,195,247)"/><stop offset="100%" stop-opacity="1" style="stop-color:rgb(112,146,255)"/></radialGradient><path d=" M 2049.146 560.288 L 2049.146 560.288 L 2049.146 560.288 C 2047.97 559.629 2047.956 558.534 2049.115 557.846 L 2049.115 557.846 L 2049.115 557.846 C 2050.273 557.157 2051.228 557.692 2051.245 559.04 L 2051.245 559.04 L 2051.245 559.04 C 2051.262 560.388 2050.322 560.947 2049.146 560.288 Z " fill="url(#_rgradient_65)"/><radialGradient id="_rgradient_66" fx="0.5" fy="0.5" cx="0.5" cy="0.5" r="0.5" gradientTransform="matrix(4.261,2.388,-2.068,3.69,2055.974,557.654)" gradientUnits="userSpaceOnUse"><stop offset="0%" stop-opacity="1" style="stop-color:rgb(139,195,247)"/><stop offset="100%" stop-opacity="1" style="stop-color:rgb(112,146,255)"/></radialGradient><path d=" M 2056.036 562.538 L 2056.036 562.538 L 2056.036 562.538 C 2054.861 561.879 2054.847 560.784 2056.005 560.096 L 2056.005 560.096 L 2056.005 560.096 C 2057.164 559.407 2058.119 559.942 2058.136 561.29 L 2058.136 561.29 L 2058.136 561.29 C 2058.153 562.638 2057.212 563.197 2056.036 562.538 Z " fill="url(#_rgradient_66)"/><radialGradient id="_rgradient_67" fx="0.5" fy="0.5" cx="0.5" cy="0.5" r="0.5" gradientTransform="matrix(4.261,2.388,-2.068,3.69,2062.865,556.669)" gradientUnits="userSpaceOnUse"><stop offset="0%" stop-opacity="1" style="stop-color:rgb(139,195,247)"/><stop offset="100%" stop-opacity="1" style="stop-color:rgb(112,146,255)"/></radialGradient><path d=" M 2062.927 561.553 L 2062.927 561.553 L 2062.927 561.553 C 2061.751 560.894 2061.737 559.8 2062.896 559.111 L 2062.896 559.111 L 2062.896 559.111 C 2064.055 558.423 2065.009 558.958 2065.026 560.305 L 2065.026 560.305 L 2065.026 560.305 C 2065.043 561.653 2064.103 562.212 2062.927 561.553 Z " fill="url(#_rgradient_67)"/><radialGradient id="_rgradient_68" fx="0.5" fy="0.5" cx="0.5" cy="0.5" r="0.5" gradientTransform="matrix(4.261,2.388,-2.068,3.69,2054.146,526.013)" gradientUnits="userSpaceOnUse"><stop offset="0%" stop-opacity="1" style="stop-color:rgb(139,195,247)"/><stop offset="100%" stop-opacity="1" style="stop-color:rgb(112,146,255)"/></radialGradient><path d=" M 2054.208 530.897 L 2054.208 530.897 L 2054.208 530.897 C 2053.032 530.238 2053.019 529.144 2054.177 528.455 L 2054.177 528.455 L 2054.177 528.455 C 2055.336 527.766 2056.29 528.301 2056.308 529.649 L 2056.308 529.649 L 2056.308 529.649 C 2056.325 530.997 2055.384 531.556 2054.208 530.897 Z " fill="url(#_rgradient_68)"/><radialGradient id="_rgradient_69" fx="0.5" fy="0.5" cx="0.5" cy="0.5" r="0.5" gradientTransform="matrix(4.261,2.388,-2.068,3.69,2053.443,520.81)" gradientUnits="userSpaceOnUse"><stop offset="0%" stop-opacity="1" style="stop-color:rgb(139,195,247)"/><stop offset="100%" stop-opacity="1" style="stop-color:rgb(112,146,255)"/></radialGradient><path d=" M 2053.505 525.694 L 2053.505 525.694 L 2053.505 525.694 C 2052.329 525.035 2052.315 523.941 2053.474 523.252 L 2053.474 523.252 L 2053.474 523.252 C 2054.633 522.563 2055.587 523.098 2055.604 524.446 L 2055.604 524.446 L 2055.604 524.446 C 2055.622 525.794 2054.681 526.353 2053.505 525.694 Z " fill="url(#_rgradient_69)"/><radialGradient id="_rgradient_70" fx="0.5" fy="0.5" cx="0.5" cy="0.5" r="0.5" gradientTransform="matrix(4.261,2.388,-2.068,3.69,2048.099,517.154)" gradientUnits="userSpaceOnUse"><stop offset="0%" stop-opacity="1" style="stop-color:rgb(139,195,247)"/><stop offset="100%" stop-opacity="1" style="stop-color:rgb(112,146,255)"/></radialGradient><path d=" M 2048.161 522.038 L 2048.161 522.038 L 2048.161 522.038 C 2046.986 521.379 2046.972 520.284 2048.13 519.596 L 2048.13 519.596 L 2048.13 519.596 C 2049.289 518.907 2050.244 519.442 2050.261 520.79 L 2050.261 520.79 L 2050.261 520.79 C 2050.278 522.138 2049.337 522.697 2048.161 522.038 Z " fill="url(#_rgradient_70)"/><radialGradient id="_rgradient_71" fx="0.5" fy="0.5" cx="0.5" cy="0.5" r="0.5" gradientTransform="matrix(4.261,2.388,-2.068,3.69,2068.068,553.857)" gradientUnits="userSpaceOnUse"><stop offset="0%" stop-opacity="1" style="stop-color:rgb(139,195,247)"/><stop offset="100%" stop-opacity="1" style="stop-color:rgb(112,146,255)"/></radialGradient><path d=" M 2068.13 558.741 L 2068.13 558.741 L 2068.13 558.741 C 2066.954 558.082 2066.94 556.988 2068.099 556.299 L 2068.099 556.299 L 2068.099 556.299 C 2069.258 555.61 2070.212 556.145 2070.229 557.493 L 2070.229 557.493 L 2070.229 557.493 C 2070.247 558.841 2069.306 559.4 2068.13 558.741 Z " fill="url(#_rgradient_71)"/><radialGradient id="_rgradient_72" fx="0.5" fy="0.5" cx="0.5" cy="0.5" r="0.5" gradientTransform="matrix(4.261,2.388,-2.068,3.69,2060.193,526.716)" gradientUnits="userSpaceOnUse"><stop offset="0%" stop-opacity="1" style="stop-color:rgb(139,195,247)"/><stop offset="100%" stop-opacity="1" style="stop-color:rgb(112,146,255)"/></radialGradient><path d=" M 2060.255 531.6 L 2060.255 531.6 L 2060.255 531.6 C 2059.079 530.941 2059.065 529.847 2060.224 529.158 L 2060.224 529.158 L 2060.224 529.158 C 2061.383 528.469 2062.337 529.004 2062.354 530.352 L 2062.354 530.352 L 2062.354 530.352 C 2062.372 531.7 2061.431 532.259 2060.255 531.6 Z " fill="url(#_rgradient_72)"/><radialGradient id="_rgradient_73" fx="0.5" fy="0.5" cx="0.5" cy="0.5" r="0.5" gradientTransform="matrix(4.261,2.388,-2.068,3.69,2065.677,528.826)" gradientUnits="userSpaceOnUse"><stop offset="0%" stop-opacity="1" style="stop-color:rgb(139,195,247)"/><stop offset="100%" stop-opacity="1" style="stop-color:rgb(112,146,255)"/></radialGradient><path d=" M 2065.739 533.71 L 2065.739 533.71 L 2065.739 533.71 C 2064.564 533.051 2064.55 531.956 2065.708 531.268 L 2065.708 531.268 L 2065.708 531.268 C 2066.867 530.579 2067.822 531.114 2067.839 532.462 L 2067.839 532.462 L 2067.839 532.462 C 2067.856 533.809 2066.915 534.369 2065.739 533.71 Z " fill="url(#_rgradient_73)"/><radialGradient id="_rgradient_74" fx="0.5" fy="0.5" cx="0.5" cy="0.5" r="0.5" gradientTransform="matrix(4.261,2.388,-2.068,3.69,2040.209,529.161)" gradientUnits="userSpaceOnUse"><stop offset="0%" stop-opacity="1" style="stop-color:rgb(139,195,247)"/><stop offset="100%" stop-opacity="1" style="stop-color:rgb(112,146,255)"/></radialGradient><path d=" M 2040.271 534.046 L 2040.271 534.046 L 2040.271 534.046 C 2039.095 533.386 2039.081 532.292 2040.24 531.603 L 2040.24 531.603 L 2040.24 531.603 C 2041.398 530.915 2042.353 531.45 2042.37 532.798 L 2042.37 532.798 L 2042.37 532.798 C 2042.387 534.145 2041.447 534.705 2040.271 534.046 Z " fill="url(#_rgradient_74)"/><radialGradient id="_rgradient_75" fx="0.5" fy="0.5" cx="0.5" cy="0.5" r="0.5" gradientTransform="matrix(4.261,2.388,-2.068,3.69,2034.084,532.286)" gradientUnits="userSpaceOnUse"><stop offset="0%" stop-opacity="1" style="stop-color:rgb(139,195,247)"/><stop offset="100%" stop-opacity="1" style="stop-color:rgb(112,146,255)"/></radialGradient><path d=" M 2034.146 537.171 L 2034.146 537.171 L 2034.146 537.171 C 2032.97 536.511 2032.956 535.417 2034.115 534.728 L 2034.115 534.728 L 2034.115 534.728 C 2035.273 534.04 2036.228 534.575 2036.245 535.923 L 2036.245 535.923 L 2036.245 535.923 C 2036.262 537.27 2035.322 537.83 2034.146 537.171 Z " fill="url(#_rgradient_75)"/><radialGradient id="_rgradient_76" fx="0.5" fy="0.5" cx="0.5" cy="0.5" r="0.5" gradientTransform="matrix(4.261,2.388,-2.068,3.69,2026.584,534.661)" gradientUnits="userSpaceOnUse"><stop offset="0%" stop-opacity="1" style="stop-color:rgb(139,195,247)"/><stop offset="100%" stop-opacity="1" style="stop-color:rgb(112,146,255)"/></radialGradient><path d=" M 2026.646 539.546 L 2026.646 539.546 L 2026.646 539.546 C 2025.47 538.886 2025.456 537.792 2026.615 537.103 L 2026.615 537.103 L 2026.615 537.103 C 2027.773 536.415 2028.728 536.95 2028.745 538.298 L 2028.745 538.298 L 2028.745 538.298 C 2028.762 539.645 2027.822 540.205 2026.646 539.546 Z " fill="url(#_rgradient_76)"/><radialGradient id="_rgradient_77" fx="0.5" fy="0.5" cx="0.5" cy="0.5" r="0.5" gradientTransform="matrix(4.261,2.388,-2.068,3.69,2018.334,533.786)" gradientUnits="userSpaceOnUse"><stop offset="0%" stop-opacity="1" style="stop-color:rgb(139,195,247)"/><stop offset="100%" stop-opacity="1" style="stop-color:rgb(112,146,255)"/></radialGradient><path d=" M 2018.396 538.671 L 2018.396 538.671 L 2018.396 538.671 C 2017.22 538.011 2017.206 536.917 2018.365 536.228 L 2018.365 536.228 L 2018.365 536.228 C 2019.523 535.54 2020.478 536.075 2020.495 537.423 L 2020.495 537.423 L 2020.495 537.423 C 2020.512 538.77 2019.572 539.33 2018.396 538.671 Z " fill="url(#_rgradient_77)"/><radialGradient id="_rgradient_78" fx="0.5" fy="0.5" cx="0.5" cy="0.5" r="0.5" gradientTransform="matrix(4.261,2.388,-2.068,3.69,2012.709,530.349)" gradientUnits="userSpaceOnUse"><stop offset="0%" stop-opacity="1" style="stop-color:rgb(139,195,247)"/><stop offset="100%" stop-opacity="1" style="stop-color:rgb(112,146,255)"/></radialGradient><path d=" M 2012.771 535.233 L 2012.771 535.233 L 2012.771 535.233 C 2011.595 534.574 2011.581 533.48 2012.74 532.791 L 2012.74 532.791 L 2012.74 532.791 C 2013.898 532.102 2014.853 532.637 2014.87 533.985 L 2014.87 533.985 L 2014.87 533.985 C 2014.887 535.333 2013.947 535.892 2012.771 535.233 Z " fill="url(#_rgradient_78)"/><radialGradient id="_rgradient_79" fx="0.5" fy="0.5" cx="0.5" cy="0.5" r="0.5" gradientTransform="matrix(41.047,8.374,-7.252,35.548,2009.05,494.475)" gradientUnits="userSpaceOnUse"><stop offset="0%" stop-opacity="1" style="stop-color:rgb(139,195,247)"/><stop offset="100%" stop-opacity="1" style="stop-color:rgb(112,146,255)"/></radialGradient><path d=" M 2022.322 534.21 L 2022.322 534.21 L 2022.322 534.21 C 2010.994 531.899 2008.021 522.997 2015.686 514.342 L 2015.686 514.342 L 2015.686 514.342 C 2023.351 505.688 2032.547 507.564 2036.209 518.529 L 2036.209 518.529 L 2036.209 518.529 C 2039.872 529.494 2033.649 536.521 2022.322 534.21 Z " fill="url(#_rgradient_79)"/></g></g></g></svg>