<?xml version="1.0" standalone="no"?><!-- Generator: Gravit.io --><svg xmlns="http://www.w3.org/2000/svg" xmlns:xlink="http://www.w3.org/1999/xlink" style="isolation:isolate" viewBox="436 76.5 1000 1000" width="1000" height="1000"><defs><clipPath id="_clipPath_7hUOarMRmQDoMF7qodCYncAFUzGz0s78"><rect x="436" y="76.5" width="1000" height="1000"/></clipPath></defs><g clip-path="url(#_clipPath_7hUOarMRmQDoMF7qodCYncAFUzGz0s78)"><clipPath id="_clipPath_9FLGmL8B8SjEjD4NUyynVbQxqL0WnVtF"><rect x="436" y="76.5" width="1000" height="1000" transform="matrix(1,0,0,1,0,0)" fill="rgb(255,255,255)"/></clipPath><g clip-path="url(#_clipPath_9FLGmL8B8SjEjD4NUyynVbQxqL0WnVtF)"><g><path d=" M 1261.973 546.92 L 972.041 288.17 L 694.924 357.049 L 586 662.999 L 972.041 864.83 L 1286 605.333 L 1261.973 546.92 Z " fill="rgb(119,119,119)"/><clipPath id="_clipPath_CeUTZltof07gea9I7w6gWavh5vJA8z3D"><path d=" M 1261.973 546.92 L 972.041 288.17 L 694.924 357.049 L 586 662.999 L 972.041 864.83 L 1286 605.333 L 1261.973 546.92 Z " fill="rgb(119,119,119)"/></clipPath><g clip-path="url(#_clipPath_CeUTZltof07gea9I7w6gWavh5vJA8z3D)"><path d=" M 1117.808 382.678 L 1229.936 600.527 L 1096.984 823.182 L 1510.256 573.296 L 1117.808 382.678 Z " fill="rgb(150,150,150)"/><path d=" M 1056.938 318.605 L 750.989 376.271 L 704.535 646.981 L 807.053 835.997 L 1098.586 835.997 L 787.831 1085.882 L 296.069 318.605 L 1077.762 209.681 L 1056.938 318.605 Z " fill="rgb(150,150,150)"/></g><defs><filter id="Hh4rRmHkkjQnuw9DTTVuhqnGdSzbH7yv" x="-200%" y="-200%" width="400%" height="400%" filterUnits="objectBoundingBox" color-interpolation-filters="sRGB"><feOffset xmlns="http://www.w3.org/2000/svg" in="SourceGraphic" dx="0" dy="0"/><feGaussianBlur xmlns="http://www.w3.org/2000/svg" stdDeviation="8.587218125678056" result="pf_100_offsetBlur"/><feComposite xmlns="http://www.w3.org/2000/svg" in="SourceGraphic" in2="pf_100_offsetBlur" result="pf_100_inverse" operator="out"/><feFlood xmlns="http://www.w3.org/2000/svg" flood-color="#000000" flood-opacity="0.5" result="pf_100_color"/><feComposite xmlns="http://www.w3.org/2000/svg" in="pf_100_color" in2="pf_100_inverse" operator="in" result="pf_100_shadow"/><feComposite xmlns="http://www.w3.org/2000/svg" in="pf_100_shadow" in2="SourceGraphic" operator="over"/></filter></defs><g filter="url(#Hh4rRmHkkjQnuw9DTTVuhqnGdSzbH7yv)"><path d=" M 981.334 437.667 L 901.945 425.906 L 828.436 490.593 L 807.854 569.983 L 835.787 625.849 L 908.769 662.999 L 981.334 654.99 L 1010.485 640.792 L 1030.508 619.968 L 1046.526 589.315 L 1030.508 510.825 L 981.334 437.667 Z " fill="rgb(223,172,109)"/></g></g></g></g></svg>