<?xml version="1.0" standalone="no"?><!-- Generator: Gravit.io --><svg xmlns="http://www.w3.org/2000/svg" xmlns:xlink="http://www.w3.org/1999/xlink" style="isolation:isolate" viewBox="911 126.796 601.245 586.408" width="601.245" height="586.408"><defs><clipPath id="_clipPath_rVIgle3hE2Qt7RKtIsizgU8qP8cX4lbf"><rect x="911" y="126.796" width="601.245" height="586.408"/></clipPath></defs><g clip-path="url(#_clipPath_rVIgle3hE2Qt7RKtIsizgU8qP8cX4lbf)"><rect x="911" y="126.796" width="601.245" height="586.408" style="fill:rgb(191,191,191)" fill-opacity="0"/><g><circle vector-effect="non-scaling-stroke" cx="1211.6225324949" cy="420" r="77.5" fill="rgb(187,132,100)"/><path d=" M 1075.273 250.286 C 1082.063 180.998 1140.563 126.796 1211.623 126.796 C 1281.407 126.796 1339.079 179.07 1347.593 246.56 C 1356.506 244.704 1365.744 243.743 1375.204 243.743 C 1450.839 243.743 1512.245 305.149 1512.245 380.784 C 1512.245 435.62 1479.968 482.976 1433.382 504.857 C 1445.217 525.115 1451.998 548.678 1451.998 573.812 C 1451.998 649.447 1390.593 710.853 1314.958 710.853 C 1275.51 710.853 1239.933 694.149 1214.927 667.428 C 1189.84 695.52 1153.349 713.204 1112.76 713.204 C 1037.125 713.204 975.719 651.798 975.719 576.163 C 975.719 552.17 981.898 529.609 992.77 509.998 C 944.628 488.739 911 440.56 911 384.588 C 911 308.953 972.406 247.547 1048.041 247.547 C 1057.367 247.547 1066.477 248.481 1075.273 250.286 Z  M 1184.39 398.138 C 1193.186 399.944 1202.296 400.878 1211.623 400.878 C 1221.083 400.878 1230.321 399.917 1239.234 398.061 C 1241.587 416.712 1247.694 434.2 1256.789 449.734 C 1239.973 457.631 1225.022 468.847 1212.777 482.533 C 1200.238 469.138 1185.043 458.261 1168.02 450.771 C 1176.829 434.897 1182.554 417.085 1184.39 398.138 Z " fill-rule="evenodd" fill="rgb(235,235,235)"/><path d=" M 1080.905 306.227 C 1076.628 250.692 1115.19 199.86 1171.177 189.988 C 1226.159 180.293 1278.86 213.467 1294.944 265.459 C 1301.709 262.758 1308.854 260.718 1316.308 259.403 C 1375.9 248.896 1432.811 288.746 1443.319 348.338 C 1450.937 391.542 1432.085 433.338 1398.421 457.05 C 1410.56 471.366 1419.176 488.989 1422.668 508.792 C 1433.176 568.384 1393.326 625.296 1333.734 635.804 C 1302.653 641.284 1272.302 633.066 1248.888 615.486 C 1233.025 641.105 1206.731 660.108 1174.751 665.747 C 1115.159 676.254 1058.247 636.404 1047.74 576.812 C 1044.406 557.908 1046.141 539.274 1051.982 522.312 C 1011.098 512.251 977.91 478.963 970.134 434.863 C 959.626 375.272 999.476 318.36 1059.068 307.852 C 1066.416 306.556 1073.724 306.026 1080.905 306.227 Z  M 1187.417 407.559 C 1194.598 407.759 1201.905 407.229 1209.254 405.934 C 1216.708 404.619 1223.852 402.579 1230.617 399.878 C 1235.062 414.246 1242.303 427.177 1251.627 438.152 C 1239.476 446.71 1229.254 457.624 1221.507 470.109 C 1209.767 461.297 1196.284 454.838 1181.832 451.302 C 1186.566 437.571 1188.603 422.742 1187.417 407.559 Z " fill-rule="evenodd" fill="rgb(255,255,255)"/></g></g></svg>