<?xml version="1.0" standalone="no"?><!-- Generator: Gravit.io --><svg xmlns="http://www.w3.org/2000/svg" xmlns:xlink="http://www.w3.org/1999/xlink" style="isolation:isolate" viewBox="436 76.5 1000 1000" width="1000" height="1000"><defs><clipPath id="_clipPath_aK2d24B6EQZZxArwatXEHWHrNQLzwrrX"><rect x="436" y="76.5" width="1000" height="1000"/></clipPath></defs><g clip-path="url(#_clipPath_aK2d24B6EQZZxArwatXEHWHrNQLzwrrX)"><clipPath id="_clipPath_SOt1Yt0LWMBUkTWUwgcx3PEU4iu1WW3U"><rect x="436" y="76.5" width="1000" height="1000" transform="matrix(1,0,0,1,0,0)" fill="rgb(255,255,255)"/></clipPath><g clip-path="url(#_clipPath_SOt1Yt0LWMBUkTWUwgcx3PEU4iu1WW3U)"><clipPath id="_clipPath_DMhbHv06yoheqs2QVtosRobf9VTDdQNU"><rect x="436" y="216.882" width="1000" height="859.618" transform="matrix(1,0,0,1,0,0)" fill="rgb(255,255,255)"/></clipPath><g clip-path="url(#_clipPath_DMhbHv06yoheqs2QVtosRobf9VTDdQNU)"><g><g><path d=" M 1122.885 945.738 L 933.843 954.496 L 688.576 859.635 L 712.357 737.33 L 748.885 534.574 L 718.703 383.071 L 808.945 219.678 L 931.281 256.745 L 996.226 347.233 L 1079.325 435.247 L 1133.467 589.998 L 1310.979 648.856 L 1337.425 765.221 L 1122.885 945.738 Z " fill="rgb(209,209,209)"/><path d=" M 1105.904 948.58 L 916.734 953.868 L 673.249 854.524 L 699.27 732.676 L 739.511 530.624 L 712.114 378.593 L 805.338 216.882 L 926.973 256.188 L 990.247 347.852 L 1071.717 437.375 L 1123.012 593.093 L 1299.413 655.198 L 1323.721 772.029 L 1105.904 948.58 Z " fill="rgb(232,232,232)"/></g><path d=" M 1009.634 597.014 L 946.689 650.458 L 859.99 635.019 L 657.873 692.538 L 436 935.684 L 652.432 1076.5 L 1219.691 985.887 L 1436 821.48 L 1436 570.886 L 1234.1 517.442 L 1009.634 597.014 Z " fill="rgb(119,119,119)"/><clipPath id="_clipPath_NIuv8eOIdeXMPxXd0rN5pGdmtZI2UENc"><path d=" M 1009.634 597.014 L 946.689 650.458 L 859.99 635.019 L 657.873 692.538 L 436 935.684 L 652.432 1076.5 L 1219.691 985.887 L 1436 821.48 L 1436 570.886 L 1234.1 517.442 L 1009.634 597.014 Z " fill="rgb(255,255,255)"/></clipPath><g clip-path="url(#_clipPath_NIuv8eOIdeXMPxXd0rN5pGdmtZI2UENc)"><g><path d=" M 1222.223 997.252 L 1475.192 902.24 L 1660.466 684.9 L 1158.09 784.663 L 925.311 1048.321 L 1222.223 997.252 Z " fill="rgb(255,255,255)" fill-opacity="0.23"/><path d=" M 393.245 1019.817 L 574.955 884.425 L 697.283 602.952 L 284.417 325.648 L -22.432 1187.276 L 393.245 1019.817 Z " fill="rgb(255,255,255)" fill-opacity="0.23"/></g></g></g></g></g></g></svg>