<?xml version="1.0" standalone="no"?><!-- Generator: Gravit.io --><svg xmlns="http://www.w3.org/2000/svg" xmlns:xlink="http://www.w3.org/1999/xlink" style="isolation:isolate" viewBox="436 76.5 1000 1000" width="1000" height="1000"><defs><clipPath id="_clipPath_yCNefFyueBHeiaSuR8aefDCbmz6M3MmL"><rect x="436" y="76.5" width="1000" height="1000"/></clipPath></defs><g clip-path="url(#_clipPath_yCNefFyueBHeiaSuR8aefDCbmz6M3MmL)"><clipPath id="_clipPath_EuzHqeDg63Rr1yVyh0VJ5SqO7toDb1hd"><rect x="436" y="76.5" width="1000" height="1000" transform="matrix(1,0,0,1,0,0)" fill="rgb(255,255,255)"/></clipPath><g clip-path="url(#_clipPath_EuzHqeDg63Rr1yVyh0VJ5SqO7toDb1hd)"><clipPath id="_clipPath_8GDqowEjmrj2qdnoAVKQK0eQTMTbE3TD"><rect x="436" y="263.285" width="1000" height="813.215" transform="matrix(1,0,0,1,0,0)" fill="rgb(255,255,255)"/></clipPath><g clip-path="url(#_clipPath_8GDqowEjmrj2qdnoAVKQK0eQTMTbE3TD)"><g><g><path d=" M 1105.904 948.58 L 916.734 953.868 L 673.249 854.524 L 699.27 732.676 L 739.511 530.624 L 739.511 378.593 L 805.338 263.285 L 940.751 487.751 L 1071.717 291.789 L 1123.012 437.375 L 1123.012 593.093 L 1299.413 655.198 L 1323.721 772.029 L 1105.904 948.58 Z " fill="rgb(212,234,234)"/></g><path d=" M 1009.634 597.014 L 946.689 650.458 L 859.99 635.019 L 657.873 692.538 L 436 935.684 L 652.432 1076.5 L 1219.691 985.887 L 1436 821.48 L 1436 570.886 L 1234.1 517.442 L 1009.634 597.014 Z " fill="rgb(119,119,119)"/><clipPath id="_clipPath_EkPzj0ko4oeNJEWhOzzdwBVdd2Kv36mz"><path d=" M 1009.634 597.014 L 946.689 650.458 L 859.99 635.019 L 657.873 692.538 L 436 935.684 L 652.432 1076.5 L 1219.691 985.887 L 1436 821.48 L 1436 570.886 L 1234.1 517.442 L 1009.634 597.014 Z " fill="rgb(255,255,255)"/></clipPath><g clip-path="url(#_clipPath_EkPzj0ko4oeNJEWhOzzdwBVdd2Kv36mz)"><g><path d=" M 1222.223 997.252 L 1475.192 902.24 L 1660.466 684.9 L 1158.09 784.663 L 925.311 1048.321 L 1222.223 997.252 Z " fill="rgb(255,255,255)" fill-opacity="0.23"/><path d=" M 393.245 1019.817 L 574.955 884.425 L 697.283 602.952 L 284.417 325.648 L -22.432 1187.276 L 393.245 1019.817 Z " fill="rgb(255,255,255)" fill-opacity="0.23"/></g></g></g></g></g></g></svg>