<?xml version="1.0" standalone="no"?><!-- Generator: Gravit.io --><svg xmlns="http://www.w3.org/2000/svg" xmlns:xlink="http://www.w3.org/1999/xlink" style="isolation:isolate" viewBox="778.875 1159.755 159.501 17.802" width="159.501" height="17.802"><defs><clipPath id="_clipPath_jPIQ0lQZeGODcRQR2Zs17KJPAIKobjNZ"><rect x="778.875" y="1159.755" width="159.501" height="17.802"/></clipPath></defs><g clip-path="url(#_clipPath_jPIQ0lQZeGODcRQR2Zs17KJPAIKobjNZ)"><linearGradient id="_lgradient_0" x1="0.28862634564052675" y1="0.6035565373592392" x2="0.649409277691186" y2="1.2354981593962577" gradientTransform="matrix(159.501,0,0,17.802,778.875,1159.755)" gradientUnits="userSpaceOnUse"><stop offset="0%" stop-opacity="1" style="stop-color:rgb(181,149,108)"/><stop offset="100%" stop-opacity="1" style="stop-color:rgb(98,82,61)"/></linearGradient><path d=" M 779 1159.755 L 778.875 1165.5 L 790.688 1168.125 L 825.469 1170.738 L 826.625 1173.625 L 833.563 1173.812 L 835 1171.156 L 841.625 1171.125 L 886 1173.75 L 937.018 1177.558 L 938.376 1169 L 911 1165.75 L 899.344 1165.031 L 898.031 1162.219 L 892.125 1161.656 L 889.781 1164.375 L 779 1159.755 Z " fill="url(#_lgradient_0)"/><clipPath id="_clipPath_iOih6DKFO3EcJsbV40eP8kcEK9QpLkk1"><path d=" M 779 1159.755 L 778.875 1165.5 L 790.688 1168.125 L 825.469 1170.738 L 826.625 1173.625 L 833.563 1173.812 L 835 1171.156 L 841.625 1171.125 L 886 1173.75 L 937.018 1177.558 L 938.376 1169 L 911 1165.75 L 899.344 1165.031 L 898.031 1162.219 L 892.125 1161.656 L 889.781 1164.375 L 779 1159.755 Z " fill="url(#_lgradient_0)"/></clipPath><g clip-path="url(#_clipPath_iOih6DKFO3EcJsbV40eP8kcEK9QpLkk1)"><path d=" M 860.438 1162.688 L 772.5 1164.375 L 763.125 1144.923 L 821.625 1147.412 L 860.438 1162.688 Z " fill="rgb(255,255,255)" fill-opacity="0.15"/></g></g></svg>