<?xml version="1.0" standalone="no"?><!-- Generator: Gravit.io --><svg xmlns="http://www.w3.org/2000/svg" xmlns:xlink="http://www.w3.org/1999/xlink" style="isolation:isolate" viewBox="693 333.5 486 486" width="486" height="486"><defs><clipPath id="_clipPath_HYjJkHhpEfmje6cp01F9S2SAYw7gj5cc"><rect x="693" y="333.5" width="486" height="486"/></clipPath></defs><g clip-path="url(#_clipPath_HYjJkHhpEfmje6cp01F9S2SAYw7gj5cc)"><rect x="693" y="333.5" width="486" height="486" style="fill:rgb(136,136,136)" fill-opacity="0"/><clipPath id="_clipPath_5YbXtZWNaLgUaJEIjZVKjFXywLs4HCCQ"><rect x="693" y="333.5" width="486" height="486" transform="matrix(1,0,0,1,0,0)" fill="rgb(255,255,255)"/></clipPath><g clip-path="url(#_clipPath_5YbXtZWNaLgUaJEIjZVKjFXywLs4HCCQ)"><g><clipPath id="_clipPath_scguK94NANwdxtYzFE1e7jNAhIWwU3VH"><circle vector-effect="non-scaling-stroke" cx="935.9999999999998" cy="412.38636363636374" r="377" fill="rgb(255,255,255)"/></clipPath><g clip-path="url(#_clipPath_scguK94NANwdxtYzFE1e7jNAhIWwU3VH)"><g><circle vector-effect="non-scaling-stroke" cx="935.9999999999998" cy="705.3863636363637" r="200" fill="rgb(124,179,123)"/><clipPath id="_clipPath_0TQzCrOf1thtdsxmAgAEiCinQJwYgfjD"><circle vector-effect="non-scaling-stroke" cx="935.9999999999998" cy="705.3863636363637" r="200" fill="rgb(255,255,255)"/></clipPath><g clip-path="url(#_clipPath_0TQzCrOf1thtdsxmAgAEiCinQJwYgfjD)"><g><circle vector-effect="non-scaling-stroke" cx="828.9999999999998" cy="604.3863636363637" r="200" fill="rgb(152,221,151)"/></g></g></g></g></g><g><path d=" M 832.045 577.045 L 832.045 577.045 C 832.045 566.007 841.007 557.045 852.045 557.045 C 863.084 557.045 872.045 566.007 872.045 577.045 L 872.045 577.045 C 883.084 577.045 892.045 586.007 892.045 597.045 C 892.045 608.084 883.084 617.045 872.045 617.045 L 872.045 617.045 L 872.045 617.045 C 872.045 628.084 863.084 637.045 852.045 637.045 C 841.007 637.045 832.045 628.084 832.045 617.045 L 832.045 617.045 L 832.045 617.045 C 821.007 617.045 812.045 608.084 812.045 597.045 C 812.045 586.007 821.007 577.045 832.045 577.045 L 832.045 577.045 Z " fill-rule="evenodd" fill="rgb(235,235,235)"/><path d=" M 1010.682 610.114 L 1010.682 610.114 C 1010.682 599.075 1019.644 590.114 1030.682 590.114 C 1041.72 590.114 1050.682 599.075 1050.682 610.114 L 1050.682 610.114 C 1061.72 610.114 1070.682 619.075 1070.682 630.114 C 1070.682 641.152 1061.72 650.114 1050.682 650.114 L 1050.682 650.114 L 1050.682 650.114 C 1050.682 661.152 1041.72 670.114 1030.682 670.114 C 1019.644 670.114 1010.682 661.152 1010.682 650.114 L 1010.682 650.114 L 1010.682 650.114 C 999.644 650.114 990.682 641.152 990.682 630.114 C 990.682 619.075 999.644 610.114 1010.682 610.114 L 1010.682 610.114 Z " fill-rule="evenodd" fill="rgb(235,235,235)"/><path d=" M 908.409 708.977 L 908.409 708.977 C 908.409 697.939 917.371 688.977 928.409 688.977 C 939.447 688.977 948.409 697.939 948.409 708.977 L 948.409 708.977 C 959.447 708.977 968.409 717.939 968.409 728.977 C 968.409 740.016 959.447 748.977 948.409 748.977 L 948.409 748.977 L 948.409 748.977 C 948.409 760.016 939.447 768.977 928.409 768.977 C 917.371 768.977 908.409 760.016 908.409 748.977 L 908.409 748.977 L 908.409 748.977 C 897.371 748.977 888.409 740.016 888.409 728.977 C 888.409 717.939 897.371 708.977 908.409 708.977 L 908.409 708.977 Z " fill-rule="evenodd" fill="rgb(235,235,235)"/></g></g></g></svg>