<?xml version="1.0" standalone="no"?><!-- Generator: Gravit.io --><svg xmlns="http://www.w3.org/2000/svg" xmlns:xlink="http://www.w3.org/1999/xlink" style="isolation:isolate" viewBox="1592.5 570 97.5 88.333" width="97.5" height="88.333"><defs><clipPath id="_clipPath_qpgdJFLaOH8tk4klqBqMzrLHJZQw3FLZ"><rect x="1592.5" y="570" width="97.5" height="88.333"/></clipPath></defs><g clip-path="url(#_clipPath_qpgdJFLaOH8tk4klqBqMzrLHJZQw3FLZ)"><circle vector-effect="non-scaling-stroke" cx="1677.5" cy="578.3333333333334" r="5" fill="rgb(247,247,180)"/><circle vector-effect="non-scaling-stroke" cx="1658.75" cy="591.6666666666666" r="5" fill="rgb(247,247,180)"/><circle vector-effect="non-scaling-stroke" cx="1632.5" cy="581.6666666666666" r="5" fill="rgb(247,247,180)"/><circle vector-effect="non-scaling-stroke" cx="1613.75" cy="585" r="5" fill="rgb(247,247,180)"/><circle vector-effect="non-scaling-stroke" cx="1598.75" cy="588.3333333333334" r="5" fill="rgb(247,247,180)"/><circle vector-effect="non-scaling-stroke" cx="1685" cy="611.6666666666666" r="5" fill="rgb(247,247,180)"/><circle vector-effect="non-scaling-stroke" cx="1666.25" cy="598.3333333333334" r="5" fill="rgb(247,247,180)"/><circle vector-effect="non-scaling-stroke" cx="1643.75" cy="608.3333333333334" r="5" fill="rgb(247,247,180)"/><circle vector-effect="non-scaling-stroke" cx="1625" cy="601.6666666666666" r="5" fill="rgb(247,247,180)"/><circle vector-effect="non-scaling-stroke" cx="1610" cy="605" r="5" fill="rgb(247,247,180)"/><circle vector-effect="non-scaling-stroke" cx="1670" cy="625" r="5" fill="rgb(247,247,180)"/><circle vector-effect="non-scaling-stroke" cx="1655" cy="618.3333333333334" r="5" fill="rgb(247,247,180)"/><circle vector-effect="non-scaling-stroke" cx="1636.25" cy="575" r="5" fill="rgb(247,247,180)"/><circle vector-effect="non-scaling-stroke" cx="1621.25" cy="628.3333333333334" r="5" fill="rgb(247,247,180)"/><circle vector-effect="non-scaling-stroke" cx="1602.5" cy="621.6666666666666" r="5" fill="rgb(247,247,180)"/><circle vector-effect="non-scaling-stroke" cx="1681.25" cy="595" r="5" fill="rgb(247,247,180)"/><circle vector-effect="non-scaling-stroke" cx="1662.5" cy="635" r="5" fill="rgb(247,247,180)"/><circle vector-effect="non-scaling-stroke" cx="1647.5" cy="631.6666666666666" r="5" fill="rgb(247,247,180)"/><circle vector-effect="non-scaling-stroke" cx="1628.75" cy="615" r="5" fill="rgb(247,247,180)"/><circle vector-effect="non-scaling-stroke" cx="1606.25" cy="638.3333333333334" r="5" fill="rgb(247,247,180)"/><circle vector-effect="non-scaling-stroke" cx="1673.75" cy="641.6666666666666" r="5" fill="rgb(247,247,180)"/><circle vector-effect="non-scaling-stroke" cx="1651.25" cy="645" r="5" fill="rgb(247,247,180)"/><circle vector-effect="non-scaling-stroke" cx="1640" cy="648.3333333333334" r="5" fill="rgb(247,247,180)"/><circle vector-effect="non-scaling-stroke" cx="1617.5" cy="651.6666666666666" r="5" fill="rgb(247,247,180)"/><circle vector-effect="non-scaling-stroke" cx="1597.5" cy="653.3333333333334" r="5" fill="rgb(247,247,180)"/></g></svg>