<?xml version="1.0" standalone="no"?><!-- Generator: Gravit.io --><svg xmlns="http://www.w3.org/2000/svg" xmlns:xlink="http://www.w3.org/1999/xlink" style="isolation:isolate" viewBox="548.29 333.607 773.421 485.786" width="773.421" height="485.786"><defs><clipPath id="_clipPath_OKmlddIRcXV7X7j4v2F3PH2Tr0PoNN6x"><rect x="548.29" y="333.607" width="773.421" height="485.786"/></clipPath></defs><g clip-path="url(#_clipPath_OKmlddIRcXV7X7j4v2F3PH2Tr0PoNN6x)"><rect x="548.29" y="333.607" width="773.421" height="485.786" style="fill:rgb(213,213,213)" fill-opacity="0"/><path d=" M 631.838 443.094 L 550.811 686.173 C 542.085 712.353 556.735 739.041 583.507 745.734 L 837.986 809.354 C 891.529 822.739 978.471 822.739 1032.014 809.354 L 1286.493 745.734 C 1313.265 739.041 1327.915 712.353 1319.189 686.173 L 1238.162 443.094 C 1236.417 437.858 1230.749 432.19 1225.513 430.445 L 935 333.607 L 644.487 430.445 C 639.251 432.19 633.583 437.858 631.838 443.094 Z " fill="rgb(149,149,149)"/><clipPath id="_clipPath_cz0lvm5yghHBNx9wCyRikEYluDOKUeiM"><path d=" M 631.838 443.094 L 550.811 686.173 C 542.085 712.353 556.735 739.041 583.507 745.734 L 837.986 809.354 C 891.529 822.739 978.471 822.739 1032.014 809.354 L 1286.493 745.734 C 1313.265 739.041 1327.915 712.353 1319.189 686.173 L 1238.162 443.094 C 1236.417 437.858 1230.749 432.19 1225.513 430.445 L 935 333.607 L 644.487 430.445 C 639.251 432.19 633.583 437.858 631.838 443.094 Z " fill="rgb(149,149,149)"/></clipPath><g clip-path="url(#_clipPath_cz0lvm5yghHBNx9wCyRikEYluDOKUeiM)"><path d=" M 299 723.607 L 835.119 697.476 C 890.245 694.789 968.347 662.678 1009.422 625.813 L 1335 333.607 L 1487 1050.607 L 311 1050.607 L 299 723.607 Z " fill="rgb(121,121,121)"/></g><path d=" M 775 529 L 848 471 L 907 529 L 836 569 L 775 529 Z " fill="rgb(255,229,114)"/><clipPath id="_clipPath_UcGCpgJ2EFwNbOFgIrsptXyISQ5xg0iB"><path d=" M 775 529 L 848 471 L 907 529 L 836 569 L 775 529 Z " fill="rgb(255,229,114)"/></clipPath><g clip-path="url(#_clipPath_UcGCpgJ2EFwNbOFgIrsptXyISQ5xg0iB)"><path d=" M 750 518 L 836 554 L 895.862 528.345 L 855 464 L 934 512 L 839 627 L 750 518 Z " fill="rgb(0,0,0)" fill-opacity="0.24"/></g><path d=" M 1101 629.5 L 1132 576.5 L 1192 624.5 L 1136 659.5 L 1101 629.5 Z " fill="rgb(255,229,114)"/><clipPath id="_clipPath_oRdtd39YLeuk4brPMPslDmVKV4koQ38p"><path d=" M 1101 629.5 L 1132 576.5 L 1192 624.5 L 1136 659.5 L 1101 629.5 Z " fill="rgb(255,229,114)"/></clipPath><g clip-path="url(#_clipPath_oRdtd39YLeuk4brPMPslDmVKV4koQ38p)"><path d=" M 1118 580 L 1114 624.5 L 1136 643 L 1207 635 L 1068 695 L 1118 580 Z " fill="rgb(195,175,87)"/></g></g></svg>