<?xml version="1.0" standalone="no"?><!-- Generator: Gravit.io --><svg xmlns="http://www.w3.org/2000/svg" xmlns:xlink="http://www.w3.org/1999/xlink" style="isolation:isolate" viewBox="113.29 500 773.421 485.786" width="773.421" height="485.786"><defs><clipPath id="_clipPath_YvqTSZZ6fWJqmXrG7Ysdt4ygg4C6RoJl"><rect x="113.29" y="500" width="773.421" height="485.786"/></clipPath></defs><g clip-path="url(#_clipPath_YvqTSZZ6fWJqmXrG7Ysdt4ygg4C6RoJl)"><rect x="113.29" y="500" width="773.421" height="485.786" style="fill:rgb(223,223,223)" fill-opacity="0"/><path d=" M 196.838 609.487 L 115.811 852.566 C 107.085 878.745 121.735 905.434 148.507 912.127 L 402.986 975.746 C 456.529 989.132 543.471 989.132 597.014 975.746 L 851.493 912.127 C 878.265 905.434 892.915 878.745 884.189 852.566 L 803.162 609.487 C 801.417 604.251 795.749 598.583 790.513 596.838 L 500 500 L 209.487 596.838 C 204.251 598.583 198.583 604.251 196.838 609.487 Z " fill="rgb(149,149,149)"/><clipPath id="_clipPath_a26aH3Rd9mFwoI73Ln1OKTnCPUcv0MSp"><path d=" M 196.838 609.487 L 115.811 852.566 C 107.085 878.745 121.735 905.434 148.507 912.127 L 402.986 975.746 C 456.529 989.132 543.471 989.132 597.014 975.746 L 851.493 912.127 C 878.265 905.434 892.915 878.745 884.189 852.566 L 803.162 609.487 C 801.417 604.251 795.749 598.583 790.513 596.838 L 500 500 L 209.487 596.838 C 204.251 598.583 198.583 604.251 196.838 609.487 Z " fill="rgb(149,149,149)"/></clipPath><g clip-path="url(#_clipPath_a26aH3Rd9mFwoI73Ln1OKTnCPUcv0MSp)"><path d=" M -136 890 L 400.119 863.868 C 455.245 861.181 533.347 829.071 574.422 792.206 L 900 500 L 1052 1217 L -124 1217 L -136 890 Z " fill="rgb(121,121,121)"/></g><path d=" M 306 580 L 242 651 L 349 651 L 398 611 L 306 580 Z " fill="rgb(255,255,255)"/><clipPath id="_clipPath_jVAeQ26GZtV8OeK7daYdic5Mc8qi7bYD"><path d=" M 306 580 L 242 651 L 349 651 L 398 611 L 306 580 Z " fill="rgb(255,255,255)"/></clipPath><g clip-path="url(#_clipPath_jVAeQ26GZtV8OeK7daYdic5Mc8qi7bYD)"><path d=" M 263 661.826 L 398 588.827 L 433 651 L 263 661.826 Z " fill="rgb(221,221,221)"/></g><path d=" M 651 697 L 715 768 L 608 768 L 559 728 L 651 697 Z " fill="rgb(255,255,255)"/><clipPath id="_clipPath_Ktxu8y8rPf9QCppI6ahv0atpc8ncN3nU"><path d=" M 651 697 L 715 768 L 608 768 L 559 728 L 651 697 Z " fill="rgb(255,255,255)"/></clipPath><g clip-path="url(#_clipPath_Ktxu8y8rPf9QCppI6ahv0atpc8ncN3nU)"><path d=" M 535 731.373 L 646 717.011 L 670 790 L 760 768 L 660 638.63 L 535 731.373 Z " fill="rgb(221,221,221)"/></g><path d=" M 551.759 588.827 L 619.576 564.564 L 588.922 639.136 L 547.007 661.826 L 551.759 588.827 Z " fill="rgb(255,255,255)"/><clipPath id="_clipPath_NJli2GpwXcc1Ye5tIRlJo21hDU43c5H1"><path d=" M 551.759 588.827 L 619.576 564.564 L 588.922 639.136 L 547.007 661.826 L 551.759 588.827 Z " fill="rgb(255,255,255)"/></clipPath><g clip-path="url(#_clipPath_NJli2GpwXcc1Ye5tIRlJo21hDU43c5H1)"><path d=" M 542 585 L 557 580 L 552.732 647.115 L 586.853 623.959 L 624 553 L 631 594 L 619.576 662.316 L 508 690.68 L 542 585 Z " fill="rgb(221,221,221)"/></g><path d=" M 158.149 776.476 L 210.138 757.875 L 186.639 815.043 L 154.506 832.437 L 158.149 776.476 Z " fill="rgb(255,255,255)"/><clipPath id="_clipPath_y7B4B8oWMmepuNKOxrCRUdPUEoK4wZFq"><path d=" M 158.149 776.476 L 210.138 757.875 L 186.639 815.043 L 154.506 832.437 L 158.149 776.476 Z " fill="rgb(255,255,255)"/></clipPath><g clip-path="url(#_clipPath_y7B4B8oWMmepuNKOxrCRUdPUEoK4wZFq)"><path d=" M 186.639 761 L 165 781 L 165 815.043 L 210.138 793 L 210.138 853 L 100 832.437 L 129 740 L 186.639 761 Z " fill="rgb(221,221,221)"/></g><path d=" M 393.802 762.674 L 348.314 731.373 L 408.431 717.011 L 441.331 732.908 L 393.802 762.674 Z " fill="rgb(255,255,255)"/><clipPath id="_clipPath_ygIQDi8MeRjjFAMKe4irJJWV9ZAIFfmk"><path d=" M 393.802 762.674 L 348.314 731.373 L 408.431 717.011 L 441.331 732.908 L 393.802 762.674 Z " fill="rgb(255,255,255)"/></clipPath><g clip-path="url(#_clipPath_ygIQDi8MeRjjFAMKe4irJJWV9ZAIFfmk)"><path d=" M 425 713 L 393.802 753 L 357 753 L 398 789 L 469 743 L 425 713 Z " fill="rgb(221,221,221)"/></g><path d=" M 805.26 690.68 L 786.83 638.63 L 843.92 662.316 L 861.21 694.505 L 805.26 690.68 Z " fill="rgb(255,255,255)"/><clipPath id="_clipPath_ZNuKCuOnysIKRcBzKP3ZwPozLSun7abn"><path d=" M 805.26 690.68 L 786.83 638.63 L 843.92 662.316 L 861.21 694.505 L 805.26 690.68 Z " fill="rgb(255,255,255)"/></clipPath><g clip-path="url(#_clipPath_ZNuKCuOnysIKRcBzKP3ZwPozLSun7abn)"><path d=" M 803 636 L 786.83 687 L 870 671 L 880 736 L 731 704 L 735 615 L 803 636 Z " fill="rgb(221,221,221)"/></g><path d=" M 807.492 890.286 L 754.279 875.548 L 806.415 842.35 L 842.701 846.637 L 807.492 890.286 Z " fill="rgb(255,255,255)"/><clipPath id="_clipPath_F1QHgb1LLQkjkamKyYcXPQK4d3tV6eYG"><path d=" M 807.492 890.286 L 754.279 875.548 L 806.415 842.35 L 842.701 846.637 L 807.492 890.286 Z " fill="rgb(255,255,255)"/></clipPath><g clip-path="url(#_clipPath_F1QHgb1LLQkjkamKyYcXPQK4d3tV6eYG)"><path d=" M 761.394 860.791 L 793.911 885 L 828.481 825.959 L 887.472 855.029 L 775.834 958.768 L 705.204 904.469 L 761.394 860.791 Z " fill="rgb(221,221,221)"/></g><path d=" M 493.522 924.467 L 390.575 898.785 L 489.085 832.437 L 559 838.88 L 493.522 924.467 Z " fill="rgb(255,255,255)"/><clipPath id="_clipPath_XzPZqxT4Ky1P2jw1sB2l1c7oCrVKFXYc"><path d=" M 493.522 924.467 L 390.575 898.785 L 489.085 832.437 L 559 838.88 L 493.522 924.467 Z " fill="rgb(255,255,255)"/></clipPath><g clip-path="url(#_clipPath_XzPZqxT4Ky1P2jw1sB2l1c7oCrVKFXYc)"><path d=" M 436 855 L 426 895 L 533 898.785 L 436 970 L 355 855 L 436 855 Z " fill="rgb(221,221,221)"/></g></g></svg>