<?xml version="1.0" standalone="no"?><!-- Generator: Gravit.io --><svg xmlns="http://www.w3.org/2000/svg" xmlns:xlink="http://www.w3.org/1999/xlink" style="isolation:isolate" viewBox="1599.039 99.982 773.421 485.786" width="773.421" height="485.786"><defs><clipPath id="_clipPath_RHo4FjYwdqsCZESL4BQqDjTMzAory24C"><rect x="1599.039" y="99.982" width="773.421" height="485.786"/></clipPath></defs><g clip-path="url(#_clipPath_RHo4FjYwdqsCZESL4BQqDjTMzAory24C)"><clipPath id="_clipPath_jVkVD10RIYiNI0wzCw9qhzxsKyIbq7Dh"><rect x="1599.039" y="99.982" width="773.421" height="485.786" transform="matrix(1,0,0,1,0,0)" fill="rgb(255,255,255)"/></clipPath><g clip-path="url(#_clipPath_jVkVD10RIYiNI0wzCw9qhzxsKyIbq7Dh)"><g><rect x="1599.039" y="99.982" width="773.421" height="485.786" transform="matrix(1,0,0,1,0,0)" fill="none"/><path d=" M 1682.587 209.469 L 1601.56 452.548 C 1592.834 478.727 1607.485 505.416 1634.257 512.109 L 1888.735 575.728 C 1942.278 589.114 2029.221 589.114 2082.763 575.728 L 2337.242 512.109 C 2364.015 505.416 2378.664 478.727 2369.939 452.548 L 2288.911 209.469 C 2287.166 204.233 2281.499 198.565 2276.263 196.82 L 1985.75 99.982 L 1695.236 196.82 C 1690.001 198.565 1684.332 204.233 1682.587 209.469 Z " fill="rgb(53,40,62)"/><clipPath id="_clipPath_0SOvQgcjovTqY6N0rHpyxO1LBfjB7k12"><path d=" M 1682.587 209.469 L 1601.56 452.548 C 1592.834 478.727 1607.485 505.416 1634.257 512.109 L 1888.735 575.728 C 1942.278 589.114 2029.221 589.114 2082.763 575.728 L 2337.242 512.109 C 2364.015 505.416 2378.664 478.727 2369.939 452.548 L 2288.911 209.469 C 2287.166 204.233 2281.499 198.565 2276.263 196.82 L 1985.75 99.982 L 1695.236 196.82 C 1690.001 198.565 1684.332 204.233 1682.587 209.469 Z " fill="rgb(255,255,255)"/></clipPath><g clip-path="url(#_clipPath_0SOvQgcjovTqY6N0rHpyxO1LBfjB7k12)"><g><path d=" M 1349.75 489.982 L 1885.868 463.85 C 1940.994 461.163 2019.096 429.053 2060.171 392.188 L 2385.75 99.982 L 2537.75 816.982 L 1361.75 816.982 L 1349.75 489.982 Z " fill="rgb(43,32,50)"/></g></g><path d=" M 1791.75 179.982 L 1727.75 250.982 L 1834.75 250.982 L 1883.75 210.982 L 1791.75 179.982 Z " fill="rgb(255,255,255)"/><clipPath id="_clipPath_sktbSpvpms3YGDkKW1JxZZFBbSkVuk0g"><path d=" M 1791.75 179.982 L 1727.75 250.982 L 1834.75 250.982 L 1883.75 210.982 L 1791.75 179.982 Z " fill="rgb(255,255,255)"/></clipPath><g clip-path="url(#_clipPath_sktbSpvpms3YGDkKW1JxZZFBbSkVuk0g)"><g><path d=" M 1748.75 261.808 L 1883.75 188.809 L 1918.75 250.982 L 1748.75 261.808 Z " fill="rgb(221,221,221)"/></g></g><path d=" M 2136.75 296.982 L 2200.75 367.982 L 2093.75 367.982 L 2044.75 327.982 L 2136.75 296.982 Z " fill="rgb(242,195,222)"/><clipPath id="_clipPath_cVYD6rx8vS5DWuEftZjf3WP7TzXOT7r9"><path d=" M 2136.75 296.982 L 2200.75 367.982 L 2093.75 367.982 L 2044.75 327.982 L 2136.75 296.982 Z " fill="rgb(255,255,255)"/></clipPath><g clip-path="url(#_clipPath_cVYD6rx8vS5DWuEftZjf3WP7TzXOT7r9)"><g><path d=" M 2020.75 331.355 L 2131.75 316.993 L 2155.75 389.982 L 2245.75 367.982 L 2145.75 238.612 L 2020.75 331.355 Z " fill="rgb(232,154,197)"/></g></g><path d=" M 2037.508 188.809 L 2105.325 164.546 L 2074.671 239.118 L 2032.757 261.808 L 2037.508 188.809 Z " fill="rgb(255,255,255)"/><clipPath id="_clipPath_XjmdocUu8h3bGLmHjTNeJVzmHiQhVvtX"><path d=" M 2037.508 188.809 L 2105.325 164.546 L 2074.671 239.118 L 2032.757 261.808 L 2037.508 188.809 Z " fill="rgb(255,255,255)"/></clipPath><g clip-path="url(#_clipPath_XjmdocUu8h3bGLmHjTNeJVzmHiQhVvtX)"><g><path d=" M 2027.75 184.982 L 2042.75 179.982 L 2038.481 247.097 L 2072.603 223.941 L 2109.75 152.982 L 2116.75 193.982 L 2105.325 262.298 L 1993.75 290.662 L 2027.75 184.982 Z " fill="rgb(221,221,221)"/></g></g><path d=" M 1643.899 376.458 L 1695.888 357.857 L 1672.389 415.025 L 1640.255 432.419 L 1643.899 376.458 Z " fill="rgb(255,255,255)"/><clipPath id="_clipPath_QtdiICSti8oM5W496BLxQ2mZbR1a2sV7"><path d=" M 1643.899 376.458 L 1695.888 357.857 L 1672.389 415.025 L 1640.255 432.419 L 1643.899 376.458 Z " fill="rgb(255,255,255)"/></clipPath><g clip-path="url(#_clipPath_QtdiICSti8oM5W496BLxQ2mZbR1a2sV7)"><g><path d=" M 1672.389 360.982 L 1650.75 380.982 L 1650.75 415.025 L 1695.888 392.982 L 1695.888 452.982 L 1585.75 432.419 L 1614.75 339.982 L 1672.389 360.982 Z " fill="rgb(221,221,221)"/></g></g><path d=" M 1879.552 362.656 L 1834.063 331.355 L 1894.18 316.993 L 1927.08 332.89 L 1879.552 362.656 Z " fill="rgb(255,255,255)"/><clipPath id="_clipPath_E4qijr1PXEuZz95lmj6IAyOeeWBQSCvk"><path d=" M 1879.552 362.656 L 1834.063 331.355 L 1894.18 316.993 L 1927.08 332.89 L 1879.552 362.656 Z " fill="rgb(255,255,255)"/></clipPath><g clip-path="url(#_clipPath_E4qijr1PXEuZz95lmj6IAyOeeWBQSCvk)"><g><path d=" M 1910.75 312.982 L 1879.552 352.982 L 1842.75 352.982 L 1883.75 388.982 L 1954.75 342.982 L 1910.75 312.982 Z " fill="rgb(221,221,221)"/></g></g><path d=" M 2291.01 290.662 L 2272.58 238.612 L 2329.669 262.298 L 2346.96 294.487 L 2291.01 290.662 Z " fill="rgb(255,255,255)"/><clipPath id="_clipPath_usXKfKdSSM9S7IkqLY7p68VFgPVEtixa"><path d=" M 2291.01 290.662 L 2272.58 238.612 L 2329.669 262.298 L 2346.96 294.487 L 2291.01 290.662 Z " fill="rgb(255,255,255)"/></clipPath><g clip-path="url(#_clipPath_usXKfKdSSM9S7IkqLY7p68VFgPVEtixa)"><g><path d=" M 2288.75 235.982 L 2272.58 286.982 L 2355.75 270.982 L 2365.75 335.982 L 2216.75 303.982 L 2220.75 214.982 L 2288.75 235.982 Z " fill="rgb(221,221,221)"/></g></g><path d=" M 2293.242 490.268 L 2240.028 475.53 L 2292.164 442.332 L 2328.45 446.619 L 2293.242 490.268 Z " fill="rgb(255,255,255)"/><clipPath id="_clipPath_AxsPwioNtDO1C1tg1gzX8RoCJY69g1YJ"><path d=" M 2293.242 490.268 L 2240.028 475.53 L 2292.164 442.332 L 2328.45 446.619 L 2293.242 490.268 Z " fill="rgb(255,255,255)"/></clipPath><g clip-path="url(#_clipPath_AxsPwioNtDO1C1tg1gzX8RoCJY69g1YJ)"><g><path d=" M 2247.143 460.773 L 2279.661 484.982 L 2314.231 425.941 L 2373.221 455.011 L 2261.583 558.75 L 2190.953 504.451 L 2247.143 460.773 Z " fill="rgb(221,221,221)"/></g></g><path d=" M 1979.272 524.449 L 1876.325 498.767 L 1974.834 432.419 L 2044.75 438.862 L 1979.272 524.449 Z " fill="rgb(255,255,255)"/><clipPath id="_clipPath_ye17fIEAiWmIA8UbwnFbb3dwU67l59ws"><path d=" M 1979.272 524.449 L 1876.325 498.767 L 1974.834 432.419 L 2044.75 438.862 L 1979.272 524.449 Z " fill="rgb(255,255,255)"/></clipPath><g clip-path="url(#_clipPath_ye17fIEAiWmIA8UbwnFbb3dwU67l59ws)"><g><path d=" M 1921.75 454.982 L 1911.75 494.982 L 2018.75 498.767 L 1921.75 569.982 L 1840.75 454.982 L 1921.75 454.982 Z " fill="rgb(221,221,221)"/></g></g></g></g></g></svg>