<?xml version="1.0" standalone="no"?><!-- Generator: Gravit.io --><svg xmlns="http://www.w3.org/2000/svg" xmlns:xlink="http://www.w3.org/1999/xlink" style="isolation:isolate" viewBox="1590 570 100 90" width="100" height="90"><defs><clipPath id="_clipPath_4qMXwUjs3VabQPERlR3VHSrkcphei0u4"><rect x="1590" y="570" width="100" height="90"/></clipPath></defs><g clip-path="url(#_clipPath_4qMXwUjs3VabQPERlR3VHSrkcphei0u4)"><circle vector-effect="non-scaling-stroke" cx="1605" cy="575" r="5" fill="rgb(255,74,74)"/><circle vector-effect="non-scaling-stroke" cx="1625" cy="575" r="5" fill="rgb(255,74,74)"/><circle vector-effect="non-scaling-stroke" cx="1645" cy="575" r="5" fill="rgb(255,74,74)"/><circle vector-effect="non-scaling-stroke" cx="1665" cy="575" r="5" fill="rgb(255,74,74)"/><circle vector-effect="non-scaling-stroke" cx="1685" cy="575" r="5" fill="rgb(255,74,74)"/><circle vector-effect="non-scaling-stroke" cx="1595" cy="595" r="5" fill="rgb(255,74,74)"/><circle vector-effect="non-scaling-stroke" cx="1615" cy="595" r="5" fill="rgb(255,74,74)"/><circle vector-effect="non-scaling-stroke" cx="1635" cy="595" r="5" fill="rgb(255,74,74)"/><circle vector-effect="non-scaling-stroke" cx="1655" cy="595" r="5" fill="rgb(255,74,74)"/><circle vector-effect="non-scaling-stroke" cx="1675" cy="595" r="5" fill="rgb(255,74,74)"/><circle vector-effect="non-scaling-stroke" cx="1605" cy="615" r="5" fill="rgb(255,74,74)"/><circle vector-effect="non-scaling-stroke" cx="1625" cy="615" r="5" fill="rgb(255,74,74)"/><circle vector-effect="non-scaling-stroke" cx="1645" cy="615" r="5" fill="rgb(255,74,74)"/><circle vector-effect="non-scaling-stroke" cx="1665" cy="615" r="5" fill="rgb(255,74,74)"/><circle vector-effect="non-scaling-stroke" cx="1685" cy="615" r="5" fill="rgb(255,74,74)"/><circle vector-effect="non-scaling-stroke" cx="1595" cy="635" r="5" fill="rgb(255,74,74)"/><circle vector-effect="non-scaling-stroke" cx="1615" cy="635" r="5" fill="rgb(255,74,74)"/><circle vector-effect="non-scaling-stroke" cx="1635" cy="635" r="5" fill="rgb(255,74,74)"/><circle vector-effect="non-scaling-stroke" cx="1655" cy="635" r="5" fill="rgb(255,74,74)"/><circle vector-effect="non-scaling-stroke" cx="1675" cy="635" r="5" fill="rgb(255,74,74)"/><circle vector-effect="non-scaling-stroke" cx="1605" cy="655" r="5" fill="rgb(255,74,74)"/><circle vector-effect="non-scaling-stroke" cx="1625" cy="655" r="5" fill="rgb(255,74,74)"/><circle vector-effect="non-scaling-stroke" cx="1645" cy="655" r="5" fill="rgb(255,74,74)"/><circle vector-effect="non-scaling-stroke" cx="1665" cy="655" r="5" fill="rgb(255,74,74)"/><circle vector-effect="non-scaling-stroke" cx="1685" cy="655" r="5" fill="rgb(255,74,74)"/></g></svg>