<?xml version="1.0" standalone="no"?><!-- Generator: Gravit.io --><svg xmlns="http://www.w3.org/2000/svg" xmlns:xlink="http://www.w3.org/1999/xlink" style="isolation:isolate" viewBox="1590 570 100 90" width="100" height="90"><defs><clipPath id="_clipPath_h9L38cnh1QteulzuQuofjvkCZA0Eqok8"><rect x="1590" y="570" width="100" height="90"/></clipPath></defs><g clip-path="url(#_clipPath_h9L38cnh1QteulzuQuofjvkCZA0Eqok8)"><circle vector-effect="non-scaling-stroke" cx="1675" cy="575" r="5" fill="rgb(247,180,230)"/><circle vector-effect="non-scaling-stroke" cx="1655" cy="575" r="5" fill="rgb(247,180,230)"/><circle vector-effect="non-scaling-stroke" cx="1635" cy="575" r="5" fill="rgb(247,180,230)"/><circle vector-effect="non-scaling-stroke" cx="1615" cy="575" r="5" fill="rgb(247,180,230)"/><circle vector-effect="non-scaling-stroke" cx="1685" cy="595" r="5" fill="rgb(247,180,230)"/><circle vector-effect="non-scaling-stroke" cx="1645" cy="595" r="5" fill="rgb(247,180,230)"/><circle vector-effect="non-scaling-stroke" cx="1625" cy="595" r="5" fill="rgb(247,180,230)"/><circle vector-effect="non-scaling-stroke" cx="1605" cy="595" r="5" fill="rgb(247,180,230)"/><circle vector-effect="non-scaling-stroke" cx="1675" cy="615" r="5" fill="rgb(247,180,230)"/><circle vector-effect="non-scaling-stroke" cx="1655" cy="615" r="5" fill="rgb(247,180,230)"/><circle vector-effect="non-scaling-stroke" cx="1615" cy="615" r="5" fill="rgb(247,180,230)"/><circle vector-effect="non-scaling-stroke" cx="1595" cy="615" r="5" fill="rgb(247,180,230)"/><circle vector-effect="non-scaling-stroke" cx="1685" cy="635" r="5" fill="rgb(247,180,230)"/><circle vector-effect="non-scaling-stroke" cx="1665" cy="635" r="5" fill="rgb(247,180,230)"/><circle vector-effect="non-scaling-stroke" cx="1645" cy="635" r="5" fill="rgb(247,180,230)"/><circle vector-effect="non-scaling-stroke" cx="1605" cy="635" r="5" fill="rgb(247,180,230)"/><circle vector-effect="non-scaling-stroke" cx="1675" cy="655" r="5" fill="rgb(247,180,230)"/><circle vector-effect="non-scaling-stroke" cx="1655" cy="655" r="5" fill="rgb(247,180,230)"/><circle vector-effect="non-scaling-stroke" cx="1635" cy="655" r="5" fill="rgb(247,180,230)"/><circle vector-effect="non-scaling-stroke" cx="1615" cy="655" r="5" fill="rgb(247,180,230)"/></g></svg>