<?xml version="1.0" standalone="no"?><!-- Generator: Gravit.io --><svg xmlns="http://www.w3.org/2000/svg" xmlns:xlink="http://www.w3.org/1999/xlink" style="isolation:isolate" viewBox="418.55 494.887 338.899 624.225" width="338.899" height="624.225"><defs><clipPath id="_clipPath_WTBdzA6mNonR9Rzr7I7LcNFRUdNQxUdy"><rect x="418.55" y="494.887" width="338.899" height="624.225"/></clipPath></defs><g clip-path="url(#_clipPath_WTBdzA6mNonR9Rzr7I7LcNFRUdNQxUdy)"><radialGradient id="_rgradient_2" fx="0.5" fy="0.5" cx="0.5" cy="0.5" r="0.5" gradientTransform="matrix(338.899,0,0,624.225,418.55,494.887)" gradientUnits="userSpaceOnUse"><stop offset="0%" stop-opacity="1" style="stop-color:rgb(248,237,147)"/><stop offset="100%" stop-opacity="1" style="stop-color:rgb(255,249,204)"/></radialGradient><path d=" M 542.275 1100.186 L 503.275 1061.186 L 464.276 1022.183 C 439.04 996.947 418.55 947.481 418.55 911.791 L 418.55 807 L 418.55 702.212 C 418.55 666.522 439.04 617.056 464.276 591.816 L 503.275 552.817 L 542.275 513.817 C 567.51 488.577 608.49 488.577 633.725 513.817 L 672.725 552.817 L 711.724 591.816 C 736.96 617.056 757.45 666.522 757.45 702.212 L 757.45 807 L 757.45 911.791 C 757.45 947.481 736.96 996.947 711.724 1022.183 L 672.725 1061.186 L 633.725 1100.186 C 608.49 1125.422 567.51 1125.422 542.275 1100.186 Z  M 563 757 L 613 757 C 626.798 757 638 768.202 638 782 L 638 832 C 638 845.798 626.798 857 613 857 L 563 857 C 549.202 857 538 845.798 538 832 L 538 782 C 538 768.202 549.202 757 563 757 Z " fill-rule="evenodd" fill="url(#_rgradient_2)"/></g></svg>